G04 #@! TF.FileFunction,Paste,Top*
%FSLAX46Y46*%
G04 Gerber Fmt 4.6, Leading zero omitted, Abs format (unit mm)*
G04 Created by KiCad (PCBNEW (2015-07-26 BZR 5996)-product) date Wed 29 Jul 2015 11:17:57 PM EDT*
%MOMM*%
G01*
G04 APERTURE LIST*
%ADD10C,0.100000*%
%ADD11R,0.800100X0.800100*%
%ADD12R,1.000000X1.000000*%
G04 APERTURE END LIST*
D10*
D11*
X209280760Y-62418000D03*
X209280760Y-60518000D03*
X207281780Y-61468000D03*
X200136760Y-62672000D03*
X200136760Y-60772000D03*
X198137780Y-61722000D03*
D12*
X194300000Y-83462000D03*
X192800000Y-83462000D03*
X191300000Y-83462000D03*
X189800000Y-83462000D03*
X188300000Y-83462000D03*
X186800000Y-83462000D03*
X185300000Y-83462000D03*
X183800000Y-83462000D03*
X182300000Y-83462000D03*
X180800000Y-83462000D03*
X179300000Y-83462000D03*
X177800000Y-83462000D03*
X176300000Y-83462000D03*
X174510000Y-82232000D03*
X174510000Y-80732000D03*
X174510000Y-79232000D03*
X174510000Y-77732000D03*
X174510000Y-76232000D03*
X174510000Y-74732000D03*
X174510000Y-73232000D03*
X174510000Y-71732000D03*
X176310000Y-70462000D03*
X177810000Y-70462000D03*
X179310000Y-70462000D03*
X180810000Y-70462000D03*
X182310000Y-70462000D03*
X183810000Y-70462000D03*
X185310000Y-70462000D03*
X186810000Y-70462000D03*
X188310000Y-70462000D03*
X189810000Y-70462000D03*
X191310000Y-70462000D03*
X192810000Y-70462000D03*
X194310000Y-70462000D03*
M02*
