M48
;DRILL file {KiCad (2015-07-26 BZR 5996)-product} date Wed 29 Jul 2015 09:23:41 PM EDT
;FORMAT={-:-/ absolute / inch / decimal}
FMAT,2
INCH,TZ
T1C0.016
T2C0.031
T3C0.032
T4C0.032
T5C0.039
T6C0.125
%
G90
G05
M72
T1
X7.44Y-2.67
X7.79Y-2.52
X7.83Y-2.6
X8.18Y-2.53
T2
X8.08Y-3.65
T3
X7.9816Y-3.65
T4
X5.93Y-2.52
X5.93Y-2.72
X5.93Y-2.86
X5.93Y-3.06
X5.93Y-3.19
X5.93Y-3.39
X5.93Y-3.81
X5.93Y-4.01
X5.94Y-2.16
X5.94Y-2.36
X6.23Y-2.52
X6.23Y-2.72
X6.23Y-2.86
X6.23Y-3.06
X6.23Y-3.19
X6.23Y-3.39
X6.23Y-3.81
X6.23Y-4.01
X6.24Y-2.16
X6.24Y-2.36
X6.79Y-2.15
X6.89Y-2.15
X6.99Y-2.15
X7.09Y-2.15
X7.15Y-4.05
X7.19Y-2.15
X7.25Y-4.05
X7.29Y-2.15
X7.35Y-4.05
X7.39Y-2.15
X7.45Y-4.05
X7.49Y-2.15
X7.55Y-4.05
X7.65Y-2.15
X7.65Y-4.05
X7.75Y-2.15
X7.85Y-2.15
X7.85Y-4.05
X7.95Y-2.15
X7.95Y-4.05
X8.05Y-2.15
X8.05Y-4.05
X8.15Y-2.15
X8.15Y-4.05
X8.25Y-2.15
X8.25Y-4.05
X8.35Y-2.15
X8.35Y-4.05
T5
X6.38Y-2.32
X6.38Y-2.72
X6.38Y-2.98
X6.38Y-3.38
X6.56Y-2.32
X6.56Y-2.72
X6.56Y-2.98
X6.56Y-3.38
X6.9Y-3.65
X7.Y-3.65
X7.17Y-2.35
X7.17Y-2.53
X7.2Y-3.65
X7.57Y-2.35
X7.57Y-2.53
X7.6Y-3.65
X7.76Y-3.46
X7.76Y-3.86
X8.11Y-2.91
X8.11Y-3.31
X8.27Y-2.91
X8.27Y-3.31
T6
X6.4Y-4.05
X6.45Y-2.15
X8.45Y-2.75
X8.45Y-3.85
T0
M30
