G04 #@! TF.FileFunction,Copper,L1,Top,Signal*
%FSLAX46Y46*%
G04 Gerber Fmt 4.6, Leading zero omitted, Abs format (unit mm)*
G04 Created by KiCad (PCBNEW (2015-07-26 BZR 5996)-product) date Thu 30 Jul 2015 12:08:43 AM EDT*
%MOMM*%
G01*
G04 APERTURE LIST*
%ADD10C,0.100000*%
%ADD11R,1.300000X1.300000*%
%ADD12C,1.300000*%
%ADD13R,1.900000X2.000000*%
%ADD14C,1.900000*%
%ADD15R,0.800100X0.800100*%
%ADD16C,1.998980*%
%ADD17C,1.397000*%
%ADD18R,1.000000X1.000000*%
%ADD19O,1.524000X2.540000*%
%ADD20C,3.937000*%
%ADD21C,0.600000*%
%ADD22C,0.250000*%
G04 APERTURE END LIST*
D10*
D11*
X205232000Y-92710000D03*
D12*
X202732000Y-92710000D03*
D13*
X175260000Y-92710000D03*
D14*
X177800000Y-92710000D03*
D15*
X209280760Y-62418000D03*
X209280760Y-60518000D03*
X207281780Y-61468000D03*
X200136760Y-62672000D03*
X200136760Y-60772000D03*
X198137780Y-61722000D03*
D16*
X162052000Y-75692000D03*
X162052000Y-85852000D03*
X166624000Y-75692000D03*
X166624000Y-85852000D03*
X162052000Y-58928000D03*
X162052000Y-69088000D03*
X166624000Y-58928000D03*
X166624000Y-69088000D03*
X197104000Y-98044000D03*
X197104000Y-87884000D03*
X193040000Y-92710000D03*
X182880000Y-92710000D03*
X205994000Y-84074000D03*
X205994000Y-73914000D03*
X210058000Y-84074000D03*
X210058000Y-73914000D03*
X182118000Y-64262000D03*
X192278000Y-64262000D03*
X182118000Y-59690000D03*
X192278000Y-59690000D03*
D17*
X158242000Y-81026000D03*
X158242000Y-86106000D03*
X150622000Y-81026000D03*
X150622000Y-86106000D03*
X158242000Y-72644000D03*
X158242000Y-77724000D03*
X150622000Y-72644000D03*
X150622000Y-77724000D03*
X158242000Y-64008000D03*
X158242000Y-69088000D03*
X150622000Y-64008000D03*
X150622000Y-69088000D03*
X158496000Y-54864000D03*
X158496000Y-59944000D03*
X150876000Y-54864000D03*
X150876000Y-59944000D03*
X158242000Y-96774000D03*
X158242000Y-101854000D03*
X150622000Y-96774000D03*
X150622000Y-101854000D03*
D18*
X194300000Y-83462000D03*
X192800000Y-83462000D03*
X191300000Y-83462000D03*
X189800000Y-83462000D03*
X188300000Y-83462000D03*
X186800000Y-83462000D03*
X185300000Y-83462000D03*
X183800000Y-83462000D03*
X182300000Y-83462000D03*
X180800000Y-83462000D03*
X179300000Y-83462000D03*
X177800000Y-83462000D03*
X176300000Y-83462000D03*
X174510000Y-82232000D03*
X174510000Y-80732000D03*
X174510000Y-79232000D03*
X174510000Y-77732000D03*
X174510000Y-76232000D03*
X174510000Y-74732000D03*
X174510000Y-73232000D03*
X174510000Y-71732000D03*
X176310000Y-70462000D03*
X177810000Y-70462000D03*
X179310000Y-70462000D03*
X180810000Y-70462000D03*
X182310000Y-70462000D03*
X183810000Y-70462000D03*
X185310000Y-70462000D03*
X186810000Y-70462000D03*
X188310000Y-70462000D03*
X189810000Y-70462000D03*
X191310000Y-70462000D03*
X192810000Y-70462000D03*
X194310000Y-70462000D03*
D19*
X212090000Y-102870000D03*
X209550000Y-102870000D03*
X207010000Y-102870000D03*
X199390000Y-102870000D03*
X201930000Y-102870000D03*
X204470000Y-102870000D03*
X194310000Y-102870000D03*
X191770000Y-102870000D03*
X189230000Y-102870000D03*
X184150000Y-102870000D03*
X181610000Y-102870000D03*
X212090000Y-54610000D03*
X209550000Y-54610000D03*
X207010000Y-54610000D03*
X204470000Y-54610000D03*
X201930000Y-54610000D03*
X199390000Y-54610000D03*
X196850000Y-54610000D03*
X194310000Y-54610000D03*
X190246000Y-54610000D03*
X187706000Y-54610000D03*
X185166000Y-54610000D03*
X182626000Y-54610000D03*
X180086000Y-54610000D03*
X177546000Y-54610000D03*
X175006000Y-54610000D03*
X172466000Y-54610000D03*
X186690000Y-102870000D03*
D20*
X214630000Y-97790000D03*
X214630000Y-69850000D03*
X163830000Y-54610000D03*
X162560000Y-102870000D03*
D21*
X207772000Y-64262000D03*
X188976000Y-67818000D03*
X198882000Y-66040000D03*
X197866000Y-64008000D03*
D22*
X197104000Y-98044000D02*
X202438000Y-98044000D01*
X205232000Y-95250000D02*
X205232000Y-92710000D01*
X202438000Y-98044000D02*
X205232000Y-95250000D01*
X207772000Y-64262000D02*
X209280760Y-62753240D01*
X209280760Y-62753240D02*
X209280760Y-62418000D01*
X205994000Y-84074000D02*
X200660000Y-84074000D01*
X177810000Y-71638000D02*
X177810000Y-70462000D01*
X178562000Y-72390000D02*
X177810000Y-71638000D01*
X188976000Y-72390000D02*
X178562000Y-72390000D01*
X200660000Y-84074000D02*
X188976000Y-72390000D01*
X198882000Y-66040000D02*
X200136760Y-64785240D01*
X200136760Y-64785240D02*
X200136760Y-62672000D01*
X177810000Y-70462000D02*
X177810000Y-69586000D01*
X179578000Y-67818000D02*
X188976000Y-67818000D01*
X177810000Y-69586000D02*
X179578000Y-67818000D01*
X205994000Y-84074000D02*
X210058000Y-84074000D01*
X205232000Y-92710000D02*
X205232000Y-84836000D01*
X205232000Y-84836000D02*
X205994000Y-84074000D01*
X197104000Y-98044000D02*
X186436000Y-98044000D01*
X184150000Y-100330000D02*
X184150000Y-102870000D01*
X186436000Y-98044000D02*
X184150000Y-100330000D01*
X158242000Y-101854000D02*
X158242000Y-99314000D01*
X165020000Y-94742000D02*
X176300000Y-83462000D01*
X157480000Y-94742000D02*
X165020000Y-94742000D01*
X156718000Y-95504000D02*
X157480000Y-94742000D01*
X156718000Y-97790000D02*
X156718000Y-95504000D01*
X158242000Y-99314000D02*
X156718000Y-97790000D01*
X175456000Y-71316000D02*
X175456000Y-71570000D01*
X176530000Y-72644000D02*
X176530000Y-83232000D01*
X175456000Y-71570000D02*
X176530000Y-72644000D01*
X176530000Y-83232000D02*
X175530000Y-82232000D01*
X175530000Y-82232000D02*
X174510000Y-82232000D01*
X174510000Y-71732000D02*
X175040000Y-71732000D01*
X175040000Y-71732000D02*
X175456000Y-71316000D01*
X175456000Y-71316000D02*
X176310000Y-70462000D01*
X166624000Y-75692000D02*
X168656000Y-75692000D01*
X172616000Y-71732000D02*
X174510000Y-71732000D01*
X168656000Y-75692000D02*
X172616000Y-71732000D01*
X158242000Y-101854000D02*
X159512000Y-101854000D01*
X169164000Y-98806000D02*
X175260000Y-92710000D01*
X162560000Y-98806000D02*
X169164000Y-98806000D01*
X159512000Y-101854000D02*
X162560000Y-98806000D01*
X162052000Y-75692000D02*
X166624000Y-75692000D01*
X166624000Y-75692000D02*
X170942000Y-71374000D01*
X170942000Y-71374000D02*
X170942000Y-58674000D01*
X162052000Y-58928000D02*
X166624000Y-58928000D01*
X166624000Y-58928000D02*
X166878000Y-58674000D01*
X166878000Y-58674000D02*
X170942000Y-58674000D01*
X170942000Y-58674000D02*
X175006000Y-54610000D01*
X182880000Y-92710000D02*
X177800000Y-92710000D01*
X205994000Y-73914000D02*
X205994000Y-72090000D01*
X205994000Y-72090000D02*
X204366000Y-70462000D01*
X204366000Y-70462000D02*
X204320000Y-70462000D01*
X209280760Y-60518000D02*
X209616000Y-60518000D01*
X209616000Y-60518000D02*
X211328000Y-62230000D01*
X211328000Y-62230000D02*
X211328000Y-63500000D01*
X211328000Y-63500000D02*
X204366000Y-70462000D01*
X204366000Y-70462000D02*
X204216000Y-70462000D01*
X204216000Y-70462000D02*
X194310000Y-70462000D01*
X192278000Y-64262000D02*
X194564000Y-64262000D01*
X201185780Y-67564000D02*
X207281780Y-61468000D01*
X197866000Y-67564000D02*
X201185780Y-67564000D01*
X194564000Y-64262000D02*
X197866000Y-67564000D01*
X207281780Y-61468000D02*
X207281780Y-60434220D01*
X212090000Y-57404000D02*
X212090000Y-54610000D01*
X210820000Y-58674000D02*
X212090000Y-57404000D01*
X209042000Y-58674000D02*
X210820000Y-58674000D01*
X207281780Y-60434220D02*
X209042000Y-58674000D01*
X210058000Y-73914000D02*
X208788000Y-73914000D01*
X192810000Y-72922000D02*
X192810000Y-70462000D01*
X196088000Y-76200000D02*
X192810000Y-72922000D01*
X206502000Y-76200000D02*
X196088000Y-76200000D01*
X208788000Y-73914000D02*
X206502000Y-76200000D01*
X189484000Y-64770000D02*
X189484000Y-65532000D01*
X189484000Y-64770000D02*
X189484000Y-58928000D01*
X189484000Y-58928000D02*
X191008000Y-57404000D01*
X191008000Y-57404000D02*
X196768760Y-57404000D01*
X200136760Y-60772000D02*
X196768760Y-57404000D01*
X192810000Y-68858000D02*
X192810000Y-70462000D01*
X189484000Y-65532000D02*
X192810000Y-68858000D01*
X198137780Y-63736220D02*
X198137780Y-61722000D01*
X197866000Y-64008000D02*
X198137780Y-63736220D01*
X198137780Y-61722000D02*
X194310000Y-61722000D01*
X194310000Y-61722000D02*
X192278000Y-59690000D01*
X198137780Y-61722000D02*
X198120000Y-61722000D01*
X162052000Y-85852000D02*
X158496000Y-85852000D01*
X158496000Y-85852000D02*
X158242000Y-86106000D01*
X166624000Y-85852000D02*
X166370000Y-85852000D01*
X166370000Y-85852000D02*
X158242000Y-77724000D01*
X162052000Y-69088000D02*
X158242000Y-69088000D01*
X166624000Y-69088000D02*
X166624000Y-68072000D01*
X166624000Y-68072000D02*
X158496000Y-59944000D01*
X158242000Y-96774000D02*
X165862000Y-96774000D01*
X177800000Y-84836000D02*
X177800000Y-83462000D01*
X165862000Y-96774000D02*
X177800000Y-84836000D01*
X179728000Y-81534000D02*
X178308000Y-81534000D01*
X197104000Y-83566000D02*
X195072000Y-81534000D01*
X195072000Y-81534000D02*
X179728000Y-81534000D01*
X197104000Y-87884000D02*
X197104000Y-83566000D01*
X177800000Y-82042000D02*
X177800000Y-83462000D01*
X178308000Y-81534000D02*
X177800000Y-82042000D01*
X193040000Y-92710000D02*
X193040000Y-91694000D01*
X179300000Y-86082000D02*
X179300000Y-83462000D01*
X181610000Y-88392000D02*
X179300000Y-86082000D01*
X189738000Y-88392000D02*
X181610000Y-88392000D01*
X193040000Y-91694000D02*
X189738000Y-88392000D01*
X150622000Y-72644000D02*
X151130000Y-72644000D01*
X151130000Y-72644000D02*
X152146000Y-73660000D01*
X152146000Y-79502000D02*
X150622000Y-81026000D01*
X152146000Y-73660000D02*
X152146000Y-79502000D01*
X150622000Y-64008000D02*
X151892000Y-65278000D01*
X152146000Y-71120000D02*
X150622000Y-72644000D01*
X152146000Y-65532000D02*
X152146000Y-71120000D01*
X151892000Y-65278000D02*
X152146000Y-65532000D01*
X150876000Y-54864000D02*
X151130000Y-54864000D01*
X151130000Y-54864000D02*
X152400000Y-56134000D01*
X152400000Y-62230000D02*
X150622000Y-64008000D01*
X152400000Y-56134000D02*
X152400000Y-62230000D01*
X150622000Y-72644000D02*
X150622000Y-73152000D01*
X150876000Y-54864000D02*
X150622000Y-54864000D01*
M02*
