G04 #@! TF.FileFunction,Legend,Top*
%FSLAX46Y46*%
G04 Gerber Fmt 4.6, Leading zero omitted, Abs format (unit mm)*
G04 Created by KiCad (PCBNEW (2015-07-26 BZR 5996)-product) date Wed 29 Jul 2015 11:27:52 PM EDT*
%MOMM*%
G01*
G04 APERTURE LIST*
%ADD10C,0.100000*%
%ADD11C,0.150000*%
%ADD12C,0.381000*%
%ADD13C,0.304800*%
G04 APERTURE END LIST*
D10*
D11*
X205482000Y-93960000D02*
X202482000Y-93960000D01*
X202482000Y-91460000D02*
X205482000Y-91460000D01*
X174045112Y-94234904D02*
G75*
G03X174030000Y-91210000I2484888J1524904D01*
G01*
X174030000Y-94210000D02*
X174030000Y-91210000D01*
X179047936Y-92710000D02*
G75*
G03X179047936Y-92710000I-2517936J0D01*
G01*
X207629760Y-60168840D02*
X207629760Y-60217100D01*
X208330800Y-62967820D02*
X207629760Y-62967820D01*
X207629760Y-62967820D02*
X207629760Y-62718900D01*
X207629760Y-60168840D02*
X207629760Y-59968180D01*
X207629760Y-59968180D02*
X208330800Y-59968180D01*
X198485760Y-60422840D02*
X198485760Y-60471100D01*
X199186800Y-63221820D02*
X198485760Y-63221820D01*
X198485760Y-63221820D02*
X198485760Y-62972900D01*
X198485760Y-60422840D02*
X198485760Y-60222180D01*
X198485760Y-60222180D02*
X199186800Y-60222180D01*
X163322000Y-78232000D02*
X163322000Y-83312000D01*
X163322000Y-83312000D02*
X160782000Y-83312000D01*
X160782000Y-83312000D02*
X160782000Y-78232000D01*
X160782000Y-78232000D02*
X163322000Y-78232000D01*
X162052000Y-78232000D02*
X162052000Y-76962000D01*
X162052000Y-83312000D02*
X162052000Y-84582000D01*
X167894000Y-78232000D02*
X167894000Y-83312000D01*
X167894000Y-83312000D02*
X165354000Y-83312000D01*
X165354000Y-83312000D02*
X165354000Y-78232000D01*
X165354000Y-78232000D02*
X167894000Y-78232000D01*
X166624000Y-78232000D02*
X166624000Y-76962000D01*
X166624000Y-83312000D02*
X166624000Y-84582000D01*
X163322000Y-61468000D02*
X163322000Y-66548000D01*
X163322000Y-66548000D02*
X160782000Y-66548000D01*
X160782000Y-66548000D02*
X160782000Y-61468000D01*
X160782000Y-61468000D02*
X163322000Y-61468000D01*
X162052000Y-61468000D02*
X162052000Y-60198000D01*
X162052000Y-66548000D02*
X162052000Y-67818000D01*
X167894000Y-61468000D02*
X167894000Y-66548000D01*
X167894000Y-66548000D02*
X165354000Y-66548000D01*
X165354000Y-66548000D02*
X165354000Y-61468000D01*
X165354000Y-61468000D02*
X167894000Y-61468000D01*
X166624000Y-61468000D02*
X166624000Y-60198000D01*
X166624000Y-66548000D02*
X166624000Y-67818000D01*
X195834000Y-95504000D02*
X195834000Y-90424000D01*
X195834000Y-90424000D02*
X198374000Y-90424000D01*
X198374000Y-90424000D02*
X198374000Y-95504000D01*
X198374000Y-95504000D02*
X195834000Y-95504000D01*
X197104000Y-95504000D02*
X197104000Y-96774000D01*
X197104000Y-90424000D02*
X197104000Y-89154000D01*
X190500000Y-93980000D02*
X185420000Y-93980000D01*
X185420000Y-93980000D02*
X185420000Y-91440000D01*
X185420000Y-91440000D02*
X190500000Y-91440000D01*
X190500000Y-91440000D02*
X190500000Y-93980000D01*
X190500000Y-92710000D02*
X191770000Y-92710000D01*
X185420000Y-92710000D02*
X184150000Y-92710000D01*
X204724000Y-81534000D02*
X204724000Y-76454000D01*
X204724000Y-76454000D02*
X207264000Y-76454000D01*
X207264000Y-76454000D02*
X207264000Y-81534000D01*
X207264000Y-81534000D02*
X204724000Y-81534000D01*
X205994000Y-81534000D02*
X205994000Y-82804000D01*
X205994000Y-76454000D02*
X205994000Y-75184000D01*
X208788000Y-81534000D02*
X208788000Y-76454000D01*
X208788000Y-76454000D02*
X211328000Y-76454000D01*
X211328000Y-76454000D02*
X211328000Y-81534000D01*
X211328000Y-81534000D02*
X208788000Y-81534000D01*
X210058000Y-81534000D02*
X210058000Y-82804000D01*
X210058000Y-76454000D02*
X210058000Y-75184000D01*
X184658000Y-62992000D02*
X189738000Y-62992000D01*
X189738000Y-62992000D02*
X189738000Y-65532000D01*
X189738000Y-65532000D02*
X184658000Y-65532000D01*
X184658000Y-65532000D02*
X184658000Y-62992000D01*
X184658000Y-64262000D02*
X183388000Y-64262000D01*
X189738000Y-64262000D02*
X191008000Y-64262000D01*
X184658000Y-58420000D02*
X189738000Y-58420000D01*
X189738000Y-58420000D02*
X189738000Y-60960000D01*
X189738000Y-60960000D02*
X184658000Y-60960000D01*
X184658000Y-60960000D02*
X184658000Y-58420000D01*
X184658000Y-59690000D02*
X183388000Y-59690000D01*
X189738000Y-59690000D02*
X191008000Y-59690000D01*
X156972000Y-83566000D02*
G75*
G03X156972000Y-83566000I-2540000J0D01*
G01*
X150622000Y-79756000D02*
X158242000Y-79756000D01*
X158242000Y-79756000D02*
X158242000Y-87376000D01*
X158242000Y-87376000D02*
X150622000Y-87376000D01*
X150622000Y-79756000D02*
X150622000Y-87376000D01*
X156972000Y-75184000D02*
G75*
G03X156972000Y-75184000I-2540000J0D01*
G01*
X150622000Y-71374000D02*
X158242000Y-71374000D01*
X158242000Y-71374000D02*
X158242000Y-78994000D01*
X158242000Y-78994000D02*
X150622000Y-78994000D01*
X150622000Y-71374000D02*
X150622000Y-78994000D01*
X156972000Y-66548000D02*
G75*
G03X156972000Y-66548000I-2540000J0D01*
G01*
X150622000Y-62738000D02*
X158242000Y-62738000D01*
X158242000Y-62738000D02*
X158242000Y-70358000D01*
X158242000Y-70358000D02*
X150622000Y-70358000D01*
X150622000Y-62738000D02*
X150622000Y-70358000D01*
X157226000Y-57404000D02*
G75*
G03X157226000Y-57404000I-2540000J0D01*
G01*
X150876000Y-53594000D02*
X158496000Y-53594000D01*
X158496000Y-53594000D02*
X158496000Y-61214000D01*
X158496000Y-61214000D02*
X150876000Y-61214000D01*
X150876000Y-53594000D02*
X150876000Y-61214000D01*
X156972000Y-99314000D02*
G75*
G03X156972000Y-99314000I-2540000J0D01*
G01*
X150622000Y-95504000D02*
X158242000Y-95504000D01*
X158242000Y-95504000D02*
X158242000Y-103124000D01*
X158242000Y-103124000D02*
X150622000Y-103124000D01*
X150622000Y-95504000D02*
X150622000Y-103124000D01*
X201410000Y-70462000D02*
X201410000Y-83462000D01*
X201410000Y-83462000D02*
X174510000Y-83462000D01*
X174510000Y-83462000D02*
X174510000Y-70462000D01*
X174510000Y-70462000D02*
X201410000Y-70462000D01*
D12*
X214630000Y-64770000D02*
X214630000Y-53340000D01*
X214630000Y-53340000D02*
X213360000Y-52070000D01*
X213360000Y-52070000D02*
X148590000Y-52070000D01*
X214630000Y-105410000D02*
X148590000Y-105410000D01*
X148590000Y-105410000D02*
X148590000Y-52070000D01*
X214630000Y-64770000D02*
X217170000Y-67310000D01*
X217170000Y-67310000D02*
X217170000Y-100330000D01*
X217170000Y-100330000D02*
X214630000Y-102870000D01*
X214630000Y-102870000D02*
X214630000Y-105410000D01*
D11*
X203815334Y-95567143D02*
X203767715Y-95614762D01*
X203624858Y-95662381D01*
X203529620Y-95662381D01*
X203386762Y-95614762D01*
X203291524Y-95519524D01*
X203243905Y-95424286D01*
X203196286Y-95233810D01*
X203196286Y-95090952D01*
X203243905Y-94900476D01*
X203291524Y-94805238D01*
X203386762Y-94710000D01*
X203529620Y-94662381D01*
X203624858Y-94662381D01*
X203767715Y-94710000D01*
X203815334Y-94757619D01*
X204767715Y-95662381D02*
X204196286Y-95662381D01*
X204482000Y-95662381D02*
X204482000Y-94662381D01*
X204386762Y-94805238D01*
X204291524Y-94900476D01*
X204196286Y-94948095D01*
X176045905Y-97226381D02*
X176045905Y-96226381D01*
X176284000Y-96226381D01*
X176426858Y-96274000D01*
X176522096Y-96369238D01*
X176569715Y-96464476D01*
X176617334Y-96654952D01*
X176617334Y-96797810D01*
X176569715Y-96988286D01*
X176522096Y-97083524D01*
X176426858Y-97178762D01*
X176284000Y-97226381D01*
X176045905Y-97226381D01*
X177569715Y-97226381D02*
X176998286Y-97226381D01*
X177284000Y-97226381D02*
X177284000Y-96226381D01*
X177188762Y-96369238D01*
X177093524Y-96464476D01*
X176998286Y-96512095D01*
X173093095Y-95067381D02*
X173093095Y-94067381D01*
X173664524Y-95067381D02*
X173235952Y-94495952D01*
X173664524Y-94067381D02*
X173093095Y-94638810D01*
X206577619Y-61563238D02*
X206530000Y-61658476D01*
X206434762Y-61753714D01*
X206291905Y-61896571D01*
X206244286Y-61991810D01*
X206244286Y-62087048D01*
X206482381Y-62039429D02*
X206434762Y-62134667D01*
X206339524Y-62229905D01*
X206149048Y-62277524D01*
X205815714Y-62277524D01*
X205625238Y-62229905D01*
X205530000Y-62134667D01*
X205482381Y-62039429D01*
X205482381Y-61848952D01*
X205530000Y-61753714D01*
X205625238Y-61658476D01*
X205815714Y-61610857D01*
X206149048Y-61610857D01*
X206339524Y-61658476D01*
X206434762Y-61753714D01*
X206482381Y-61848952D01*
X206482381Y-62039429D01*
X206482381Y-60658476D02*
X206482381Y-61229905D01*
X206482381Y-60944191D02*
X205482381Y-60944191D01*
X205625238Y-61039429D01*
X205720476Y-61134667D01*
X205768095Y-61229905D01*
X197433619Y-61817238D02*
X197386000Y-61912476D01*
X197290762Y-62007714D01*
X197147905Y-62150571D01*
X197100286Y-62245810D01*
X197100286Y-62341048D01*
X197338381Y-62293429D02*
X197290762Y-62388667D01*
X197195524Y-62483905D01*
X197005048Y-62531524D01*
X196671714Y-62531524D01*
X196481238Y-62483905D01*
X196386000Y-62388667D01*
X196338381Y-62293429D01*
X196338381Y-62102952D01*
X196386000Y-62007714D01*
X196481238Y-61912476D01*
X196671714Y-61864857D01*
X197005048Y-61864857D01*
X197195524Y-61912476D01*
X197290762Y-62007714D01*
X197338381Y-62102952D01*
X197338381Y-62293429D01*
X196433619Y-61483905D02*
X196386000Y-61436286D01*
X196338381Y-61341048D01*
X196338381Y-61102952D01*
X196386000Y-61007714D01*
X196433619Y-60960095D01*
X196528857Y-60912476D01*
X196624095Y-60912476D01*
X196766952Y-60960095D01*
X197338381Y-61531524D01*
X197338381Y-60912476D01*
X160472381Y-80938666D02*
X159996190Y-81272000D01*
X160472381Y-81510095D02*
X159472381Y-81510095D01*
X159472381Y-81129142D01*
X159520000Y-81033904D01*
X159567619Y-80986285D01*
X159662857Y-80938666D01*
X159805714Y-80938666D01*
X159900952Y-80986285D01*
X159948571Y-81033904D01*
X159996190Y-81129142D01*
X159996190Y-81510095D01*
X160472381Y-79986285D02*
X160472381Y-80557714D01*
X160472381Y-80272000D02*
X159472381Y-80272000D01*
X159615238Y-80367238D01*
X159710476Y-80462476D01*
X159758095Y-80557714D01*
X165044381Y-80938666D02*
X164568190Y-81272000D01*
X165044381Y-81510095D02*
X164044381Y-81510095D01*
X164044381Y-81129142D01*
X164092000Y-81033904D01*
X164139619Y-80986285D01*
X164234857Y-80938666D01*
X164377714Y-80938666D01*
X164472952Y-80986285D01*
X164520571Y-81033904D01*
X164568190Y-81129142D01*
X164568190Y-81510095D01*
X164139619Y-80557714D02*
X164092000Y-80510095D01*
X164044381Y-80414857D01*
X164044381Y-80176761D01*
X164092000Y-80081523D01*
X164139619Y-80033904D01*
X164234857Y-79986285D01*
X164330095Y-79986285D01*
X164472952Y-80033904D01*
X165044381Y-80605333D01*
X165044381Y-79986285D01*
X160472381Y-64174666D02*
X159996190Y-64508000D01*
X160472381Y-64746095D02*
X159472381Y-64746095D01*
X159472381Y-64365142D01*
X159520000Y-64269904D01*
X159567619Y-64222285D01*
X159662857Y-64174666D01*
X159805714Y-64174666D01*
X159900952Y-64222285D01*
X159948571Y-64269904D01*
X159996190Y-64365142D01*
X159996190Y-64746095D01*
X159472381Y-63841333D02*
X159472381Y-63222285D01*
X159853333Y-63555619D01*
X159853333Y-63412761D01*
X159900952Y-63317523D01*
X159948571Y-63269904D01*
X160043810Y-63222285D01*
X160281905Y-63222285D01*
X160377143Y-63269904D01*
X160424762Y-63317523D01*
X160472381Y-63412761D01*
X160472381Y-63698476D01*
X160424762Y-63793714D01*
X160377143Y-63841333D01*
X165044381Y-64174666D02*
X164568190Y-64508000D01*
X165044381Y-64746095D02*
X164044381Y-64746095D01*
X164044381Y-64365142D01*
X164092000Y-64269904D01*
X164139619Y-64222285D01*
X164234857Y-64174666D01*
X164377714Y-64174666D01*
X164472952Y-64222285D01*
X164520571Y-64269904D01*
X164568190Y-64365142D01*
X164568190Y-64746095D01*
X164377714Y-63317523D02*
X165044381Y-63317523D01*
X163996762Y-63555619D02*
X164711048Y-63793714D01*
X164711048Y-63174666D01*
X195524381Y-93130666D02*
X195048190Y-93464000D01*
X195524381Y-93702095D02*
X194524381Y-93702095D01*
X194524381Y-93321142D01*
X194572000Y-93225904D01*
X194619619Y-93178285D01*
X194714857Y-93130666D01*
X194857714Y-93130666D01*
X194952952Y-93178285D01*
X195000571Y-93225904D01*
X195048190Y-93321142D01*
X195048190Y-93702095D01*
X194524381Y-92225904D02*
X194524381Y-92702095D01*
X195000571Y-92749714D01*
X194952952Y-92702095D01*
X194905333Y-92606857D01*
X194905333Y-92368761D01*
X194952952Y-92273523D01*
X195000571Y-92225904D01*
X195095810Y-92178285D01*
X195333905Y-92178285D01*
X195429143Y-92225904D01*
X195476762Y-92273523D01*
X195524381Y-92368761D01*
X195524381Y-92606857D01*
X195476762Y-92702095D01*
X195429143Y-92749714D01*
X187793334Y-91130381D02*
X187460000Y-90654190D01*
X187221905Y-91130381D02*
X187221905Y-90130381D01*
X187602858Y-90130381D01*
X187698096Y-90178000D01*
X187745715Y-90225619D01*
X187793334Y-90320857D01*
X187793334Y-90463714D01*
X187745715Y-90558952D01*
X187698096Y-90606571D01*
X187602858Y-90654190D01*
X187221905Y-90654190D01*
X188650477Y-90130381D02*
X188460000Y-90130381D01*
X188364762Y-90178000D01*
X188317143Y-90225619D01*
X188221905Y-90368476D01*
X188174286Y-90558952D01*
X188174286Y-90939905D01*
X188221905Y-91035143D01*
X188269524Y-91082762D01*
X188364762Y-91130381D01*
X188555239Y-91130381D01*
X188650477Y-91082762D01*
X188698096Y-91035143D01*
X188745715Y-90939905D01*
X188745715Y-90701810D01*
X188698096Y-90606571D01*
X188650477Y-90558952D01*
X188555239Y-90511333D01*
X188364762Y-90511333D01*
X188269524Y-90558952D01*
X188221905Y-90606571D01*
X188174286Y-90701810D01*
X204414381Y-78906666D02*
X203938190Y-79240000D01*
X204414381Y-79478095D02*
X203414381Y-79478095D01*
X203414381Y-79097142D01*
X203462000Y-79001904D01*
X203509619Y-78954285D01*
X203604857Y-78906666D01*
X203747714Y-78906666D01*
X203842952Y-78954285D01*
X203890571Y-79001904D01*
X203938190Y-79097142D01*
X203938190Y-79478095D01*
X203414381Y-78573333D02*
X203414381Y-77906666D01*
X204414381Y-78335238D01*
X208478381Y-78652666D02*
X208002190Y-78986000D01*
X208478381Y-79224095D02*
X207478381Y-79224095D01*
X207478381Y-78843142D01*
X207526000Y-78747904D01*
X207573619Y-78700285D01*
X207668857Y-78652666D01*
X207811714Y-78652666D01*
X207906952Y-78700285D01*
X207954571Y-78747904D01*
X208002190Y-78843142D01*
X208002190Y-79224095D01*
X207906952Y-78081238D02*
X207859333Y-78176476D01*
X207811714Y-78224095D01*
X207716476Y-78271714D01*
X207668857Y-78271714D01*
X207573619Y-78224095D01*
X207526000Y-78176476D01*
X207478381Y-78081238D01*
X207478381Y-77890761D01*
X207526000Y-77795523D01*
X207573619Y-77747904D01*
X207668857Y-77700285D01*
X207716476Y-77700285D01*
X207811714Y-77747904D01*
X207859333Y-77795523D01*
X207906952Y-77890761D01*
X207906952Y-78081238D01*
X207954571Y-78176476D01*
X208002190Y-78224095D01*
X208097429Y-78271714D01*
X208287905Y-78271714D01*
X208383143Y-78224095D01*
X208430762Y-78176476D01*
X208478381Y-78081238D01*
X208478381Y-77890761D01*
X208430762Y-77795523D01*
X208383143Y-77747904D01*
X208287905Y-77700285D01*
X208097429Y-77700285D01*
X208002190Y-77747904D01*
X207954571Y-77795523D01*
X207906952Y-77890761D01*
X187280254Y-61214261D02*
X186946920Y-60738070D01*
X186708825Y-61214261D02*
X186708825Y-60214261D01*
X187089778Y-60214261D01*
X187185016Y-60261880D01*
X187232635Y-60309499D01*
X187280254Y-60404737D01*
X187280254Y-60547594D01*
X187232635Y-60642832D01*
X187185016Y-60690451D01*
X187089778Y-60738070D01*
X186708825Y-60738070D01*
X187756444Y-61214261D02*
X187946920Y-61214261D01*
X188042159Y-61166642D01*
X188089778Y-61119023D01*
X188185016Y-60976166D01*
X188232635Y-60785690D01*
X188232635Y-60404737D01*
X188185016Y-60309499D01*
X188137397Y-60261880D01*
X188042159Y-60214261D01*
X187851682Y-60214261D01*
X187756444Y-60261880D01*
X187708825Y-60309499D01*
X187661206Y-60404737D01*
X187661206Y-60642832D01*
X187708825Y-60738070D01*
X187756444Y-60785690D01*
X187851682Y-60833309D01*
X188042159Y-60833309D01*
X188137397Y-60785690D01*
X188185016Y-60738070D01*
X188232635Y-60642832D01*
X186804063Y-56642261D02*
X186470729Y-56166070D01*
X186232634Y-56642261D02*
X186232634Y-55642261D01*
X186613587Y-55642261D01*
X186708825Y-55689880D01*
X186756444Y-55737499D01*
X186804063Y-55832737D01*
X186804063Y-55975594D01*
X186756444Y-56070832D01*
X186708825Y-56118451D01*
X186613587Y-56166070D01*
X186232634Y-56166070D01*
X187756444Y-56642261D02*
X187185015Y-56642261D01*
X187470729Y-56642261D02*
X187470729Y-55642261D01*
X187375491Y-55785118D01*
X187280253Y-55880356D01*
X187185015Y-55927975D01*
X188375491Y-55642261D02*
X188470730Y-55642261D01*
X188565968Y-55689880D01*
X188613587Y-55737499D01*
X188661206Y-55832737D01*
X188708825Y-56023213D01*
X188708825Y-56261309D01*
X188661206Y-56451785D01*
X188613587Y-56547023D01*
X188565968Y-56594642D01*
X188470730Y-56642261D01*
X188375491Y-56642261D01*
X188280253Y-56594642D01*
X188232634Y-56547023D01*
X188185015Y-56451785D01*
X188137396Y-56261309D01*
X188137396Y-56023213D01*
X188185015Y-55832737D01*
X188232634Y-55737499D01*
X188280253Y-55689880D01*
X188375491Y-55642261D01*
X153098667Y-83208762D02*
X153241524Y-83256381D01*
X153479620Y-83256381D01*
X153574858Y-83208762D01*
X153622477Y-83161143D01*
X153670096Y-83065905D01*
X153670096Y-82970667D01*
X153622477Y-82875429D01*
X153574858Y-82827810D01*
X153479620Y-82780190D01*
X153289143Y-82732571D01*
X153193905Y-82684952D01*
X153146286Y-82637333D01*
X153098667Y-82542095D01*
X153098667Y-82446857D01*
X153146286Y-82351619D01*
X153193905Y-82304000D01*
X153289143Y-82256381D01*
X153527239Y-82256381D01*
X153670096Y-82304000D01*
X154003429Y-82256381D02*
X154241524Y-83256381D01*
X154432001Y-82542095D01*
X154622477Y-83256381D01*
X154860572Y-82256381D01*
X155765334Y-83256381D02*
X155193905Y-83256381D01*
X155479619Y-83256381D02*
X155479619Y-82256381D01*
X155384381Y-82399238D01*
X155289143Y-82494476D01*
X155193905Y-82542095D01*
X153098667Y-74826762D02*
X153241524Y-74874381D01*
X153479620Y-74874381D01*
X153574858Y-74826762D01*
X153622477Y-74779143D01*
X153670096Y-74683905D01*
X153670096Y-74588667D01*
X153622477Y-74493429D01*
X153574858Y-74445810D01*
X153479620Y-74398190D01*
X153289143Y-74350571D01*
X153193905Y-74302952D01*
X153146286Y-74255333D01*
X153098667Y-74160095D01*
X153098667Y-74064857D01*
X153146286Y-73969619D01*
X153193905Y-73922000D01*
X153289143Y-73874381D01*
X153527239Y-73874381D01*
X153670096Y-73922000D01*
X154003429Y-73874381D02*
X154241524Y-74874381D01*
X154432001Y-74160095D01*
X154622477Y-74874381D01*
X154860572Y-73874381D01*
X155193905Y-73969619D02*
X155241524Y-73922000D01*
X155336762Y-73874381D01*
X155574858Y-73874381D01*
X155670096Y-73922000D01*
X155717715Y-73969619D01*
X155765334Y-74064857D01*
X155765334Y-74160095D01*
X155717715Y-74302952D01*
X155146286Y-74874381D01*
X155765334Y-74874381D01*
X153098667Y-66190762D02*
X153241524Y-66238381D01*
X153479620Y-66238381D01*
X153574858Y-66190762D01*
X153622477Y-66143143D01*
X153670096Y-66047905D01*
X153670096Y-65952667D01*
X153622477Y-65857429D01*
X153574858Y-65809810D01*
X153479620Y-65762190D01*
X153289143Y-65714571D01*
X153193905Y-65666952D01*
X153146286Y-65619333D01*
X153098667Y-65524095D01*
X153098667Y-65428857D01*
X153146286Y-65333619D01*
X153193905Y-65286000D01*
X153289143Y-65238381D01*
X153527239Y-65238381D01*
X153670096Y-65286000D01*
X154003429Y-65238381D02*
X154241524Y-66238381D01*
X154432001Y-65524095D01*
X154622477Y-66238381D01*
X154860572Y-65238381D01*
X155146286Y-65238381D02*
X155765334Y-65238381D01*
X155432000Y-65619333D01*
X155574858Y-65619333D01*
X155670096Y-65666952D01*
X155717715Y-65714571D01*
X155765334Y-65809810D01*
X155765334Y-66047905D01*
X155717715Y-66143143D01*
X155670096Y-66190762D01*
X155574858Y-66238381D01*
X155289143Y-66238381D01*
X155193905Y-66190762D01*
X155146286Y-66143143D01*
X153352667Y-57046762D02*
X153495524Y-57094381D01*
X153733620Y-57094381D01*
X153828858Y-57046762D01*
X153876477Y-56999143D01*
X153924096Y-56903905D01*
X153924096Y-56808667D01*
X153876477Y-56713429D01*
X153828858Y-56665810D01*
X153733620Y-56618190D01*
X153543143Y-56570571D01*
X153447905Y-56522952D01*
X153400286Y-56475333D01*
X153352667Y-56380095D01*
X153352667Y-56284857D01*
X153400286Y-56189619D01*
X153447905Y-56142000D01*
X153543143Y-56094381D01*
X153781239Y-56094381D01*
X153924096Y-56142000D01*
X154257429Y-56094381D02*
X154495524Y-57094381D01*
X154686001Y-56380095D01*
X154876477Y-57094381D01*
X155114572Y-56094381D01*
X155924096Y-56427714D02*
X155924096Y-57094381D01*
X155686000Y-56046762D02*
X155447905Y-56761048D01*
X156066953Y-56761048D01*
X153098667Y-98956762D02*
X153241524Y-99004381D01*
X153479620Y-99004381D01*
X153574858Y-98956762D01*
X153622477Y-98909143D01*
X153670096Y-98813905D01*
X153670096Y-98718667D01*
X153622477Y-98623429D01*
X153574858Y-98575810D01*
X153479620Y-98528190D01*
X153289143Y-98480571D01*
X153193905Y-98432952D01*
X153146286Y-98385333D01*
X153098667Y-98290095D01*
X153098667Y-98194857D01*
X153146286Y-98099619D01*
X153193905Y-98052000D01*
X153289143Y-98004381D01*
X153527239Y-98004381D01*
X153670096Y-98052000D01*
X154003429Y-98004381D02*
X154241524Y-99004381D01*
X154432001Y-98290095D01*
X154622477Y-99004381D01*
X154860572Y-98004381D01*
X155717715Y-98004381D02*
X155241524Y-98004381D01*
X155193905Y-98480571D01*
X155241524Y-98432952D01*
X155336762Y-98385333D01*
X155574858Y-98385333D01*
X155670096Y-98432952D01*
X155717715Y-98480571D01*
X155765334Y-98575810D01*
X155765334Y-98813905D01*
X155717715Y-98909143D01*
X155670096Y-98956762D01*
X155574858Y-99004381D01*
X155336762Y-99004381D01*
X155241524Y-98956762D01*
X155193905Y-98909143D01*
X172102381Y-77693905D02*
X172911905Y-77693905D01*
X173007143Y-77646286D01*
X173054762Y-77598667D01*
X173102381Y-77503429D01*
X173102381Y-77312952D01*
X173054762Y-77217714D01*
X173007143Y-77170095D01*
X172911905Y-77122476D01*
X172102381Y-77122476D01*
X173102381Y-76122476D02*
X173102381Y-76693905D01*
X173102381Y-76408191D02*
X172102381Y-76408191D01*
X172245238Y-76503429D01*
X172340476Y-76598667D01*
X172388095Y-76693905D01*
D13*
X168039143Y-102253143D02*
X168256857Y-102325714D01*
X168329429Y-102398286D01*
X168402000Y-102543429D01*
X168402000Y-102761143D01*
X168329429Y-102906286D01*
X168256857Y-102978857D01*
X168111715Y-103051429D01*
X167531143Y-103051429D01*
X167531143Y-101527429D01*
X168039143Y-101527429D01*
X168184286Y-101600000D01*
X168256857Y-101672571D01*
X168329429Y-101817714D01*
X168329429Y-101962857D01*
X168256857Y-102108000D01*
X168184286Y-102180571D01*
X168039143Y-102253143D01*
X167531143Y-102253143D01*
X168837429Y-101527429D02*
X169708286Y-101527429D01*
X169272857Y-103051429D02*
X169272857Y-101527429D01*
X170143715Y-102978857D02*
X170361429Y-103051429D01*
X170724286Y-103051429D01*
X170869429Y-102978857D01*
X170942000Y-102906286D01*
X171014572Y-102761143D01*
X171014572Y-102616000D01*
X170942000Y-102470857D01*
X170869429Y-102398286D01*
X170724286Y-102325714D01*
X170434000Y-102253143D01*
X170288858Y-102180571D01*
X170216286Y-102108000D01*
X170143715Y-101962857D01*
X170143715Y-101817714D01*
X170216286Y-101672571D01*
X170288858Y-101600000D01*
X170434000Y-101527429D01*
X170796858Y-101527429D01*
X171014572Y-101600000D01*
X171667715Y-103051429D02*
X171667715Y-101527429D01*
X171667715Y-102253143D02*
X172538572Y-102253143D01*
X172538572Y-103051429D02*
X172538572Y-101527429D01*
X173264286Y-103051429D02*
X173264286Y-101527429D01*
X173990000Y-102253143D02*
X174498000Y-102253143D01*
X174715714Y-103051429D02*
X173990000Y-103051429D01*
X173990000Y-101527429D01*
X174715714Y-101527429D01*
X176094571Y-103051429D02*
X175368857Y-103051429D01*
X175368857Y-101527429D01*
X176602571Y-103051429D02*
X176602571Y-101527429D01*
X176965428Y-101527429D01*
X177183143Y-101600000D01*
X177328285Y-101745143D01*
X177400857Y-101890286D01*
X177473428Y-102180571D01*
X177473428Y-102398286D01*
X177400857Y-102688571D01*
X177328285Y-102833714D01*
X177183143Y-102978857D01*
X176965428Y-103051429D01*
X176602571Y-103051429D01*
M02*
