G04 #@! TF.FileFunction,Soldermask,Top*
%FSLAX46Y46*%
G04 Gerber Fmt 4.6, Leading zero omitted, Abs format (unit mm)*
G04 Created by KiCad (PCBNEW (2015-07-26 BZR 5996)-product) date Thu 30 Jul 2015 12:08:43 AM EDT*
%MOMM*%
G01*
G04 APERTURE LIST*
%ADD10C,0.100000*%
%ADD11R,1.700000X1.700000*%
%ADD12C,1.700000*%
%ADD13R,2.300000X2.400000*%
%ADD14C,2.300000*%
%ADD15R,1.200100X1.200100*%
%ADD16C,2.398980*%
%ADD17C,1.797000*%
%ADD18R,1.400000X1.400000*%
%ADD19O,1.924000X2.940000*%
%ADD20C,4.337000*%
G04 APERTURE END LIST*
D10*
D11*
X205232000Y-92710000D03*
D12*
X202732000Y-92710000D03*
D13*
X175260000Y-92710000D03*
D14*
X177800000Y-92710000D03*
D15*
X209280760Y-62418000D03*
X209280760Y-60518000D03*
X207281780Y-61468000D03*
X200136760Y-62672000D03*
X200136760Y-60772000D03*
X198137780Y-61722000D03*
D16*
X162052000Y-75692000D03*
X162052000Y-85852000D03*
X166624000Y-75692000D03*
X166624000Y-85852000D03*
X162052000Y-58928000D03*
X162052000Y-69088000D03*
X166624000Y-58928000D03*
X166624000Y-69088000D03*
X197104000Y-98044000D03*
X197104000Y-87884000D03*
X193040000Y-92710000D03*
X182880000Y-92710000D03*
X205994000Y-84074000D03*
X205994000Y-73914000D03*
X210058000Y-84074000D03*
X210058000Y-73914000D03*
X182118000Y-64262000D03*
X192278000Y-64262000D03*
X182118000Y-59690000D03*
X192278000Y-59690000D03*
D17*
X158242000Y-81026000D03*
X158242000Y-86106000D03*
X150622000Y-81026000D03*
X150622000Y-86106000D03*
X158242000Y-72644000D03*
X158242000Y-77724000D03*
X150622000Y-72644000D03*
X150622000Y-77724000D03*
X158242000Y-64008000D03*
X158242000Y-69088000D03*
X150622000Y-64008000D03*
X150622000Y-69088000D03*
X158496000Y-54864000D03*
X158496000Y-59944000D03*
X150876000Y-54864000D03*
X150876000Y-59944000D03*
X158242000Y-96774000D03*
X158242000Y-101854000D03*
X150622000Y-96774000D03*
X150622000Y-101854000D03*
D18*
X194300000Y-83462000D03*
X192800000Y-83462000D03*
X191300000Y-83462000D03*
X189800000Y-83462000D03*
X188300000Y-83462000D03*
X186800000Y-83462000D03*
X185300000Y-83462000D03*
X183800000Y-83462000D03*
X182300000Y-83462000D03*
X180800000Y-83462000D03*
X179300000Y-83462000D03*
X177800000Y-83462000D03*
X176300000Y-83462000D03*
X174510000Y-82232000D03*
X174510000Y-80732000D03*
X174510000Y-79232000D03*
X174510000Y-77732000D03*
X174510000Y-76232000D03*
X174510000Y-74732000D03*
X174510000Y-73232000D03*
X174510000Y-71732000D03*
X176310000Y-70462000D03*
X177810000Y-70462000D03*
X179310000Y-70462000D03*
X180810000Y-70462000D03*
X182310000Y-70462000D03*
X183810000Y-70462000D03*
X185310000Y-70462000D03*
X186810000Y-70462000D03*
X188310000Y-70462000D03*
X189810000Y-70462000D03*
X191310000Y-70462000D03*
X192810000Y-70462000D03*
X194310000Y-70462000D03*
D19*
X212090000Y-102870000D03*
X209550000Y-102870000D03*
X207010000Y-102870000D03*
X199390000Y-102870000D03*
X201930000Y-102870000D03*
X204470000Y-102870000D03*
X194310000Y-102870000D03*
X191770000Y-102870000D03*
X189230000Y-102870000D03*
X184150000Y-102870000D03*
X181610000Y-102870000D03*
X212090000Y-54610000D03*
X209550000Y-54610000D03*
X207010000Y-54610000D03*
X204470000Y-54610000D03*
X201930000Y-54610000D03*
X199390000Y-54610000D03*
X196850000Y-54610000D03*
X194310000Y-54610000D03*
X190246000Y-54610000D03*
X187706000Y-54610000D03*
X185166000Y-54610000D03*
X182626000Y-54610000D03*
X180086000Y-54610000D03*
X177546000Y-54610000D03*
X175006000Y-54610000D03*
X172466000Y-54610000D03*
X186690000Y-102870000D03*
D20*
X214630000Y-97790000D03*
X214630000Y-69850000D03*
X163830000Y-54610000D03*
X162560000Y-102870000D03*
M02*
