<?xml version="1.0" standalone="no"?>
 <!DOCTYPE svg PUBLIC "-//W3C//DTD SVG 1.1//EN" 
 "http://www.w3.org/Graphics/SVG/1.1/DTD/svg11.dtd"> 
<svg xmlns="http://www.w3.org/2000/svg" version="1.1" 
    width="29.7002cm" height="21.0007cm" viewBox="0 0 116930 82680 ">
<title>SVG Picture created as $btshield-F_SilkS.svg date 2015/07/30 00:33:52 </title>
  <desc>Picture generated by PCBNEW </desc>
<g style="fill:#000000; fill-opacity:1;stroke:#000000; stroke-opacity:1;
stroke-linecap:round; stroke-linejoin:round; "
 transform="translate(0 0) scale(1 1)">
</g>
<g style="fill:#000000; fill-opacity:0.0; 
stroke:#000000; stroke-width:-0.000393701; stroke-opacity:1; 
stroke-linecap:round; stroke-linejoin:round;">
</g>
<g style="fill:#000000; fill-opacity:0.0; 
stroke:#000000; stroke-width:39.3701; stroke-opacity:1; 
stroke-linecap:round; stroke-linejoin:round;">
</g>
<g style="fill:#000000; fill-opacity:0.0; 
stroke:#000000; stroke-width:59.0551; stroke-opacity:1; 
stroke-linecap:round; stroke-linejoin:round;">
<rect x="69685.9" y="65357.2" width="42519.7" height="12598.4" rx="0" />
</g>
<g style="fill:#000000; fill-opacity:0.0; 
stroke:#000000; stroke-width:39.3701; stroke-opacity:1; 
stroke-linecap:round; stroke-linejoin:round;">
</g>
<g style="fill:#000000; fill-opacity:0.0; 
stroke:#000000; stroke-width:59.0551; stroke-opacity:1; 
stroke-linecap:round; stroke-linejoin:round;">
<rect x="3937.01" y="3937.01" width="109056" height="74806" rx="0" />
</g>
<g style="fill:#000000; fill-opacity:0.0; 
stroke:#000000; stroke-width:39.3701; stroke-opacity:1; 
stroke-linecap:round; stroke-linejoin:round;">
</g>
<g style="fill:#000000; fill-opacity:0.0; 
stroke:#000000; stroke-width:59.0551; stroke-opacity:1; 
stroke-linecap:round; stroke-linejoin:round;">
<rect x="4724.41" y="4724.41" width="107481" height="73231.2" rx="0" />
</g>
<g style="fill:#000000; fill-opacity:0.0; 
stroke:#000000; stroke-width:39.3701; stroke-opacity:1; 
stroke-linecap:round; stroke-linejoin:round;">
</g>
<g style="fill:#000000; fill-opacity:0.0; 
stroke:#000000; stroke-width:59.0551; stroke-opacity:1; 
stroke-linecap:round; stroke-linejoin:round;">
<path d="M23622 4724
L23622 3937
" />
</g>
<g style="fill:#000000; fill-opacity:0.0; 
stroke:#000000; stroke-width:39.3701; stroke-opacity:1; 
stroke-linecap:round; stroke-linejoin:round;">
</g>
<g style="fill:#000000; fill-opacity:0.0; 
stroke:#000000; stroke-width:59.0551; stroke-opacity:1; 
stroke-linecap:round; stroke-linejoin:round;">
<path d="M43307 4724
L43307 3937
" />
</g>
<g style="fill:#000000; fill-opacity:0.0; 
stroke:#000000; stroke-width:39.3701; stroke-opacity:1; 
stroke-linecap:round; stroke-linejoin:round;">
</g>
<g style="fill:#000000; fill-opacity:0.0; 
stroke:#000000; stroke-width:59.0551; stroke-opacity:1; 
stroke-linecap:round; stroke-linejoin:round;">
<path d="M62992 4724
L62992 3937
" />
</g>
<g style="fill:#000000; fill-opacity:0.0; 
stroke:#000000; stroke-width:39.3701; stroke-opacity:1; 
stroke-linecap:round; stroke-linejoin:round;">
</g>
<g style="fill:#000000; fill-opacity:0.0; 
stroke:#000000; stroke-width:59.0551; stroke-opacity:1; 
stroke-linecap:round; stroke-linejoin:round;">
<path d="M82677 4724
L82677 3937
" />
</g>
<g style="fill:#000000; fill-opacity:0.0; 
stroke:#000000; stroke-width:39.3701; stroke-opacity:1; 
stroke-linecap:round; stroke-linejoin:round;">
</g>
<g style="fill:#000000; fill-opacity:0.0; 
stroke:#000000; stroke-width:59.0551; stroke-opacity:1; 
stroke-linecap:round; stroke-linejoin:round;">
<path d="M102362 4724
L102362 3937
" />
</g>
<g style="fill:#000000; fill-opacity:0.0; 
stroke:#000000; stroke-width:39.3701; stroke-opacity:1; 
stroke-linecap:round; stroke-linejoin:round;">
</g>
<g style="fill:#000000; fill-opacity:0.0; 
stroke:#000000; stroke-width:59.0551; stroke-opacity:1; 
stroke-linecap:round; stroke-linejoin:round;">
<path d="M14169 4562
L13877 4562
" />
<path d="M14023 4562
L14023 4050
L13974 4123
L13925 4172
L13877 4196
" />
</g>
<g style="fill:#000000; fill-opacity:0.0; 
stroke:#000000; stroke-width:39.3701; stroke-opacity:1; 
stroke-linecap:round; stroke-linejoin:round;">
</g>
<g style="fill:#000000; fill-opacity:0.0; 
stroke:#000000; stroke-width:59.0551; stroke-opacity:1; 
stroke-linecap:round; stroke-linejoin:round;">
<path d="M33562 4099
L33586 4074
L33635 4050
L33757 4050
L33805 4074
L33830 4099
L33854 4147
L33854 4196
L33830 4269
L33537 4562
L33854 4562
" />
</g>
<g style="fill:#000000; fill-opacity:0.0; 
stroke:#000000; stroke-width:39.3701; stroke-opacity:1; 
stroke-linecap:round; stroke-linejoin:round;">
</g>
<g style="fill:#000000; fill-opacity:0.0; 
stroke:#000000; stroke-width:59.0551; stroke-opacity:1; 
stroke-linecap:round; stroke-linejoin:round;">
<path d="M53222 4050
L53539 4050
L53368 4245
L53442 4245
L53490 4269
L53515 4294
L53539 4342
L53539 4464
L53515 4513
L53490 4537
L53442 4562
L53295 4562
L53247 4537
L53222 4513
" />
</g>
<g style="fill:#000000; fill-opacity:0.0; 
stroke:#000000; stroke-width:39.3701; stroke-opacity:1; 
stroke-linecap:round; stroke-linejoin:round;">
</g>
<g style="fill:#000000; fill-opacity:0.0; 
stroke:#000000; stroke-width:59.0551; stroke-opacity:1; 
stroke-linecap:round; stroke-linejoin:round;">
<path d="M73175 4221
L73175 4562
" />
<path d="M73053 4026
L72932 4391
L73248 4391
" />
</g>
<g style="fill:#000000; fill-opacity:0.0; 
stroke:#000000; stroke-width:39.3701; stroke-opacity:1; 
stroke-linecap:round; stroke-linejoin:round;">
</g>
<g style="fill:#000000; fill-opacity:0.0; 
stroke:#000000; stroke-width:59.0551; stroke-opacity:1; 
stroke-linecap:round; stroke-linejoin:round;">
<path d="M92885 4050
L92641 4050
L92617 4294
L92641 4269
L92690 4245
L92812 4245
L92860 4269
L92885 4294
L92909 4342
L92909 4464
L92885 4513
L92860 4537
L92812 4562
L92690 4562
L92641 4537
L92617 4513
" />
</g>
<g style="fill:#000000; fill-opacity:0.0; 
stroke:#000000; stroke-width:39.3701; stroke-opacity:1; 
stroke-linecap:round; stroke-linejoin:round;">
</g>
<g style="fill:#000000; fill-opacity:0.0; 
stroke:#000000; stroke-width:59.0551; stroke-opacity:1; 
stroke-linecap:round; stroke-linejoin:round;">
<path d="M112545 4050
L112448 4050
L112399 4074
L112375 4099
L112326 4172
L112302 4269
L112302 4464
L112326 4513
L112350 4537
L112399 4562
L112497 4562
L112545 4537
L112570 4513
L112594 4464
L112594 4342
L112570 4294
L112545 4269
L112497 4245
L112399 4245
L112350 4269
L112326 4294
L112302 4342
" />
</g>
<g style="fill:#000000; fill-opacity:0.0; 
stroke:#000000; stroke-width:39.3701; stroke-opacity:1; 
stroke-linecap:round; stroke-linejoin:round;">
</g>
<g style="fill:#000000; fill-opacity:0.0; 
stroke:#000000; stroke-width:59.0551; stroke-opacity:1; 
stroke-linecap:round; stroke-linejoin:round;">
<path d="M23622 77955
L23622 78742
" />
</g>
<g style="fill:#000000; fill-opacity:0.0; 
stroke:#000000; stroke-width:39.3701; stroke-opacity:1; 
stroke-linecap:round; stroke-linejoin:round;">
</g>
<g style="fill:#000000; fill-opacity:0.0; 
stroke:#000000; stroke-width:59.0551; stroke-opacity:1; 
stroke-linecap:round; stroke-linejoin:round;">
<path d="M43307 77955
L43307 78742
" />
</g>
<g style="fill:#000000; fill-opacity:0.0; 
stroke:#000000; stroke-width:39.3701; stroke-opacity:1; 
stroke-linecap:round; stroke-linejoin:round;">
</g>
<g style="fill:#000000; fill-opacity:0.0; 
stroke:#000000; stroke-width:59.0551; stroke-opacity:1; 
stroke-linecap:round; stroke-linejoin:round;">
<path d="M62992 77955
L62992 78742
" />
</g>
<g style="fill:#000000; fill-opacity:0.0; 
stroke:#000000; stroke-width:39.3701; stroke-opacity:1; 
stroke-linecap:round; stroke-linejoin:round;">
</g>
<g style="fill:#000000; fill-opacity:0.0; 
stroke:#000000; stroke-width:59.0551; stroke-opacity:1; 
stroke-linecap:round; stroke-linejoin:round;">
<path d="M82677 77955
L82677 78742
" />
</g>
<g style="fill:#000000; fill-opacity:0.0; 
stroke:#000000; stroke-width:39.3701; stroke-opacity:1; 
stroke-linecap:round; stroke-linejoin:round;">
</g>
<g style="fill:#000000; fill-opacity:0.0; 
stroke:#000000; stroke-width:59.0551; stroke-opacity:1; 
stroke-linecap:round; stroke-linejoin:round;">
<path d="M102362 77955
L102362 78742
" />
</g>
<g style="fill:#000000; fill-opacity:0.0; 
stroke:#000000; stroke-width:39.3701; stroke-opacity:1; 
stroke-linecap:round; stroke-linejoin:round;">
</g>
<g style="fill:#000000; fill-opacity:0.0; 
stroke:#000000; stroke-width:59.0551; stroke-opacity:1; 
stroke-linecap:round; stroke-linejoin:round;">
<path d="M14169 78580
L13877 78580
" />
<path d="M14023 78580
L14023 78069
L13974 78142
L13925 78190
L13877 78215
" />
</g>
<g style="fill:#000000; fill-opacity:0.0; 
stroke:#000000; stroke-width:39.3701; stroke-opacity:1; 
stroke-linecap:round; stroke-linejoin:round;">
</g>
<g style="fill:#000000; fill-opacity:0.0; 
stroke:#000000; stroke-width:59.0551; stroke-opacity:1; 
stroke-linecap:round; stroke-linejoin:round;">
<path d="M33562 78117
L33586 78093
L33635 78069
L33757 78069
L33805 78093
L33830 78117
L33854 78166
L33854 78215
L33830 78288
L33537 78580
L33854 78580
" />
</g>
<g style="fill:#000000; fill-opacity:0.0; 
stroke:#000000; stroke-width:39.3701; stroke-opacity:1; 
stroke-linecap:round; stroke-linejoin:round;">
</g>
<g style="fill:#000000; fill-opacity:0.0; 
stroke:#000000; stroke-width:59.0551; stroke-opacity:1; 
stroke-linecap:round; stroke-linejoin:round;">
<path d="M53222 78069
L53539 78069
L53368 78263
L53442 78263
L53490 78288
L53515 78312
L53539 78361
L53539 78483
L53515 78532
L53490 78556
L53442 78580
L53295 78580
L53247 78556
L53222 78532
" />
</g>
<g style="fill:#000000; fill-opacity:0.0; 
stroke:#000000; stroke-width:39.3701; stroke-opacity:1; 
stroke-linecap:round; stroke-linejoin:round;">
</g>
<g style="fill:#000000; fill-opacity:0.0; 
stroke:#000000; stroke-width:59.0551; stroke-opacity:1; 
stroke-linecap:round; stroke-linejoin:round;">
<path d="M73175 78239
L73175 78580
" />
<path d="M73053 78044
L72932 78410
L73248 78410
" />
</g>
<g style="fill:#000000; fill-opacity:0.0; 
stroke:#000000; stroke-width:39.3701; stroke-opacity:1; 
stroke-linecap:round; stroke-linejoin:round;">
</g>
<g style="fill:#000000; fill-opacity:0.0; 
stroke:#000000; stroke-width:59.0551; stroke-opacity:1; 
stroke-linecap:round; stroke-linejoin:round;">
<path d="M92885 78069
L92641 78069
L92617 78312
L92641 78288
L92690 78263
L92812 78263
L92860 78288
L92885 78312
L92909 78361
L92909 78483
L92885 78532
L92860 78556
L92812 78580
L92690 78580
L92641 78556
L92617 78532
" />
</g>
<g style="fill:#000000; fill-opacity:0.0; 
stroke:#000000; stroke-width:39.3701; stroke-opacity:1; 
stroke-linecap:round; stroke-linejoin:round;">
</g>
<g style="fill:#000000; fill-opacity:0.0; 
stroke:#000000; stroke-width:59.0551; stroke-opacity:1; 
stroke-linecap:round; stroke-linejoin:round;">
<path d="M112545 78069
L112448 78069
L112399 78093
L112375 78117
L112326 78190
L112302 78288
L112302 78483
L112326 78532
L112350 78556
L112399 78580
L112497 78580
L112545 78556
L112570 78532
L112594 78483
L112594 78361
L112570 78312
L112545 78288
L112497 78263
L112399 78263
L112350 78288
L112326 78312
L112302 78361
" />
</g>
<g style="fill:#000000; fill-opacity:0.0; 
stroke:#000000; stroke-width:39.3701; stroke-opacity:1; 
stroke-linecap:round; stroke-linejoin:round;">
</g>
<g style="fill:#000000; fill-opacity:0.0; 
stroke:#000000; stroke-width:59.0551; stroke-opacity:1; 
stroke-linecap:round; stroke-linejoin:round;">
<path d="M3937 23622
L4724 23622
" />
</g>
<g style="fill:#000000; fill-opacity:0.0; 
stroke:#000000; stroke-width:39.3701; stroke-opacity:1; 
stroke-linecap:round; stroke-linejoin:round;">
</g>
<g style="fill:#000000; fill-opacity:0.0; 
stroke:#000000; stroke-width:59.0551; stroke-opacity:1; 
stroke-linecap:round; stroke-linejoin:round;">
<path d="M3937 43307
L4724 43307
" />
</g>
<g style="fill:#000000; fill-opacity:0.0; 
stroke:#000000; stroke-width:39.3701; stroke-opacity:1; 
stroke-linecap:round; stroke-linejoin:round;">
</g>
<g style="fill:#000000; fill-opacity:0.0; 
stroke:#000000; stroke-width:59.0551; stroke-opacity:1; 
stroke-linecap:round; stroke-linejoin:round;">
<path d="M3937 62992
L4724 62992
" />
</g>
<g style="fill:#000000; fill-opacity:0.0; 
stroke:#000000; stroke-width:39.3701; stroke-opacity:1; 
stroke-linecap:round; stroke-linejoin:round;">
</g>
<g style="fill:#000000; fill-opacity:0.0; 
stroke:#000000; stroke-width:59.0551; stroke-opacity:1; 
stroke-linecap:round; stroke-linejoin:round;">
<path d="M4208 13864
L4452 13864
" />
<path d="M4160 14011
L4330 13499
L4501 14011
" />
</g>
<g style="fill:#000000; fill-opacity:0.0; 
stroke:#000000; stroke-width:39.3701; stroke-opacity:1; 
stroke-linecap:round; stroke-linejoin:round;">
</g>
<g style="fill:#000000; fill-opacity:0.0; 
stroke:#000000; stroke-width:59.0551; stroke-opacity:1; 
stroke-linecap:round; stroke-linejoin:round;">
<path d="M4367 33428
L4440 33452
L4464 33476
L4489 33525
L4489 33598
L4464 33647
L4440 33671
L4391 33696
L4196 33696
L4196 33184
L4367 33184
L4416 33208
L4440 33233
L4464 33281
L4464 33330
L4440 33379
L4416 33403
L4367 33428
L4196 33428
" />
</g>
<g style="fill:#000000; fill-opacity:0.0; 
stroke:#000000; stroke-width:39.3701; stroke-opacity:1; 
stroke-linecap:round; stroke-linejoin:round;">
</g>
<g style="fill:#000000; fill-opacity:0.0; 
stroke:#000000; stroke-width:59.0551; stroke-opacity:1; 
stroke-linecap:round; stroke-linejoin:round;">
<path d="M4489 53332
L4464 53356
L4391 53381
L4342 53381
L4269 53356
L4221 53308
L4196 53259
L4172 53161
L4172 53088
L4196 52991
L4221 52942
L4269 52893
L4342 52869
L4391 52869
L4464 52893
L4489 52918
" />
</g>
<g style="fill:#000000; fill-opacity:0.0; 
stroke:#000000; stroke-width:39.3701; stroke-opacity:1; 
stroke-linecap:round; stroke-linejoin:round;">
</g>
<g style="fill:#000000; fill-opacity:0.0; 
stroke:#000000; stroke-width:59.0551; stroke-opacity:1; 
stroke-linecap:round; stroke-linejoin:round;">
<path d="M4196 73066
L4196 72554
L4318 72554
L4391 72578
L4440 72627
L4464 72676
L4489 72773
L4489 72846
L4464 72944
L4440 72993
L4391 73041
L4318 73066
L4196 73066
" />
</g>
<g style="fill:#000000; fill-opacity:0.0; 
stroke:#000000; stroke-width:39.3701; stroke-opacity:1; 
stroke-linecap:round; stroke-linejoin:round;">
</g>
<g style="fill:#000000; fill-opacity:0.0; 
stroke:#000000; stroke-width:59.0551; stroke-opacity:1; 
stroke-linecap:round; stroke-linejoin:round;">
<path d="M112992 23622
L112205 23622
" />
</g>
<g style="fill:#000000; fill-opacity:0.0; 
stroke:#000000; stroke-width:39.3701; stroke-opacity:1; 
stroke-linecap:round; stroke-linejoin:round;">
</g>
<g style="fill:#000000; fill-opacity:0.0; 
stroke:#000000; stroke-width:59.0551; stroke-opacity:1; 
stroke-linecap:round; stroke-linejoin:round;">
<path d="M112992 43307
L112205 43307
" />
</g>
<g style="fill:#000000; fill-opacity:0.0; 
stroke:#000000; stroke-width:39.3701; stroke-opacity:1; 
stroke-linecap:round; stroke-linejoin:round;">
</g>
<g style="fill:#000000; fill-opacity:0.0; 
stroke:#000000; stroke-width:59.0551; stroke-opacity:1; 
stroke-linecap:round; stroke-linejoin:round;">
<path d="M112992 62992
L112205 62992
" />
</g>
<g style="fill:#000000; fill-opacity:0.0; 
stroke:#000000; stroke-width:39.3701; stroke-opacity:1; 
stroke-linecap:round; stroke-linejoin:round;">
</g>
<g style="fill:#000000; fill-opacity:0.0; 
stroke:#000000; stroke-width:59.0551; stroke-opacity:1; 
stroke-linecap:round; stroke-linejoin:round;">
<path d="M112477 13864
L112721 13864
" />
<path d="M112428 14011
L112599 13499
L112769 14011
" />
</g>
<g style="fill:#000000; fill-opacity:0.0; 
stroke:#000000; stroke-width:39.3701; stroke-opacity:1; 
stroke-linecap:round; stroke-linejoin:round;">
</g>
<g style="fill:#000000; fill-opacity:0.0; 
stroke:#000000; stroke-width:59.0551; stroke-opacity:1; 
stroke-linecap:round; stroke-linejoin:round;">
<path d="M112635 33428
L112708 33452
L112733 33476
L112757 33525
L112757 33598
L112733 33647
L112708 33671
L112660 33696
L112465 33696
L112465 33184
L112635 33184
L112684 33208
L112708 33233
L112733 33281
L112733 33330
L112708 33379
L112684 33403
L112635 33428
L112465 33428
" />
</g>
<g style="fill:#000000; fill-opacity:0.0; 
stroke:#000000; stroke-width:39.3701; stroke-opacity:1; 
stroke-linecap:round; stroke-linejoin:round;">
</g>
<g style="fill:#000000; fill-opacity:0.0; 
stroke:#000000; stroke-width:59.0551; stroke-opacity:1; 
stroke-linecap:round; stroke-linejoin:round;">
<path d="M112757 53332
L112733 53356
L112660 53381
L112611 53381
L112538 53356
L112489 53308
L112465 53259
L112440 53161
L112440 53088
L112465 52991
L112489 52942
L112538 52893
L112611 52869
L112660 52869
L112733 52893
L112757 52918
" />
</g>
<g style="fill:#000000; fill-opacity:0.0; 
stroke:#000000; stroke-width:39.3701; stroke-opacity:1; 
stroke-linecap:round; stroke-linejoin:round;">
</g>
<g style="fill:#000000; fill-opacity:0.0; 
stroke:#000000; stroke-width:59.0551; stroke-opacity:1; 
stroke-linecap:round; stroke-linejoin:round;">
<path d="M112465 73066
L112465 72554
L112587 72554
L112660 72578
L112708 72627
L112733 72676
L112757 72773
L112757 72846
L112733 72944
L112708 72993
L112660 73041
L112587 73066
L112465 73066
" />
</g>
<g style="fill:#000000; fill-opacity:0.0; 
stroke:#000000; stroke-width:39.3701; stroke-opacity:1; 
stroke-linecap:round; stroke-linejoin:round;">
</g>
<g style="fill:#000000; fill-opacity:0.0; 
stroke:#000000; stroke-width:59.0551; stroke-opacity:1; 
stroke-linecap:round; stroke-linejoin:round;">
<path d="M78881 76293
L78881 75703
L79022 75703
L79106 75731
L79162 75787
L79190 75843
L79219 75956
L79219 76040
L79190 76153
L79162 76209
L79106 76265
L79022 76293
L78881 76293
" />
<path d="M79725 76293
L79725 75984
L79697 75928
L79640 75899
L79528 75899
L79472 75928
" />
<path d="M79725 76265
L79669 76293
L79528 76293
L79472 76265
L79444 76209
L79444 76153
L79472 76096
L79528 76068
L79669 76068
L79725 76040
" />
<path d="M79922 75899
L80147 75899
" />
<path d="M80006 75703
L80006 76209
L80034 76265
L80090 76293
L80147 76293
" />
<path d="M80568 76265
L80512 76293
L80400 76293
L80343 76265
L80315 76209
L80315 75984
L80343 75928
L80400 75899
L80512 75899
L80568 75928
L80597 75984
L80597 76040
L80315 76096
" />
<path d="M80850 76237
L80878 76265
L80850 76293
L80822 76265
L80850 76237
L80850 76293
" />
<path d="M80850 75928
L80878 75956
L80850 75984
L80822 75956
L80850 75928
L80850 75984
" />
</g>
<g style="fill:#000000; fill-opacity:0.0; 
stroke:#000000; stroke-width:39.3701; stroke-opacity:1; 
stroke-linecap:round; stroke-linejoin:round;">
</g>
<g style="fill:#000000; fill-opacity:0.0; 
stroke:#000000; stroke-width:59.0551; stroke-opacity:1; 
stroke-linecap:round; stroke-linejoin:round;">
<path d="M69685 76577
L112205 76577
" />
</g>
<g style="fill:#000000; fill-opacity:0.0; 
stroke:#000000; stroke-width:39.3701; stroke-opacity:1; 
stroke-linecap:round; stroke-linejoin:round;">
</g>
<g style="fill:#000000; fill-opacity:0.0; 
stroke:#000000; stroke-width:59.0551; stroke-opacity:1; 
stroke-linecap:round; stroke-linejoin:round;">
<path d="M70220 77395
L70220 76805
" />
<path d="M70557 77395
L70304 77058
" />
<path d="M70557 76805
L70220 77142
" />
<path d="M70810 77395
L70810 77002
" />
<path d="M70810 76805
L70782 76833
L70810 76861
L70838 76833
L70810 76805
L70810 76861
" />
<path d="M71429 77339
L71401 77367
L71316 77395
L71260 77395
L71176 77367
L71120 77311
L71091 77255
L71063 77142
L71063 77058
L71091 76946
L71120 76889
L71176 76833
L71260 76805
L71316 76805
L71401 76833
L71429 76861
" />
<path d="M71935 77395
L71935 77086
L71907 77030
L71851 77002
L71738 77002
L71682 77030
" />
<path d="M71935 77367
L71879 77395
L71738 77395
L71682 77367
L71654 77311
L71654 77255
L71682 77199
L71738 77171
L71879 77171
L71935 77142
" />
<path d="M72469 77395
L72469 76805
" />
<path d="M72469 77367
L72413 77395
L72301 77395
L72244 77367
L72216 77339
L72188 77283
L72188 77114
L72216 77058
L72244 77030
L72301 77002
L72413 77002
L72469 77030
" />
<path d="M73201 77086
L73397 77086
" />
<path d="M73482 77395
L73201 77395
L73201 76805
L73482 76805
" />
<path d="M73735 77339
L73763 77367
L73735 77395
L73707 77367
L73735 77339
L73735 77395
" />
<path d="M74016 77395
L74016 76805
L74157 76805
L74241 76833
L74297 76889
L74325 76946
L74354 77058
L74354 77142
L74325 77255
L74297 77311
L74241 77367
L74157 77395
L74016 77395
" />
<path d="M74607 77339
L74635 77367
L74607 77395
L74579 77367
L74607 77339
L74607 77395
" />
<path d="M74860 77227
L75141 77227
" />
<path d="M74804 77395
L75000 76805
L75197 77395
" />
<path d="M75394 77339
L75422 77367
L75394 77395
L75366 77367
L75394 77339
L75394 77395
" />
<path d="M76575 77002
L76575 77592
" />
<path d="M76575 77030
L76631 77002
L76744 77002
L76800 77030
L76828 77058
L76856 77114
L76856 77283
L76828 77339
L76800 77367
L76744 77395
L76631 77395
L76575 77367
" />
<path d="M77363 77367
L77306 77395
L77194 77395
L77138 77367
L77109 77339
L77081 77283
L77081 77114
L77109 77058
L77138 77030
L77194 77002
L77306 77002
L77363 77030
" />
<path d="M77616 77395
L77616 76805
" />
<path d="M77616 77030
L77672 77002
L77784 77002
L77841 77030
L77869 77058
L77897 77114
L77897 77283
L77869 77339
L77841 77367
L77784 77395
L77672 77395
L77616 77367
" />
<path d="M78150 77002
L78150 77395
" />
<path d="M78150 77058
L78178 77030
L78234 77002
L78319 77002
L78375 77030
L78403 77086
L78403 77395
" />
<path d="M78909 77367
L78853 77395
L78741 77395
L78684 77367
L78656 77311
L78656 77086
L78684 77030
L78741 77002
L78853 77002
L78909 77030
L78937 77086
L78937 77142
L78656 77199
" />
<path d="M79134 77002
L79247 77395
L79359 77114
L79472 77395
L79584 77002
" />
<path d="M80428 77620
L80400 77592
L80343 77508
L80315 77452
L80287 77367
L80259 77227
L80259 77114
L80287 76974
L80315 76889
L80343 76833
L80400 76749
L80428 76721
" />
<path d="M80625 76861
L80653 76833
L80709 76805
L80850 76805
L80906 76833
L80934 76861
L80962 76917
L80962 76974
L80934 77058
L80597 77395
L80962 77395
" />
<path d="M81328 76805
L81384 76805
L81440 76833
L81468 76861
L81496 76917
L81525 77030
L81525 77171
L81496 77283
L81468 77339
L81440 77367
L81384 77395
L81328 77395
L81271 77367
L81243 77339
L81215 77283
L81187 77171
L81187 77030
L81215 76917
L81243 76861
L81271 76833
L81328 76805
" />
<path d="M82087 77395
L81750 77395
" />
<path d="M81918 77395
L81918 76805
L81862 76889
L81806 76946
L81750 76974
" />
<path d="M82621 76805
L82340 76805
L82312 77086
L82340 77058
L82396 77030
L82537 77030
L82593 77058
L82621 77086
L82649 77142
L82649 77283
L82621 77339
L82593 77367
L82537 77395
L82396 77395
L82340 77367
L82312 77339
" />
<path d="M82903 77171
L83352 77171
" />
<path d="M83746 76805
L83802 76805
L83859 76833
L83887 76861
L83915 76917
L83943 77030
L83943 77171
L83915 77283
L83887 77339
L83859 77367
L83802 77395
L83746 77395
L83690 77367
L83662 77339
L83634 77283
L83606 77171
L83606 77030
L83634 76917
L83662 76861
L83690 76833
L83746 76805
" />
<path d="M84140 76805
L84534 76805
L84280 77395
" />
<path d="M84759 77171
L85208 77171
" />
<path d="M85462 76861
L85490 76833
L85546 76805
L85687 76805
L85743 76833
L85771 76861
L85799 76917
L85799 76974
L85771 77058
L85433 77395
L85799 77395
" />
<path d="M86305 76805
L86193 76805
L86136 76833
L86108 76861
L86052 76946
L86024 77058
L86024 77283
L86052 77339
L86080 77367
L86136 77395
L86249 77395
L86305 77367
L86333 77339
L86361 77283
L86361 77142
L86333 77086
L86305 77058
L86249 77030
L86136 77030
L86080 77058
L86052 77086
L86024 77142
" />
<path d="M87261 77086
L87346 77114
L87374 77142
L87402 77199
L87402 77283
L87374 77339
L87346 77367
L87289 77395
L87064 77395
L87064 76805
L87261 76805
L87318 76833
L87346 76861
L87374 76917
L87374 76974
L87346 77030
L87318 77058
L87261 77086
L87064 77086
" />
<path d="M87599 76805
L87992 76805
L87599 77395
L87992 77395
" />
<path d="M88555 77395
L88358 77114
" />
<path d="M88217 77395
L88217 76805
L88442 76805
L88499 76833
L88527 76861
L88555 76917
L88555 77002
L88527 77058
L88499 77086
L88442 77114
L88217 77114
" />
<path d="M89539 76805
L89258 76805
L89230 77086
L89258 77058
L89314 77030
L89455 77030
L89511 77058
L89539 77086
L89567 77142
L89567 77283
L89539 77339
L89511 77367
L89455 77395
L89314 77395
L89258 77367
L89230 77339
" />
<path d="M89849 77395
L89961 77395
L90017 77367
L90045 77339
L90102 77255
L90130 77142
L90130 76917
L90102 76861
L90073 76833
L90017 76805
L89905 76805
L89849 76833
L89820 76861
L89792 76917
L89792 77058
L89820 77114
L89849 77142
L89905 77171
L90017 77171
L90073 77142
L90102 77114
L90130 77058
" />
<path d="M90411 77395
L90523 77395
L90580 77367
L90608 77339
L90664 77255
L90692 77142
L90692 76917
L90664 76861
L90636 76833
L90580 76805
L90467 76805
L90411 76833
L90383 76861
L90355 76917
L90355 77058
L90383 77114
L90411 77142
L90467 77171
L90580 77171
L90636 77142
L90664 77114
L90692 77058
" />
<path d="M91198 76805
L91086 76805
L91030 76833
L91001 76861
L90945 76946
L90917 77058
L90917 77283
L90945 77339
L90973 77367
L91030 77395
L91142 77395
L91198 77367
L91226 77339
L91255 77283
L91255 77142
L91226 77086
L91198 77058
L91142 77030
L91030 77030
L90973 77058
L90945 77086
L90917 77142
" />
<path d="M91451 77620
L91480 77592
L91536 77508
L91564 77452
L91592 77367
L91620 77227
L91620 77114
L91592 76974
L91564 76889
L91536 76833
L91480 76749
L91451 76721
" />
<path d="M91901 77171
L92351 77171
" />
<path d="M92633 77002
L92633 77592
" />
<path d="M92633 77030
L92689 77002
L92801 77002
L92858 77030
L92886 77058
L92914 77114
L92914 77283
L92886 77339
L92858 77367
L92801 77395
L92689 77395
L92633 77367
" />
<path d="M93167 77395
L93167 77002
" />
<path d="M93167 77114
L93195 77058
L93223 77030
L93279 77002
L93336 77002
" />
<path d="M93617 77395
L93561 77367
L93532 77339
L93504 77283
L93504 77114
L93532 77058
L93561 77030
L93617 77002
L93701 77002
L93757 77030
L93786 77058
L93814 77114
L93814 77283
L93786 77339
L93757 77367
L93701 77395
L93617 77395
" />
<path d="M94320 77395
L94320 76805
" />
<path d="M94320 77367
L94264 77395
L94151 77395
L94095 77367
L94067 77339
L94039 77283
L94039 77114
L94067 77058
L94095 77030
L94151 77002
L94264 77002
L94320 77030
" />
<path d="M94854 77002
L94854 77395
" />
<path d="M94601 77002
L94601 77311
L94629 77367
L94685 77395
L94770 77395
L94826 77367
L94854 77339
" />
<path d="M95388 77367
L95332 77395
L95220 77395
L95163 77367
L95135 77339
L95107 77283
L95107 77114
L95135 77058
L95163 77030
L95220 77002
L95332 77002
L95388 77030
" />
<path d="M95557 77002
L95782 77002
" />
<path d="M95642 76805
L95642 77311
L95670 77367
L95726 77395
L95782 77395
" />
</g>
<g style="fill:#000000; fill-opacity:0.0; 
stroke:#000000; stroke-width:39.3701; stroke-opacity:1; 
stroke-linecap:round; stroke-linejoin:round;">
</g>
<g style="fill:#000000; fill-opacity:0.0; 
stroke:#000000; stroke-width:59.0551; stroke-opacity:1; 
stroke-linecap:round; stroke-linejoin:round;">
<path d="M69685 75396
L112205 75396
" />
</g>
<g style="fill:#000000; fill-opacity:0.0; 
stroke:#000000; stroke-width:39.3701; stroke-opacity:1; 
stroke-linecap:round; stroke-linejoin:round;">
</g>
<g style="fill:#000000; fill-opacity:0.0; 
stroke:#000000; stroke-width:118.11; stroke-opacity:1; 
stroke-linecap:round; stroke-linejoin:round;">
<path d="M104022 76293
L103825 76012
" />
<path d="M103684 76293
L103684 75703
L103909 75703
L103965 75731
L103994 75759
L104022 75815
L104022 75899
L103994 75956
L103965 75984
L103909 76012
L103684 76012
" />
<path d="M104500 76265
L104444 76293
L104331 76293
L104275 76265
L104247 76209
L104247 75984
L104275 75928
L104331 75899
L104444 75899
L104500 75928
L104528 75984
L104528 76040
L104247 76096
" />
<path d="M104725 75899
L104865 76293
L105006 75899
" />
<path d="M105231 76237
L105259 76265
L105231 76293
L105203 76265
L105231 76237
L105231 76293
" />
<path d="M105231 75928
L105259 75956
L105231 75984
L105203 75956
L105231 75928
L105231 75984
" />
</g>
<g style="fill:#000000; fill-opacity:0.0; 
stroke:#000000; stroke-width:39.3701; stroke-opacity:1; 
stroke-linecap:round; stroke-linejoin:round;">
</g>
<g style="fill:#000000; fill-opacity:0.0; 
stroke:#000000; stroke-width:59.0551; stroke-opacity:1; 
stroke-linecap:round; stroke-linejoin:round;">
<path d="M70192 76265
L70276 76293
L70417 76293
L70473 76265
L70501 76237
L70529 76181
L70529 76124
L70501 76068
L70473 76040
L70417 76012
L70304 75984
L70248 75956
L70220 75928
L70192 75871
L70192 75815
L70220 75759
L70248 75731
L70304 75703
L70445 75703
L70529 75731
" />
<path d="M70782 76293
L70782 75899
" />
<path d="M70782 75703
L70754 75731
L70782 75759
L70810 75731
L70782 75703
L70782 75759
" />
<path d="M71007 75899
L71316 75899
L71007 76293
L71316 76293
" />
<path d="M71766 76265
L71710 76293
L71598 76293
L71541 76265
L71513 76209
L71513 75984
L71541 75928
L71598 75899
L71710 75899
L71766 75928
L71795 75984
L71795 76040
L71513 76096
" />
<path d="M72048 76237
L72076 76265
L72048 76293
L72019 76265
L72048 76237
L72048 76293
" />
<path d="M72048 75928
L72076 75956
L72048 75984
L72019 75956
L72048 75928
L72048 75984
" />
<path d="M72751 76124
L73032 76124
" />
<path d="M72694 76293
L72891 75703
L73088 76293
" />
<path d="M73538 75899
L73538 76293
" />
<path d="M73397 75674
L73257 76096
L73622 76096
" />
</g>
<g style="fill:#000000; fill-opacity:0.0; 
stroke:#000000; stroke-width:39.3701; stroke-opacity:1; 
stroke-linecap:round; stroke-linejoin:round;">
</g>
<g style="fill:#000000; fill-opacity:0.0; 
stroke:#000000; stroke-width:59.0551; stroke-opacity:1; 
stroke-linecap:round; stroke-linejoin:round;">
<path d="M103684 77395
L103684 76805
" />
<path d="M104219 77395
L104219 76805
" />
<path d="M104219 77367
L104162 77395
L104050 77395
L103994 77367
L103965 77339
L103937 77283
L103937 77114
L103965 77058
L103994 77030
L104050 77002
L104162 77002
L104219 77030
" />
<path d="M104500 77339
L104528 77367
L104500 77395
L104472 77367
L104500 77339
L104500 77395
" />
<path d="M104500 77030
L104528 77058
L104500 77086
L104472 77058
L104500 77030
L104500 77086
" />
<path d="M105540 77395
L105203 77395
" />
<path d="M105372 77395
L105372 76805
L105315 76889
L105259 76946
L105203 76974
" />
<path d="M106215 76777
L105709 77536
" />
<path d="M106721 77395
L106384 77395
" />
<path d="M106553 77395
L106553 76805
L106496 76889
L106440 76946
L106384 76974
" />
</g>
<g style="fill:#000000; fill-opacity:0.0; 
stroke:#000000; stroke-width:39.3701; stroke-opacity:1; 
stroke-linecap:round; stroke-linejoin:round;">
</g>
<g style="fill:#000000; fill-opacity:0.0; 
stroke:#000000; stroke-width:59.0551; stroke-opacity:1; 
stroke-linecap:round; stroke-linejoin:round;">
<path d="M69685 73821
L112205 73821
" />
</g>
<g style="fill:#000000; fill-opacity:0.0; 
stroke:#000000; stroke-width:39.3701; stroke-opacity:1; 
stroke-linecap:round; stroke-linejoin:round;">
</g>
<g style="fill:#000000; fill-opacity:0.0; 
stroke:#000000; stroke-width:157.48; stroke-opacity:1; 
stroke-linecap:round; stroke-linejoin:round;">
<path d="M70257 74099
L70707 74099
" />
<path d="M70384 74886
L70482 74099
" />
<path d="M70871 74886
L70937 74361
" />
<path d="M70970 74099
L70927 74136
L70960 74174
L71002 74136
L70970 74099
L70960 74174
" />
<path d="M71199 74361
L71499 74361
" />
<path d="M71345 74099
L71260 74774
L71288 74849
L71359 74886
L71434 74886
" />
<path d="M71809 74886
L71738 74849
L71710 74774
L71795 74099
" />
<path d="M72413 74849
L72334 74886
L72184 74886
L72113 74849
L72085 74774
L72123 74474
L72169 74399
L72249 74361
L72399 74361
L72469 74399
L72498 74474
L72488 74549
L72104 74624
" />
<path d="M72793 74811
L72826 74849
L72783 74886
L72751 74849
L72793 74811
L72783 74886
" />
<path d="M72844 74399
L72877 74436
L72835 74474
L72802 74436
L72844 74399
L72835 74474
" />
</g>
<g style="fill:#000000; fill-opacity:0.0; 
stroke:#000000; stroke-width:39.3701; stroke-opacity:1; 
stroke-linecap:round; stroke-linejoin:round;">
</g>
<g style="fill:#000000; fill-opacity:0.0; 
stroke:#000000; stroke-width:59.0551; stroke-opacity:1; 
stroke-linecap:round; stroke-linejoin:round;">
<path d="M70417 73070
L70220 73070
" />
<path d="M70220 73380
L70220 72789
L70501 72789
" />
<path d="M70726 73380
L70726 72986
" />
<path d="M70726 72789
L70698 72817
L70726 72845
L70754 72817
L70726 72789
L70726 72845
" />
<path d="M71091 73380
L71035 73352
L71007 73295
L71007 72789
" />
<path d="M71541 73352
L71485 73380
L71373 73380
L71316 73352
L71288 73295
L71288 73070
L71316 73014
L71373 72986
L71485 72986
L71541 73014
L71570 73070
L71570 73127
L71288 73183
" />
<path d="M71823 73323
L71851 73352
L71823 73380
L71795 73352
L71823 73323
L71823 73380
" />
<path d="M71823 73014
L71851 73042
L71823 73070
L71795 73042
L71823 73014
L71823 73070
" />
<path d="M72526 73352
L72610 73380
L72751 73380
L72807 73352
L72835 73323
L72863 73267
L72863 73211
L72835 73155
L72807 73127
L72751 73099
L72638 73070
L72582 73042
L72554 73014
L72526 72958
L72526 72902
L72554 72845
L72582 72817
L72638 72789
L72779 72789
L72863 72817
" />
<path d="M72694 72705
L72694 73464
" />
<path d="M73116 73380
L73116 72789
" />
<path d="M73116 73014
L73172 72986
L73285 72986
L73341 73014
L73369 73042
L73397 73099
L73397 73267
L73369 73323
L73341 73352
L73285 73380
L73172 73380
L73116 73352
" />
<path d="M73566 72986
L73791 72986
" />
<path d="M73651 72789
L73651 73295
L73679 73352
L73735 73380
L73791 73380
" />
<path d="M73960 73352
L74016 73380
L74129 73380
L74185 73352
L74213 73295
L74213 73267
L74185 73211
L74129 73183
L74044 73183
L73988 73155
L73960 73099
L73960 73070
L73988 73014
L74044 72986
L74129 72986
L74185 73014
" />
<path d="M74466 73380
L74466 72789
" />
<path d="M74719 73380
L74719 73070
L74691 73014
L74635 72986
L74550 72986
L74494 73014
L74466 73042
" />
<path d="M75000 73380
L75000 72986
" />
<path d="M75000 72789
L74972 72817
L75000 72845
L75028 72817
L75000 72789
L75000 72845
" />
<path d="M75507 73352
L75450 73380
L75338 73380
L75282 73352
L75253 73295
L75253 73070
L75282 73014
L75338 72986
L75450 72986
L75507 73014
L75535 73070
L75535 73127
L75253 73183
" />
<path d="M75872 73380
L75816 73352
L75788 73295
L75788 72789
" />
<path d="M76350 73380
L76350 72789
" />
<path d="M76350 73352
L76294 73380
L76181 73380
L76125 73352
L76097 73323
L76069 73267
L76069 73099
L76097 73042
L76125 73014
L76181 72986
L76294 72986
L76350 73014
" />
<path d="M76631 73323
L76660 73352
L76631 73380
L76603 73352
L76631 73323
L76631 73380
" />
<path d="M76913 73380
L76913 72789
" />
<path d="M76969 73155
L77138 73380
" />
<path d="M77138 72986
L76913 73211
" />
<path d="M77391 73380
L77391 72986
" />
<path d="M77391 72789
L77363 72817
L77391 72845
L77419 72817
L77391 72789
L77391 72845
" />
<path d="M77925 73352
L77869 73380
L77756 73380
L77700 73352
L77672 73323
L77644 73267
L77644 73099
L77672 73042
L77700 73014
L77756 72986
L77869 72986
L77925 73014
" />
<path d="M78431 73380
L78431 73070
L78403 73014
L78347 72986
L78234 72986
L78178 73014
" />
<path d="M78431 73352
L78375 73380
L78234 73380
L78178 73352
L78150 73295
L78150 73239
L78178 73183
L78234 73155
L78375 73155
L78431 73127
" />
<path d="M78965 73380
L78965 72789
" />
<path d="M78965 73352
L78909 73380
L78797 73380
L78741 73352
L78712 73323
L78684 73267
L78684 73099
L78712 73042
L78741 73014
L78797 72986
L78909 72986
L78965 73014
" />
<path d="M79106 73436
L79556 73436
" />
<path d="M79697 72986
L79697 73577
" />
<path d="M79697 73014
L79753 72986
L79865 72986
L79922 73014
L79950 73042
L79978 73099
L79978 73267
L79950 73323
L79922 73352
L79865 73380
L79753 73380
L79697 73352
" />
<path d="M80484 73352
L80428 73380
L80315 73380
L80259 73352
L80231 73323
L80203 73267
L80203 73099
L80231 73042
L80259 73014
L80315 72986
L80428 72986
L80484 73014
" />
<path d="M80737 73380
L80737 72789
" />
<path d="M80737 73014
L80793 72986
L80906 72986
L80962 73014
L80990 73042
L81018 73099
L81018 73267
L80990 73323
L80962 73352
L80906 73380
L80793 73380
L80737 73352
" />
</g>
<g style="fill:#000000; fill-opacity:0.0; 
stroke:#000000; stroke-width:39.3701; stroke-opacity:1; 
stroke-linecap:round; stroke-linejoin:round;">
</g>
<g style="fill:#000000; fill-opacity:0.0; 
stroke:#000000; stroke-width:59.0551; stroke-opacity:1; 
stroke-linecap:round; stroke-linejoin:round;">
<path d="M69685 71459
L112205 71459
" />
</g>
<g style="fill:#000000; fill-opacity:0.0; 
stroke:#000000; stroke-width:39.3701; stroke-opacity:1; 
stroke-linecap:round; stroke-linejoin:round;">
</g>
<g style="fill:#000000; fill-opacity:0.0; 
stroke:#000000; stroke-width:59.0551; stroke-opacity:1; 
stroke-linecap:round; stroke-linejoin:round;">
<path d="M70192 72289
L70276 72317
L70417 72317
L70473 72289
L70501 72260
L70529 72204
L70529 72148
L70501 72092
L70473 72064
L70417 72036
L70304 72007
L70248 71979
L70220 71951
L70192 71895
L70192 71839
L70220 71782
L70248 71754
L70304 71726
L70445 71726
L70529 71754
" />
<path d="M70782 72317
L70782 71726
" />
<path d="M71035 72317
L71035 72007
L71007 71951
L70951 71923
L70867 71923
L70810 71951
L70782 71979
" />
<path d="M71541 72289
L71485 72317
L71373 72317
L71316 72289
L71288 72232
L71288 72007
L71316 71951
L71373 71923
L71485 71923
L71541 71951
L71570 72007
L71570 72064
L71288 72120
" />
<path d="M72048 72289
L71991 72317
L71879 72317
L71823 72289
L71795 72232
L71795 72007
L71823 71951
L71879 71923
L71991 71923
L72048 71951
L72076 72007
L72076 72064
L71795 72120
" />
<path d="M72244 71923
L72469 71923
" />
<path d="M72329 71726
L72329 72232
L72357 72289
L72413 72317
L72469 72317
" />
<path d="M72666 72260
L72694 72289
L72666 72317
L72638 72289
L72666 72260
L72666 72317
" />
<path d="M72666 71951
L72694 71979
L72666 72007
L72638 71979
L72666 71951
L72666 72007
" />
</g>
<g style="fill:#000000; fill-opacity:0.0; 
stroke:#000000; stroke-width:39.3701; stroke-opacity:1; 
stroke-linecap:round; stroke-linejoin:round;">
</g>
<g style="fill:#000000; fill-opacity:0.0; 
stroke:#000000; stroke-width:59.0551; stroke-opacity:1; 
stroke-linecap:round; stroke-linejoin:round;">
<path d="M77559 75396
L77559 76577
" />
</g>
<g style="fill:#000000; fill-opacity:0.0; 
stroke:#000000; stroke-width:39.3701; stroke-opacity:1; 
stroke-linecap:round; stroke-linejoin:round;">
</g>
<g style="fill:#000000; fill-opacity:0.0; 
stroke:#000000; stroke-width:59.0551; stroke-opacity:1; 
stroke-linecap:round; stroke-linejoin:round;">
<path d="M102756 75396
L102756 77955
" />
</g>
<g style="fill:#C2C200; fill-opacity:0.0; 
stroke:#C2C200; stroke-width:59.0551; stroke-opacity:1; 
stroke-linecap:round; stroke-linejoin:round;">
<path d="M58500 20500
L85500 20500
" />
<path d="M58500 41500
L58500 20500
" />
<path d="M85500 41500
L58500 41500
" />
<path d="M85500 20500
L85500 41500
" />
<path d="M80242 37624
L80223 37643
L80167 37662
L80129 37662
L80073 37643
L80036 37606
L80017 37568
L79998 37493
L79998 37437
L80017 37362
L80036 37324
L80073 37287
L80129 37268
L80167 37268
L80223 37287
L80242 37306
" />
<path d="M80617 37662
L80392 37662
" />
<path d="M80504 37662
L80504 37268
L80467 37324
L80429 37362
L80392 37381
" />
<path d="M69309 38278
L69309 37884
L69403 37884
L69459 37903
L69496 37940
L69515 37978
L69534 38053
L69534 38109
L69515 38184
L69496 38221
L69459 38259
L69403 38278
L69309 38278
" />
<path d="M69909 38278
L69684 38278
" />
<path d="M69796 38278
L69796 37884
L69759 37940
L69721 37978
L69684 37996
" />
</g>
<g style="fill:#008484; fill-opacity:0.0; 
stroke:#008484; stroke-width:59.0551; stroke-opacity:1; 
stroke-linecap:round; stroke-linejoin:round;">
<path d="M68146 37428
L68146 37034
" />
<path d="M68371 37428
L68203 37203
" />
<path d="M68371 37034
L68146 37259
" />
</g>
<g style="fill:#C2C200; fill-opacity:0.0; 
stroke:#C2C200; stroke-width:59.0551; stroke-opacity:1; 
stroke-linecap:round; stroke-linejoin:round;">
<path d="M81329 24237
L81311 24274
L81273 24312
L81217 24368
L81198 24406
L81198 24443
" />
<path d="M81292 24424
L81273 24462
L81236 24499
L81161 24518
L81029 24518
L80954 24499
L80917 24462
L80898 24424
L80898 24349
L80917 24312
L80954 24274
L81029 24256
L81161 24256
L81236 24274
L81273 24312
L81292 24349
L81292 24424
" />
<path d="M81292 23881
L81292 24106
" />
<path d="M81292 23993
L80898 23993
L80954 24031
L80992 24068
L81011 24106
" />
<path d="M77729 24337
L77711 24374
L77673 24412
L77617 24468
L77598 24506
L77598 24543
" />
<path d="M77692 24524
L77673 24562
L77636 24599
L77561 24618
L77429 24618
L77354 24599
L77317 24562
L77298 24524
L77298 24449
L77317 24412
L77354 24374
L77429 24356
L77561 24356
L77636 24374
L77673 24412
L77692 24449
L77692 24524
" />
<path d="M77336 24206
L77317 24187
L77298 24150
L77298 24056
L77317 24018
L77336 24000
L77373 23981
L77411 23981
L77467 24000
L77692 24225
L77692 23981
" />
<path d="M63178 31865
L62990 31996
" />
<path d="M63178 32090
L62784 32090
L62784 31940
L62803 31903
L62821 31884
L62859 31865
L62915 31865
L62953 31884
L62971 31903
L62990 31940
L62990 32090
" />
<path d="M63178 31490
L63178 31715
" />
<path d="M63178 31603
L62784 31603
L62840 31640
L62878 31678
L62896 31715
" />
<path d="M64978 31865
L64790 31996
" />
<path d="M64978 32090
L64584 32090
L64584 31940
L64603 31903
L64621 31884
L64659 31865
L64715 31865
L64753 31884
L64771 31903
L64790 31940
L64790 32090
" />
<path d="M64621 31715
L64603 31696
L64584 31659
L64584 31565
L64603 31528
L64621 31509
L64659 31490
L64696 31490
L64753 31509
L64978 31734
L64978 31490
" />
<path d="M63178 25265
L62990 25396
" />
<path d="M63178 25490
L62784 25490
L62784 25340
L62803 25303
L62821 25284
L62859 25265
L62915 25265
L62953 25284
L62971 25303
L62990 25340
L62990 25490
" />
<path d="M62784 25134
L62784 24890
L62934 25021
L62934 24965
L62953 24928
L62971 24909
L63009 24890
L63103 24890
L63140 24909
L63159 24928
L63178 24965
L63178 25078
L63159 25115
L63140 25134
" />
<path d="M64978 25265
L64790 25396
" />
<path d="M64978 25490
L64584 25490
L64584 25340
L64603 25303
L64621 25284
L64659 25265
L64715 25265
L64753 25284
L64771 25303
L64790 25340
L64790 25490
" />
<path d="M64715 24928
L64978 24928
" />
<path d="M64565 25021
L64846 25115
L64846 24871
" />
<path d="M76978 36665
L76790 36796
" />
<path d="M76978 36890
L76584 36890
L76584 36740
L76603 36703
L76621 36684
L76659 36665
L76715 36665
L76753 36684
L76771 36703
L76790 36740
L76790 36890
" />
<path d="M76584 36309
L76584 36496
L76771 36515
L76753 36496
L76734 36459
L76734 36365
L76753 36328
L76771 36309
L76809 36290
L76903 36290
L76940 36309
L76959 36328
L76978 36365
L76978 36459
L76959 36496
L76940 36515
" />
<path d="M73934 35878
L73803 35690
" />
<path d="M73709 35878
L73709 35484
L73859 35484
L73896 35503
L73915 35521
L73934 35559
L73934 35615
L73915 35653
L73896 35671
L73859 35690
L73709 35690
" />
<path d="M74271 35484
L74196 35484
L74159 35503
L74140 35521
L74103 35578
L74084 35653
L74084 35803
L74103 35840
L74121 35859
L74159 35878
L74234 35878
L74271 35859
L74290 35840
L74309 35803
L74309 35709
L74290 35671
L74271 35653
L74234 35634
L74159 35634
L74121 35653
L74103 35671
L74084 35709
" />
<path d="M80478 31065
L80290 31196
" />
<path d="M80478 31290
L80084 31290
L80084 31140
L80103 31103
L80121 31084
L80159 31065
L80215 31065
L80253 31084
L80271 31103
L80290 31140
L80290 31290
" />
<path d="M80084 30934
L80084 30671
L80478 30840
" />
<path d="M82078 30965
L81890 31096
" />
<path d="M82078 31190
L81684 31190
L81684 31040
L81703 31003
L81721 30984
L81759 30965
L81815 30965
L81853 30984
L81871 31003
L81890 31040
L81890 31190
" />
<path d="M81853 30740
L81834 30778
L81815 30796
L81778 30815
L81759 30815
L81721 30796
L81703 30778
L81684 30740
L81684 30665
L81703 30628
L81721 30609
L81759 30590
L81778 30590
L81815 30609
L81834 30628
L81853 30665
L81853 30740
L81871 30778
L81890 30796
L81928 30815
L82003 30815
L82040 30796
L82059 30778
L82078 30740
L82078 30665
L82059 30628
L82040 30609
L82003 30590
L81928 30590
L81890 30609
L81871 30628
L81853 30665
" />
<path d="M73634 24678
L73503 24490
" />
<path d="M73409 24678
L73409 24284
L73559 24284
L73596 24303
L73615 24321
L73634 24359
L73634 24415
L73615 24453
L73596 24471
L73559 24490
L73409 24490
" />
<path d="M73821 24678
L73896 24678
L73934 24659
L73953 24640
L73990 24584
L74009 24509
L74009 24359
L73990 24321
L73971 24303
L73934 24284
L73859 24284
L73821 24303
L73803 24321
L73784 24359
L73784 24453
L73803 24490
L73821 24509
L73859 24528
L73934 24528
L73971 24509
L73990 24490
L74009 24453
" />
<path d="M73446 22878
L73315 22690
" />
<path d="M73221 22878
L73221 22484
L73371 22484
L73409 22503
L73428 22521
L73446 22559
L73446 22615
L73428 22653
L73409 22671
L73371 22690
L73221 22690
" />
<path d="M73821 22878
L73596 22878
" />
<path d="M73709 22878
L73709 22484
L73671 22540
L73634 22578
L73596 22596
" />
<path d="M74065 22484
L74103 22484
L74140 22503
L74159 22521
L74178 22559
L74196 22634
L74196 22728
L74178 22803
L74159 22840
L74140 22859
L74103 22878
L74065 22878
L74028 22859
L74009 22840
L73990 22803
L73971 22728
L73971 22634
L73990 22559
L74009 22521
L74028 22503
L74065 22484
" />
<path d="M60275 32759
L60331 32778
L60425 32778
L60462 32759
L60481 32740
L60500 32703
L60500 32665
L60481 32628
L60462 32609
L60425 32590
L60350 32571
L60312 32553
L60293 32534
L60275 32496
L60275 32459
L60293 32421
L60312 32403
L60350 32384
L60443 32384
L60500 32403
" />
<path d="M60631 32384
L60725 32778
L60800 32496
L60874 32778
L60968 32384
" />
<path d="M61324 32778
L61099 32778
" />
<path d="M61212 32778
L61212 32384
L61174 32440
L61137 32478
L61099 32496
" />
<path d="M60275 29459
L60331 29478
L60425 29478
L60462 29459
L60481 29440
L60500 29403
L60500 29365
L60481 29328
L60462 29309
L60425 29290
L60350 29271
L60312 29253
L60293 29234
L60275 29196
L60275 29159
L60293 29121
L60312 29103
L60350 29084
L60443 29084
L60500 29103
" />
<path d="M60631 29084
L60725 29478
L60800 29196
L60874 29478
L60968 29084
" />
<path d="M61099 29121
L61118 29103
L61156 29084
L61249 29084
L61287 29103
L61306 29121
L61324 29159
L61324 29196
L61306 29253
L61081 29478
L61324 29478
" />
<path d="M60275 26059
L60331 26078
L60425 26078
L60462 26059
L60481 26040
L60500 26003
L60500 25965
L60481 25928
L60462 25909
L60425 25890
L60350 25871
L60312 25853
L60293 25834
L60275 25796
L60275 25759
L60293 25721
L60312 25703
L60350 25684
L60443 25684
L60500 25703
" />
<path d="M60631 25684
L60725 26078
L60800 25796
L60874 26078
L60968 25684
" />
<path d="M61081 25684
L61324 25684
L61193 25834
L61249 25834
L61287 25853
L61306 25871
L61324 25909
L61324 26003
L61306 26040
L61287 26059
L61249 26078
L61137 26078
L61099 26059
L61081 26040
" />
<path d="M60375 22459
L60431 22478
L60525 22478
L60562 22459
L60581 22440
L60600 22403
L60600 22365
L60581 22328
L60562 22309
L60525 22290
L60450 22271
L60412 22253
L60393 22234
L60375 22196
L60375 22159
L60393 22121
L60412 22103
L60450 22084
L60543 22084
L60600 22103
" />
<path d="M60731 22084
L60825 22478
L60900 22196
L60974 22478
L61068 22084
" />
<path d="M61387 22215
L61387 22478
" />
<path d="M61293 22065
L61199 22346
L61443 22346
" />
<path d="M60275 38959
L60331 38978
L60425 38978
L60462 38959
L60481 38940
L60500 38903
L60500 38865
L60481 38828
L60462 38809
L60425 38790
L60350 38771
L60312 38753
L60293 38734
L60275 38696
L60275 38659
L60293 38621
L60312 38603
L60350 38584
L60443 38584
L60500 38603
" />
<path d="M60631 38584
L60725 38978
L60800 38696
L60874 38978
L60968 38584
" />
<path d="M61306 38584
L61118 38584
L61099 38771
L61118 38753
L61156 38734
L61249 38734
L61287 38753
L61306 38771
L61324 38809
L61324 38903
L61306 38940
L61287 38959
L61249 38978
L61156 38978
L61118 38959
L61099 38940
" />
<path d="M67756 30588
L68075 30588
L68113 30569
L68131 30550
L68150 30513
L68150 30438
L68131 30400
L68113 30381
L68075 30363
L67756 30363
" />
<path d="M68150 29969
L68150 30194
" />
<path d="M68150 30081
L67756 30081
L67813 30119
L67850 30156
L67869 30194
" />
</g>
<g style="fill:#008484; fill-opacity:0.0; 
stroke:#008484; stroke-width:59.0551; stroke-opacity:1; 
stroke-linecap:round; stroke-linejoin:round;">
</g>
<g style="fill:#008484; fill-opacity:0.0; 
stroke:#008484; stroke-width:120; stroke-opacity:1; 
stroke-linecap:round; stroke-linejoin:round;">
<path d="M66157 40257
L66242 40285
L66271 40314
L66300 40371
L66300 40457
L66271 40514
L66242 40542
L66185 40571
L65957 40571
L65957 39971
L66157 39971
L66214 40000
L66242 40028
L66271 40085
L66271 40142
L66242 40200
L66214 40228
L66157 40257
L65957 40257
" />
<path d="M66471 39971
L66814 39971
" />
<path d="M66642 40571
L66642 39971
" />
<path d="M66985 40542
L67071 40571
L67214 40571
L67271 40542
L67300 40514
L67328 40457
L67328 40400
L67300 40342
L67271 40314
L67214 40285
L67100 40257
L67042 40228
L67014 40200
L66985 40142
L66985 40085
L67014 40028
L67042 40000
L67100 39971
L67242 39971
L67328 40000
" />
<path d="M67585 40571
L67585 39971
" />
<path d="M67585 40257
L67928 40257
" />
<path d="M67928 40571
L67928 39971
" />
<path d="M68214 40571
L68214 39971
" />
<path d="M68500 40257
L68700 40257
" />
<path d="M68785 40571
L68500 40571
L68500 39971
L68785 39971
" />
<path d="M69328 40571
L69042 40571
L69042 39971
" />
<path d="M69528 40571
L69528 39971
L69671 39971
L69757 40000
L69814 40057
L69842 40114
L69871 40228
L69871 40314
L69842 40428
L69814 40485
L69757 40542
L69671 40571
L69528 40571
" />
</g>
<g style="fill:#008484; fill-opacity:0.0; 
stroke:#008484; stroke-width:59.0551; stroke-opacity:1; 
stroke-linecap:round; stroke-linejoin:round;">
<path d="M80898 36992
L79717 36992
" />
<path d="M79717 36007
L80898 36007
" />
<path d="M68521.7 37100.4 A1147.83 1147.83 0.0 1 0 68515.7 35909.4 " />
<path d="M68515 37090
L68515 35909
" />
<circle cx="69500" cy="36500" r="991.313" /> 
<path d="M81744 23688
L81744 23707
" />
<path d="M82020 24790
L81744 24790
" />
<path d="M81744 24790
L81744 24692
" />
<path d="M81744 23688
L81744 23609
" />
<path d="M81744 23609
L82020 23609
" />
<path d="M78144 23788
L78144 23807
" />
<path d="M78420 24890
L78144 24890
" />
<path d="M78144 24890
L78144 24792
" />
<path d="M78144 23788
L78144 23709
" />
<path d="M78144 23709
L78420 23709
" />
<path d="M64300 30800
L64300 32800
" />
<path d="M64300 32800
L63300 32800
" />
<path d="M63300 32800
L63300 30800
" />
<path d="M63300 30800
L64300 30800
" />
<path d="M63800 30800
L63800 30300
" />
<path d="M63800 32800
L63800 33300
" />
<path d="M66100 30800
L66100 32800
" />
<path d="M66100 32800
L65100 32800
" />
<path d="M65100 32800
L65100 30800
" />
<path d="M65100 30800
L66100 30800
" />
<path d="M65600 30800
L65600 30300
" />
<path d="M65600 32800
L65600 33300
" />
<path d="M64300 24200
L64300 26200
" />
<path d="M64300 26200
L63300 26200
" />
<path d="M63300 26200
L63300 24200
" />
<path d="M63300 24200
L64300 24200
" />
<path d="M63800 24200
L63800 23700
" />
<path d="M63800 26200
L63800 26700
" />
<path d="M66100 24200
L66100 26200
" />
<path d="M66100 26200
L65100 26200
" />
<path d="M65100 26200
L65100 24200
" />
<path d="M65100 24200
L66100 24200
" />
<path d="M65600 24200
L65600 23700
" />
<path d="M65600 26200
L65600 26700
" />
<path d="M77100 37600
L77100 35600
" />
<path d="M77100 35600
L78100 35600
" />
<path d="M78100 35600
L78100 37600
" />
<path d="M78100 37600
L77100 37600
" />
<path d="M77600 37600
L77600 38100
" />
<path d="M77600 35600
L77600 35100
" />
<path d="M75000 37000
L73000 37000
" />
<path d="M73000 37000
L73000 36000
" />
<path d="M73000 36000
L75000 36000
" />
<path d="M75000 36000
L75000 37000
" />
<path d="M75000 36500
L75500 36500
" />
<path d="M73000 36500
L72500 36500
" />
<path d="M80600 32100
L80600 30100
" />
<path d="M80600 30100
L81600 30100
" />
<path d="M81600 30100
L81600 32100
" />
<path d="M81600 32100
L80600 32100
" />
<path d="M81100 32100
L81100 32600
" />
<path d="M81100 30100
L81100 29600
" />
<path d="M82200 32100
L82200 30100
" />
<path d="M82200 30100
L83200 30100
" />
<path d="M83200 30100
L83200 32100
" />
<path d="M83200 32100
L82200 32100
" />
<path d="M82700 32100
L82700 32600
" />
<path d="M82700 30100
L82700 29600
" />
<path d="M72700 24800
L74700 24800
" />
<path d="M74700 24800
L74700 25800
" />
<path d="M74700 25800
L72700 25800
" />
<path d="M72700 25800
L72700 24800
" />
<path d="M72700 25300
L72200 25300
" />
<path d="M74700 25300
L75200 25300
" />
<path d="M72700 23000
L74700 23000
" />
<path d="M74700 23000
L74700 24000
" />
<path d="M74700 24000
L72700 24000
" />
<path d="M72700 24000
L72700 23000
" />
<path d="M72700 23500
L72200 23500
" />
<path d="M74700 23500
L75200 23500
" />
<circle cx="60800" cy="32900" r="1000" /> 
<path d="M59300 31400
L62300 31400
" />
<path d="M62300 31400
L62300 34400
" />
<path d="M62300 34400
L59300 34400
" />
<path d="M59300 31400
L59300 34400
" />
<circle cx="60800" cy="29600" r="1000" /> 
<path d="M59300 28100
L62300 28100
" />
<path d="M62300 28100
L62300 31100
" />
<path d="M62300 31100
L59300 31100
" />
<path d="M59300 28100
L59300 31100
" />
<circle cx="60800" cy="26200" r="1000" /> 
<path d="M59300 24700
L62300 24700
" />
<path d="M62300 24700
L62300 27700
" />
<path d="M62300 27700
L59300 27700
" />
<path d="M59300 24700
L59300 27700
" />
<circle cx="60900" cy="22600" r="1000" /> 
<path d="M59400 21100
L62400 21100
" />
<path d="M62400 21100
L62400 24100
" />
<path d="M62400 24100
L59400 24100
" />
<path d="M59400 21100
L59400 24100
" />
<circle cx="60800" cy="39100" r="1000" /> 
<path d="M59300 37600
L62300 37600
" />
<path d="M62300 37600
L62300 40600
" />
<path d="M62300 40600
L59300 40600
" />
<path d="M59300 37600
L59300 40600
" />
<path d="M79295 27740
L79295 32859
" />
<path d="M79295 32859
L68704 32859
" />
<path d="M68704 32859
L68704 27740
" />
<path d="M68704 27740
L79295 27740
" />
</g>
<g style="fill:#008484; fill-opacity:0.0; 
stroke:#008484; stroke-width:150; stroke-opacity:1; 
stroke-linecap:round; stroke-linejoin:round;">
<path d="M84500 25500
L84500 21000
" />
<path d="M84500 21000
L84000 20500
" />
<path d="M84000 20500
L58500 20500
" />
<path d="M84500 41500
L58500 41500
" />
<path d="M58500 41500
L58500 20500
" />
<path d="M84500 25500
L85500 26500
" />
<path d="M85500 26500
L85500 39500
" />
<path d="M85500 39500
L84500 40500
" />
<path d="M84500 40500
L84500 41500
" />
</g>
<g style="fill:#840000; fill-opacity:0.0; 
stroke:#840000; stroke-width:150; stroke-opacity:1; 
stroke-linecap:round; stroke-linejoin:round;">
</g>
<g style="fill:#840000; fill-opacity:0.0; 
stroke:#840000; stroke-width:0; stroke-opacity:1; 
stroke-linecap:round; stroke-linejoin:round;">
</g>
<g style="fill:#840000; fill-opacity:1.0; 
stroke:#840000; stroke-width:0; stroke-opacity:1; 
stroke-linecap:round; stroke-linejoin:round;">
<polyline style="fill-rule:evenodd;"
points="81055,36244
81055,36755
80544,36755
80544,36244
81055,36244
" /> 
<circle cx="79815.7" cy="36500" r="255.906" /> 
</g>
<g style="fill:#840000; fill-opacity:1.0; 
stroke:#840000; stroke-width:39.3701; stroke-opacity:1; 
stroke-linecap:round; stroke-linejoin:round;">
</g>
<g style="fill:#840000; fill-opacity:1.0; 
stroke:#840000; stroke-width:0; stroke-opacity:1; 
stroke-linecap:round; stroke-linejoin:round;">
<polyline style="fill-rule:evenodd;"
points="69374,36893
68625,36893
68625,36106
69374,36106
69374,36893
" /> 
<circle cx="70000" cy="36500" r="374.016" /> 
</g>
<g style="fill:#840000; fill-opacity:1.0; 
stroke:#840000; stroke-width:39.3701; stroke-opacity:1; 
stroke-linecap:round; stroke-linejoin:round;">
</g>
<g style="fill:#840000; fill-opacity:1.0; 
stroke:#840000; stroke-width:0; stroke-opacity:1; 
stroke-linecap:round; stroke-linejoin:round;">
<circle cx="63800" cy="29800" r="393.5" /> 
</g>
<g style="fill:#840000; fill-opacity:1.0; 
stroke:#840000; stroke-width:39.3701; stroke-opacity:1; 
stroke-linecap:round; stroke-linejoin:round;">
</g>
<g style="fill:#840000; fill-opacity:1.0; 
stroke:#840000; stroke-width:0; stroke-opacity:1; 
stroke-linecap:round; stroke-linejoin:round;">
<circle cx="63800" cy="33800" r="393.5" /> 
</g>
<g style="fill:#840000; fill-opacity:1.0; 
stroke:#840000; stroke-width:39.3701; stroke-opacity:1; 
stroke-linecap:round; stroke-linejoin:round;">
</g>
<g style="fill:#840000; fill-opacity:1.0; 
stroke:#840000; stroke-width:0; stroke-opacity:1; 
stroke-linecap:round; stroke-linejoin:round;">
<circle cx="65600" cy="29800" r="393.5" /> 
</g>
<g style="fill:#840000; fill-opacity:1.0; 
stroke:#840000; stroke-width:39.3701; stroke-opacity:1; 
stroke-linecap:round; stroke-linejoin:round;">
</g>
<g style="fill:#840000; fill-opacity:1.0; 
stroke:#840000; stroke-width:0; stroke-opacity:1; 
stroke-linecap:round; stroke-linejoin:round;">
<circle cx="65600" cy="33800" r="393.5" /> 
</g>
<g style="fill:#840000; fill-opacity:1.0; 
stroke:#840000; stroke-width:39.3701; stroke-opacity:1; 
stroke-linecap:round; stroke-linejoin:round;">
</g>
<g style="fill:#840000; fill-opacity:1.0; 
stroke:#840000; stroke-width:0; stroke-opacity:1; 
stroke-linecap:round; stroke-linejoin:round;">
<circle cx="63800" cy="23200" r="393.5" /> 
</g>
<g style="fill:#840000; fill-opacity:1.0; 
stroke:#840000; stroke-width:39.3701; stroke-opacity:1; 
stroke-linecap:round; stroke-linejoin:round;">
</g>
<g style="fill:#840000; fill-opacity:1.0; 
stroke:#840000; stroke-width:0; stroke-opacity:1; 
stroke-linecap:round; stroke-linejoin:round;">
<circle cx="63800" cy="27200" r="393.5" /> 
</g>
<g style="fill:#840000; fill-opacity:1.0; 
stroke:#840000; stroke-width:39.3701; stroke-opacity:1; 
stroke-linecap:round; stroke-linejoin:round;">
</g>
<g style="fill:#840000; fill-opacity:1.0; 
stroke:#840000; stroke-width:0; stroke-opacity:1; 
stroke-linecap:round; stroke-linejoin:round;">
<circle cx="65600" cy="23200" r="393.5" /> 
</g>
<g style="fill:#840000; fill-opacity:1.0; 
stroke:#840000; stroke-width:39.3701; stroke-opacity:1; 
stroke-linecap:round; stroke-linejoin:round;">
</g>
<g style="fill:#840000; fill-opacity:1.0; 
stroke:#840000; stroke-width:0; stroke-opacity:1; 
stroke-linecap:round; stroke-linejoin:round;">
<circle cx="65600" cy="27200" r="393.5" /> 
</g>
<g style="fill:#840000; fill-opacity:1.0; 
stroke:#840000; stroke-width:39.3701; stroke-opacity:1; 
stroke-linecap:round; stroke-linejoin:round;">
</g>
<g style="fill:#840000; fill-opacity:1.0; 
stroke:#840000; stroke-width:0; stroke-opacity:1; 
stroke-linecap:round; stroke-linejoin:round;">
<circle cx="77600" cy="38600" r="393.5" /> 
</g>
<g style="fill:#840000; fill-opacity:1.0; 
stroke:#840000; stroke-width:39.3701; stroke-opacity:1; 
stroke-linecap:round; stroke-linejoin:round;">
</g>
<g style="fill:#840000; fill-opacity:1.0; 
stroke:#840000; stroke-width:0; stroke-opacity:1; 
stroke-linecap:round; stroke-linejoin:round;">
<circle cx="77600" cy="34600" r="393.5" /> 
</g>
<g style="fill:#840000; fill-opacity:1.0; 
stroke:#840000; stroke-width:39.3701; stroke-opacity:1; 
stroke-linecap:round; stroke-linejoin:round;">
</g>
<g style="fill:#840000; fill-opacity:1.0; 
stroke:#840000; stroke-width:0; stroke-opacity:1; 
stroke-linecap:round; stroke-linejoin:round;">
<circle cx="76000" cy="36500" r="393.5" /> 
</g>
<g style="fill:#840000; fill-opacity:1.0; 
stroke:#840000; stroke-width:39.3701; stroke-opacity:1; 
stroke-linecap:round; stroke-linejoin:round;">
</g>
<g style="fill:#840000; fill-opacity:1.0; 
stroke:#840000; stroke-width:0; stroke-opacity:1; 
stroke-linecap:round; stroke-linejoin:round;">
<circle cx="72000" cy="36500" r="393.5" /> 
</g>
<g style="fill:#840000; fill-opacity:1.0; 
stroke:#840000; stroke-width:39.3701; stroke-opacity:1; 
stroke-linecap:round; stroke-linejoin:round;">
</g>
<g style="fill:#840000; fill-opacity:1.0; 
stroke:#840000; stroke-width:0; stroke-opacity:1; 
stroke-linecap:round; stroke-linejoin:round;">
<circle cx="81100" cy="33100" r="393.5" /> 
</g>
<g style="fill:#840000; fill-opacity:1.0; 
stroke:#840000; stroke-width:39.3701; stroke-opacity:1; 
stroke-linecap:round; stroke-linejoin:round;">
</g>
<g style="fill:#840000; fill-opacity:1.0; 
stroke:#840000; stroke-width:0; stroke-opacity:1; 
stroke-linecap:round; stroke-linejoin:round;">
<circle cx="81100" cy="29100" r="393.5" /> 
</g>
<g style="fill:#840000; fill-opacity:1.0; 
stroke:#840000; stroke-width:39.3701; stroke-opacity:1; 
stroke-linecap:round; stroke-linejoin:round;">
</g>
<g style="fill:#840000; fill-opacity:1.0; 
stroke:#840000; stroke-width:0; stroke-opacity:1; 
stroke-linecap:round; stroke-linejoin:round;">
<circle cx="82700" cy="33100" r="393.5" /> 
</g>
<g style="fill:#840000; fill-opacity:1.0; 
stroke:#840000; stroke-width:39.3701; stroke-opacity:1; 
stroke-linecap:round; stroke-linejoin:round;">
</g>
<g style="fill:#840000; fill-opacity:1.0; 
stroke:#840000; stroke-width:0; stroke-opacity:1; 
stroke-linecap:round; stroke-linejoin:round;">
<circle cx="82700" cy="29100" r="393.5" /> 
</g>
<g style="fill:#840000; fill-opacity:1.0; 
stroke:#840000; stroke-width:39.3701; stroke-opacity:1; 
stroke-linecap:round; stroke-linejoin:round;">
</g>
<g style="fill:#840000; fill-opacity:1.0; 
stroke:#840000; stroke-width:0; stroke-opacity:1; 
stroke-linecap:round; stroke-linejoin:round;">
<circle cx="71700" cy="25300" r="393.5" /> 
</g>
<g style="fill:#840000; fill-opacity:1.0; 
stroke:#840000; stroke-width:39.3701; stroke-opacity:1; 
stroke-linecap:round; stroke-linejoin:round;">
</g>
<g style="fill:#840000; fill-opacity:1.0; 
stroke:#840000; stroke-width:0; stroke-opacity:1; 
stroke-linecap:round; stroke-linejoin:round;">
<circle cx="75700" cy="25300" r="393.5" /> 
</g>
<g style="fill:#840000; fill-opacity:1.0; 
stroke:#840000; stroke-width:39.3701; stroke-opacity:1; 
stroke-linecap:round; stroke-linejoin:round;">
</g>
<g style="fill:#840000; fill-opacity:1.0; 
stroke:#840000; stroke-width:0; stroke-opacity:1; 
stroke-linecap:round; stroke-linejoin:round;">
<circle cx="71700" cy="23500" r="393.5" /> 
</g>
<g style="fill:#840000; fill-opacity:1.0; 
stroke:#840000; stroke-width:39.3701; stroke-opacity:1; 
stroke-linecap:round; stroke-linejoin:round;">
</g>
<g style="fill:#840000; fill-opacity:1.0; 
stroke:#840000; stroke-width:0; stroke-opacity:1; 
stroke-linecap:round; stroke-linejoin:round;">
<circle cx="75700" cy="23500" r="393.5" /> 
</g>
<g style="fill:#840000; fill-opacity:1.0; 
stroke:#840000; stroke-width:39.3701; stroke-opacity:1; 
stroke-linecap:round; stroke-linejoin:round;">
</g>
<g style="fill:#840000; fill-opacity:1.0; 
stroke:#840000; stroke-width:0; stroke-opacity:1; 
stroke-linecap:round; stroke-linejoin:round;">
<circle cx="62300" cy="31900" r="275" /> 
</g>
<g style="fill:#840000; fill-opacity:1.0; 
stroke:#840000; stroke-width:39.3701; stroke-opacity:1; 
stroke-linecap:round; stroke-linejoin:round;">
</g>
<g style="fill:#840000; fill-opacity:1.0; 
stroke:#840000; stroke-width:0; stroke-opacity:1; 
stroke-linecap:round; stroke-linejoin:round;">
<circle cx="62300" cy="33900" r="275" /> 
</g>
<g style="fill:#840000; fill-opacity:1.0; 
stroke:#840000; stroke-width:39.3701; stroke-opacity:1; 
stroke-linecap:round; stroke-linejoin:round;">
</g>
<g style="fill:#840000; fill-opacity:1.0; 
stroke:#840000; stroke-width:0; stroke-opacity:1; 
stroke-linecap:round; stroke-linejoin:round;">
<circle cx="59300" cy="31900" r="275" /> 
</g>
<g style="fill:#840000; fill-opacity:1.0; 
stroke:#840000; stroke-width:39.3701; stroke-opacity:1; 
stroke-linecap:round; stroke-linejoin:round;">
</g>
<g style="fill:#840000; fill-opacity:1.0; 
stroke:#840000; stroke-width:0; stroke-opacity:1; 
stroke-linecap:round; stroke-linejoin:round;">
<circle cx="59300" cy="33900" r="275" /> 
</g>
<g style="fill:#840000; fill-opacity:1.0; 
stroke:#840000; stroke-width:39.3701; stroke-opacity:1; 
stroke-linecap:round; stroke-linejoin:round;">
</g>
<g style="fill:#840000; fill-opacity:1.0; 
stroke:#840000; stroke-width:0; stroke-opacity:1; 
stroke-linecap:round; stroke-linejoin:round;">
<circle cx="62300" cy="28600" r="275" /> 
</g>
<g style="fill:#840000; fill-opacity:1.0; 
stroke:#840000; stroke-width:39.3701; stroke-opacity:1; 
stroke-linecap:round; stroke-linejoin:round;">
</g>
<g style="fill:#840000; fill-opacity:1.0; 
stroke:#840000; stroke-width:0; stroke-opacity:1; 
stroke-linecap:round; stroke-linejoin:round;">
<circle cx="62300" cy="30600" r="275" /> 
</g>
<g style="fill:#840000; fill-opacity:1.0; 
stroke:#840000; stroke-width:39.3701; stroke-opacity:1; 
stroke-linecap:round; stroke-linejoin:round;">
</g>
<g style="fill:#840000; fill-opacity:1.0; 
stroke:#840000; stroke-width:0; stroke-opacity:1; 
stroke-linecap:round; stroke-linejoin:round;">
<circle cx="59300" cy="28600" r="275" /> 
</g>
<g style="fill:#840000; fill-opacity:1.0; 
stroke:#840000; stroke-width:39.3701; stroke-opacity:1; 
stroke-linecap:round; stroke-linejoin:round;">
</g>
<g style="fill:#840000; fill-opacity:1.0; 
stroke:#840000; stroke-width:0; stroke-opacity:1; 
stroke-linecap:round; stroke-linejoin:round;">
<circle cx="59300" cy="30600" r="275" /> 
</g>
<g style="fill:#840000; fill-opacity:1.0; 
stroke:#840000; stroke-width:39.3701; stroke-opacity:1; 
stroke-linecap:round; stroke-linejoin:round;">
</g>
<g style="fill:#840000; fill-opacity:1.0; 
stroke:#840000; stroke-width:0; stroke-opacity:1; 
stroke-linecap:round; stroke-linejoin:round;">
<circle cx="62300" cy="25200" r="275" /> 
</g>
<g style="fill:#840000; fill-opacity:1.0; 
stroke:#840000; stroke-width:39.3701; stroke-opacity:1; 
stroke-linecap:round; stroke-linejoin:round;">
</g>
<g style="fill:#840000; fill-opacity:1.0; 
stroke:#840000; stroke-width:0; stroke-opacity:1; 
stroke-linecap:round; stroke-linejoin:round;">
<circle cx="62300" cy="27200" r="275" /> 
</g>
<g style="fill:#840000; fill-opacity:1.0; 
stroke:#840000; stroke-width:39.3701; stroke-opacity:1; 
stroke-linecap:round; stroke-linejoin:round;">
</g>
<g style="fill:#840000; fill-opacity:1.0; 
stroke:#840000; stroke-width:0; stroke-opacity:1; 
stroke-linecap:round; stroke-linejoin:round;">
<circle cx="59300" cy="25200" r="275" /> 
</g>
<g style="fill:#840000; fill-opacity:1.0; 
stroke:#840000; stroke-width:39.3701; stroke-opacity:1; 
stroke-linecap:round; stroke-linejoin:round;">
</g>
<g style="fill:#840000; fill-opacity:1.0; 
stroke:#840000; stroke-width:0; stroke-opacity:1; 
stroke-linecap:round; stroke-linejoin:round;">
<circle cx="59300" cy="27200" r="275" /> 
</g>
<g style="fill:#840000; fill-opacity:1.0; 
stroke:#840000; stroke-width:39.3701; stroke-opacity:1; 
stroke-linecap:round; stroke-linejoin:round;">
</g>
<g style="fill:#840000; fill-opacity:1.0; 
stroke:#840000; stroke-width:0; stroke-opacity:1; 
stroke-linecap:round; stroke-linejoin:round;">
<circle cx="62400" cy="21600" r="275" /> 
</g>
<g style="fill:#840000; fill-opacity:1.0; 
stroke:#840000; stroke-width:39.3701; stroke-opacity:1; 
stroke-linecap:round; stroke-linejoin:round;">
</g>
<g style="fill:#840000; fill-opacity:1.0; 
stroke:#840000; stroke-width:0; stroke-opacity:1; 
stroke-linecap:round; stroke-linejoin:round;">
<circle cx="62400" cy="23600" r="275" /> 
</g>
<g style="fill:#840000; fill-opacity:1.0; 
stroke:#840000; stroke-width:39.3701; stroke-opacity:1; 
stroke-linecap:round; stroke-linejoin:round;">
</g>
<g style="fill:#840000; fill-opacity:1.0; 
stroke:#840000; stroke-width:0; stroke-opacity:1; 
stroke-linecap:round; stroke-linejoin:round;">
<circle cx="59400" cy="21600" r="275" /> 
</g>
<g style="fill:#840000; fill-opacity:1.0; 
stroke:#840000; stroke-width:39.3701; stroke-opacity:1; 
stroke-linecap:round; stroke-linejoin:round;">
</g>
<g style="fill:#840000; fill-opacity:1.0; 
stroke:#840000; stroke-width:0; stroke-opacity:1; 
stroke-linecap:round; stroke-linejoin:round;">
<circle cx="59400" cy="23600" r="275" /> 
</g>
<g style="fill:#840000; fill-opacity:1.0; 
stroke:#840000; stroke-width:39.3701; stroke-opacity:1; 
stroke-linecap:round; stroke-linejoin:round;">
</g>
<g style="fill:#840000; fill-opacity:1.0; 
stroke:#840000; stroke-width:0; stroke-opacity:1; 
stroke-linecap:round; stroke-linejoin:round;">
<circle cx="62300" cy="38100" r="275" /> 
</g>
<g style="fill:#840000; fill-opacity:1.0; 
stroke:#840000; stroke-width:39.3701; stroke-opacity:1; 
stroke-linecap:round; stroke-linejoin:round;">
</g>
<g style="fill:#840000; fill-opacity:1.0; 
stroke:#840000; stroke-width:0; stroke-opacity:1; 
stroke-linecap:round; stroke-linejoin:round;">
<circle cx="62300" cy="40100" r="275" /> 
</g>
<g style="fill:#840000; fill-opacity:1.0; 
stroke:#840000; stroke-width:39.3701; stroke-opacity:1; 
stroke-linecap:round; stroke-linejoin:round;">
</g>
<g style="fill:#840000; fill-opacity:1.0; 
stroke:#840000; stroke-width:0; stroke-opacity:1; 
stroke-linecap:round; stroke-linejoin:round;">
<circle cx="59300" cy="38100" r="275" /> 
</g>
<g style="fill:#840000; fill-opacity:1.0; 
stroke:#840000; stroke-width:39.3701; stroke-opacity:1; 
stroke-linecap:round; stroke-linejoin:round;">
</g>
<g style="fill:#840000; fill-opacity:1.0; 
stroke:#840000; stroke-width:0; stroke-opacity:1; 
stroke-linecap:round; stroke-linejoin:round;">
<circle cx="59300" cy="40100" r="275" /> 
</g>
<g style="fill:#840000; fill-opacity:1.0; 
stroke:#840000; stroke-width:39.3701; stroke-opacity:1; 
stroke-linecap:round; stroke-linejoin:round;">
</g>
<g style="fill:#840000; fill-opacity:1.0; 
stroke:#840000; stroke-width:600; stroke-opacity:1; 
stroke-linecap:round; stroke-linejoin:round;">
</g>
<g style="fill:#840000; fill-opacity:0.0; 
stroke:#840000; stroke-width:600; stroke-opacity:1; 
stroke-linecap:round; stroke-linejoin:round;">
<path d="M83500 40700
L83500 40300
" />
<path d="M82500 40700
L82500 40300
" />
<path d="M81500 40700
L81500 40300
" />
<path d="M78500 40700
L78500 40300
" />
<path d="M79500 40700
L79500 40300
" />
<path d="M80500 40700
L80500 40300
" />
<path d="M76500 40700
L76500 40300
" />
<path d="M75500 40700
L75500 40300
" />
<path d="M74500 40700
L74500 40300
" />
<path d="M72500 40700
L72500 40300
" />
<path d="M71500 40700
L71500 40300
" />
<path d="M83500 21700
L83500 21300
" />
<path d="M82500 21700
L82500 21300
" />
<path d="M81500 21700
L81500 21300
" />
<path d="M80500 21700
L80500 21300
" />
<path d="M79500 21700
L79500 21300
" />
<path d="M78500 21700
L78500 21300
" />
<path d="M77500 21700
L77500 21300
" />
<path d="M76500 21700
L76500 21300
" />
<path d="M74900 21700
L74900 21300
" />
<path d="M73900 21700
L73900 21300
" />
<path d="M72900 21700
L72900 21300
" />
<path d="M71900 21700
L71900 21300
" />
<path d="M70900 21700
L70900 21300
" />
<path d="M69900 21700
L69900 21300
" />
<path d="M68900 21700
L68900 21300
" />
<path d="M67900 21700
L67900 21300
" />
<path d="M73500 40700
L73500 40300
" />
</g>
<g style="fill:#840000; fill-opacity:1.0; 
stroke:#840000; stroke-width:0; stroke-opacity:1; 
stroke-linecap:round; stroke-linejoin:round;">
<circle cx="84500" cy="38500" r="775" /> 
</g>
<g style="fill:#840000; fill-opacity:1.0; 
stroke:#840000; stroke-width:39.3701; stroke-opacity:1; 
stroke-linecap:round; stroke-linejoin:round;">
</g>
<g style="fill:#840000; fill-opacity:1.0; 
stroke:#840000; stroke-width:0; stroke-opacity:1; 
stroke-linecap:round; stroke-linejoin:round;">
<circle cx="84500" cy="27500" r="775" /> 
</g>
<g style="fill:#840000; fill-opacity:1.0; 
stroke:#840000; stroke-width:39.3701; stroke-opacity:1; 
stroke-linecap:round; stroke-linejoin:round;">
</g>
<g style="fill:#840000; fill-opacity:1.0; 
stroke:#840000; stroke-width:0; stroke-opacity:1; 
stroke-linecap:round; stroke-linejoin:round;">
<circle cx="64500" cy="21500" r="775" /> 
</g>
<g style="fill:#840000; fill-opacity:1.0; 
stroke:#840000; stroke-width:39.3701; stroke-opacity:1; 
stroke-linecap:round; stroke-linejoin:round;">
</g>
<g style="fill:#840000; fill-opacity:1.0; 
stroke:#840000; stroke-width:0; stroke-opacity:1; 
stroke-linecap:round; stroke-linejoin:round;">
<circle cx="64000" cy="40500" r="775" /> 
</g>
<g style="fill:#840000; fill-opacity:1.0; 
stroke:#840000; stroke-width:39.3701; stroke-opacity:1; 
stroke-linecap:round; stroke-linejoin:round;">
</g> 
</svg>
