G04 #@! TF.FileFunction,Copper,L4,Bot,Signal*
%FSLAX46Y46*%
G04 Gerber Fmt 4.6, Leading zero omitted, Abs format (unit mm)*
G04 Created by KiCad (PCBNEW (2015-07-26 BZR 5996)-product) date Thu 30 Jul 2015 12:08:43 AM EDT*
%MOMM*%
G01*
G04 APERTURE LIST*
%ADD10C,0.100000*%
%ADD11R,1.300000X1.300000*%
%ADD12C,1.300000*%
%ADD13R,1.900000X2.000000*%
%ADD14C,1.900000*%
%ADD15C,1.998980*%
%ADD16C,1.397000*%
%ADD17O,1.524000X2.540000*%
%ADD18C,3.937000*%
%ADD19C,0.600000*%
%ADD20C,0.250000*%
%ADD21C,0.254000*%
G04 APERTURE END LIST*
D10*
D11*
X205232000Y-92710000D03*
D12*
X202732000Y-92710000D03*
D13*
X175260000Y-92710000D03*
D14*
X177800000Y-92710000D03*
D15*
X162052000Y-75692000D03*
X162052000Y-85852000D03*
X166624000Y-75692000D03*
X166624000Y-85852000D03*
X162052000Y-58928000D03*
X162052000Y-69088000D03*
X166624000Y-58928000D03*
X166624000Y-69088000D03*
X197104000Y-98044000D03*
X197104000Y-87884000D03*
X193040000Y-92710000D03*
X182880000Y-92710000D03*
X205994000Y-84074000D03*
X205994000Y-73914000D03*
X210058000Y-84074000D03*
X210058000Y-73914000D03*
X182118000Y-64262000D03*
X192278000Y-64262000D03*
X182118000Y-59690000D03*
X192278000Y-59690000D03*
D16*
X158242000Y-81026000D03*
X158242000Y-86106000D03*
X150622000Y-81026000D03*
X150622000Y-86106000D03*
X158242000Y-72644000D03*
X158242000Y-77724000D03*
X150622000Y-72644000D03*
X150622000Y-77724000D03*
X158242000Y-64008000D03*
X158242000Y-69088000D03*
X150622000Y-64008000D03*
X150622000Y-69088000D03*
X158496000Y-54864000D03*
X158496000Y-59944000D03*
X150876000Y-54864000D03*
X150876000Y-59944000D03*
X158242000Y-96774000D03*
X158242000Y-101854000D03*
X150622000Y-96774000D03*
X150622000Y-101854000D03*
D17*
X212090000Y-102870000D03*
X209550000Y-102870000D03*
X207010000Y-102870000D03*
X199390000Y-102870000D03*
X201930000Y-102870000D03*
X204470000Y-102870000D03*
X194310000Y-102870000D03*
X191770000Y-102870000D03*
X189230000Y-102870000D03*
X184150000Y-102870000D03*
X181610000Y-102870000D03*
X212090000Y-54610000D03*
X209550000Y-54610000D03*
X207010000Y-54610000D03*
X204470000Y-54610000D03*
X201930000Y-54610000D03*
X199390000Y-54610000D03*
X196850000Y-54610000D03*
X194310000Y-54610000D03*
X190246000Y-54610000D03*
X187706000Y-54610000D03*
X185166000Y-54610000D03*
X182626000Y-54610000D03*
X180086000Y-54610000D03*
X177546000Y-54610000D03*
X175006000Y-54610000D03*
X172466000Y-54610000D03*
X186690000Y-102870000D03*
D18*
X214630000Y-97790000D03*
X214630000Y-69850000D03*
X163830000Y-54610000D03*
X162560000Y-102870000D03*
D19*
X207772000Y-64262000D03*
X188976000Y-67818000D03*
X198882000Y-66040000D03*
X197866000Y-64008000D03*
D20*
X198882000Y-66040000D02*
X205994000Y-66040000D01*
X205994000Y-66040000D02*
X207772000Y-64262000D01*
X188976000Y-67818000D02*
X190754000Y-66040000D01*
X190754000Y-66040000D02*
X198882000Y-66040000D01*
X197866000Y-100330000D02*
X194310000Y-100330000D01*
X202732000Y-95464000D02*
X197866000Y-100330000D01*
X202732000Y-92710000D02*
X202732000Y-95464000D01*
X194310000Y-100330000D02*
X191770000Y-102870000D01*
X189230000Y-102870000D02*
X189230000Y-101600000D01*
X189230000Y-101600000D02*
X183388000Y-95758000D01*
X183388000Y-95758000D02*
X178308000Y-95758000D01*
X178308000Y-95758000D02*
X175260000Y-92710000D01*
X209550000Y-54610000D02*
X209550000Y-56134000D01*
X201676000Y-64008000D02*
X197866000Y-64008000D01*
X209550000Y-56134000D02*
X201676000Y-64008000D01*
X188214000Y-64008000D02*
X189738000Y-62484000D01*
X171958000Y-70612000D02*
X174244000Y-68326000D01*
X174244000Y-68326000D02*
X183896000Y-68326000D01*
X183896000Y-68326000D02*
X188214000Y-64008000D01*
X165354000Y-87884000D02*
X167386000Y-87884000D01*
X163322000Y-85852000D02*
X165354000Y-87884000D01*
X162052000Y-85852000D02*
X163322000Y-85852000D01*
X171958000Y-83312000D02*
X171958000Y-71120000D01*
X167386000Y-87884000D02*
X171958000Y-83312000D01*
X171958000Y-71120000D02*
X171958000Y-70612000D01*
X203708000Y-58928000D02*
X207010000Y-55626000D01*
X196850000Y-58928000D02*
X203708000Y-58928000D01*
X193294000Y-62484000D02*
X196850000Y-58928000D01*
X189738000Y-62484000D02*
X193294000Y-62484000D01*
X207010000Y-55626000D02*
X207010000Y-54610000D01*
X187198000Y-64008000D02*
X189484000Y-61722000D01*
X169418000Y-71628000D02*
X173482000Y-67564000D01*
X173482000Y-67564000D02*
X183642000Y-67564000D01*
X183642000Y-67564000D02*
X187198000Y-64008000D01*
X169418000Y-76962000D02*
X169418000Y-72136000D01*
X166624000Y-79756000D02*
X169418000Y-76962000D01*
X166624000Y-85852000D02*
X166624000Y-79756000D01*
X169418000Y-72136000D02*
X169418000Y-71628000D01*
X201930000Y-58420000D02*
X204470000Y-55880000D01*
X196342000Y-58420000D02*
X201930000Y-58420000D01*
X193040000Y-61722000D02*
X196342000Y-58420000D01*
X189484000Y-61722000D02*
X193040000Y-61722000D01*
X204470000Y-55880000D02*
X204470000Y-54610000D01*
X186182000Y-64008000D02*
X186182000Y-62484000D01*
X172720000Y-66802000D02*
X183388000Y-66802000D01*
X183388000Y-66802000D02*
X186182000Y-64008000D01*
X168148000Y-70866000D02*
X168656000Y-70866000D01*
X163576000Y-69088000D02*
X165354000Y-70866000D01*
X165354000Y-70866000D02*
X168148000Y-70866000D01*
X162052000Y-69088000D02*
X163576000Y-69088000D01*
X168656000Y-70866000D02*
X172720000Y-66802000D01*
X198882000Y-57658000D02*
X201930000Y-54610000D01*
X191008000Y-57658000D02*
X198882000Y-57658000D01*
X186182000Y-62484000D02*
X191008000Y-57658000D01*
X162052000Y-69088000D02*
X162306000Y-69088000D01*
X185166000Y-64008000D02*
X185166000Y-62230000D01*
X183134000Y-66040000D02*
X185166000Y-64008000D01*
X166624000Y-69088000D02*
X168910000Y-69088000D01*
X168910000Y-69088000D02*
X171958000Y-66040000D01*
X171958000Y-66040000D02*
X183134000Y-66040000D01*
X198120000Y-56896000D02*
X199390000Y-55626000D01*
X190500000Y-56896000D02*
X198120000Y-56896000D01*
X185166000Y-62230000D02*
X190500000Y-56896000D01*
X199390000Y-55626000D02*
X199390000Y-54610000D01*
X179324000Y-98298000D02*
X174752000Y-98298000D01*
X169672000Y-93218000D02*
X174752000Y-98298000D01*
X169672000Y-93218000D02*
X168148000Y-93218000D01*
X186690000Y-102870000D02*
X186690000Y-100838000D01*
X178308000Y-98298000D02*
X179324000Y-98298000D01*
X179324000Y-98298000D02*
X184150000Y-98298000D01*
X184150000Y-98298000D02*
X186690000Y-100838000D01*
X154940000Y-85344000D02*
X150622000Y-81026000D01*
X154940000Y-85344000D02*
X154940000Y-87884000D01*
X154940000Y-87884000D02*
X160274000Y-93218000D01*
X160274000Y-93218000D02*
X168148000Y-93218000D01*
X168148000Y-93218000D02*
X168402000Y-93218000D01*
X182118000Y-64262000D02*
X150876000Y-64262000D01*
X150876000Y-64262000D02*
X150622000Y-64008000D01*
X182118000Y-59690000D02*
X182118000Y-64262000D01*
D21*
G36*
X214127954Y-53842046D02*
X214358295Y-53995954D01*
X214630000Y-54050000D01*
X214901705Y-53995954D01*
X215132046Y-53842046D01*
X215285954Y-53611705D01*
X215340000Y-53340000D01*
X215285954Y-53068295D01*
X215132046Y-52837954D01*
X215074092Y-52780000D01*
X216460000Y-52780000D01*
X216460000Y-67998074D01*
X216106690Y-67644147D01*
X215150140Y-67246953D01*
X214114404Y-67246049D01*
X213157162Y-67641573D01*
X212424147Y-68373310D01*
X212026953Y-69329860D01*
X212026049Y-70365596D01*
X212421573Y-71322838D01*
X213153310Y-72055853D01*
X214109860Y-72453047D01*
X215145596Y-72453951D01*
X216102838Y-72058427D01*
X216460000Y-71701888D01*
X216460000Y-95938074D01*
X216106690Y-95584147D01*
X215150140Y-95186953D01*
X214114404Y-95186049D01*
X213157162Y-95581573D01*
X212424147Y-96313310D01*
X212026953Y-97269860D01*
X212026049Y-98305596D01*
X212421573Y-99262838D01*
X213153310Y-99995853D01*
X214109860Y-100393047D01*
X215145596Y-100393951D01*
X216102838Y-99998427D01*
X216460000Y-99641888D01*
X216460000Y-104700000D01*
X212633560Y-104700000D01*
X213077828Y-104403149D01*
X213380660Y-103949930D01*
X213487000Y-103415321D01*
X213487000Y-102324679D01*
X213380660Y-101790070D01*
X213077828Y-101336851D01*
X212624609Y-101034019D01*
X212090000Y-100927679D01*
X211555391Y-101034019D01*
X211102172Y-101336851D01*
X210820000Y-101759150D01*
X210537828Y-101336851D01*
X210084609Y-101034019D01*
X209550000Y-100927679D01*
X209015391Y-101034019D01*
X208562172Y-101336851D01*
X208280000Y-101759150D01*
X207997828Y-101336851D01*
X207544609Y-101034019D01*
X207010000Y-100927679D01*
X206475391Y-101034019D01*
X206022172Y-101336851D01*
X205740000Y-101759150D01*
X205457828Y-101336851D01*
X205004609Y-101034019D01*
X204470000Y-100927679D01*
X203935391Y-101034019D01*
X203482172Y-101336851D01*
X203200000Y-101759150D01*
X202917828Y-101336851D01*
X202464609Y-101034019D01*
X201930000Y-100927679D01*
X201395391Y-101034019D01*
X200942172Y-101336851D01*
X200660000Y-101759150D01*
X200377828Y-101336851D01*
X199924609Y-101034019D01*
X199390000Y-100927679D01*
X198855391Y-101034019D01*
X198402172Y-101336851D01*
X198099340Y-101790070D01*
X197993000Y-102324679D01*
X197993000Y-103415321D01*
X198099340Y-103949930D01*
X198402172Y-104403149D01*
X198846440Y-104700000D01*
X196891253Y-104700000D01*
X194864918Y-104692411D01*
X195297828Y-104403149D01*
X195600660Y-103949930D01*
X195707000Y-103415321D01*
X195707000Y-102324679D01*
X195600660Y-101790070D01*
X195297828Y-101336851D01*
X194844609Y-101034019D01*
X194310000Y-100927679D01*
X193775391Y-101034019D01*
X193322172Y-101336851D01*
X193030670Y-101773113D01*
X193012059Y-101710059D01*
X192668026Y-101284370D01*
X192187277Y-101022740D01*
X192113070Y-101007780D01*
X191897000Y-101130280D01*
X191897000Y-102743000D01*
X191917000Y-102743000D01*
X191917000Y-102997000D01*
X191897000Y-102997000D01*
X191897000Y-103017000D01*
X191643000Y-103017000D01*
X191643000Y-102997000D01*
X189357000Y-102997000D01*
X189357000Y-103017000D01*
X189103000Y-103017000D01*
X189103000Y-102997000D01*
X189083000Y-102997000D01*
X189083000Y-102743000D01*
X189103000Y-102743000D01*
X189103000Y-101130280D01*
X189357000Y-101130280D01*
X189357000Y-102743000D01*
X191643000Y-102743000D01*
X191643000Y-101130280D01*
X191426930Y-101007780D01*
X191352723Y-101022740D01*
X190871974Y-101284370D01*
X190527941Y-101710059D01*
X190500000Y-101804723D01*
X190472059Y-101710059D01*
X190128026Y-101284370D01*
X189647277Y-101022740D01*
X189573070Y-101007780D01*
X189357000Y-101130280D01*
X189103000Y-101130280D01*
X189103000Y-101130280D01*
X188886930Y-101007780D01*
X188812723Y-101022740D01*
X188331974Y-101284370D01*
X187987941Y-101710059D01*
X187969330Y-101773113D01*
X187677828Y-101336851D01*
X187450000Y-101184621D01*
X187450000Y-100838000D01*
X187392148Y-100547161D01*
X187392148Y-100547160D01*
X187227401Y-100300599D01*
X185294496Y-98367694D01*
X195469226Y-98367694D01*
X195717538Y-98968655D01*
X196176927Y-99428846D01*
X196777453Y-99678206D01*
X197427694Y-99678774D01*
X198028655Y-99430462D01*
X198488846Y-98971073D01*
X198738206Y-98370547D01*
X198738774Y-97720306D01*
X198490462Y-97119345D01*
X198031073Y-96659154D01*
X197430547Y-96409794D01*
X196780306Y-96409226D01*
X196179345Y-96657538D01*
X195719154Y-97116927D01*
X195469794Y-97717453D01*
X195469226Y-98367694D01*
X185294496Y-98367694D01*
X184687401Y-97760599D01*
X184440839Y-97595852D01*
X184150000Y-97538000D01*
X175066802Y-97538000D01*
X170524552Y-92995750D01*
X173675000Y-92995750D01*
X173675000Y-93836309D01*
X173771673Y-94069698D01*
X173950301Y-94248327D01*
X174183690Y-94345000D01*
X174974250Y-94345000D01*
X175133000Y-94186250D01*
X175133000Y-92837000D01*
X173833750Y-92837000D01*
X173675000Y-92995750D01*
X170524552Y-92995750D01*
X170209401Y-92680599D01*
X169962839Y-92515852D01*
X169672000Y-92458000D01*
X160588802Y-92458000D01*
X159714493Y-91583691D01*
X173675000Y-91583691D01*
X173675000Y-92424250D01*
X173833750Y-92583000D01*
X175133000Y-92583000D01*
X175133000Y-91233750D01*
X175387000Y-91233750D01*
X175387000Y-92583000D01*
X175407000Y-92583000D01*
X175407000Y-92837000D01*
X175387000Y-92837000D01*
X175387000Y-94186250D01*
X175545750Y-94345000D01*
X176336310Y-94345000D01*
X176569699Y-94248327D01*
X176748327Y-94069698D01*
X176798012Y-93949749D01*
X176900997Y-94052914D01*
X177483341Y-94294724D01*
X178113893Y-94295275D01*
X178696657Y-94054481D01*
X179142914Y-93609003D01*
X179381802Y-93033694D01*
X181245226Y-93033694D01*
X181493538Y-93634655D01*
X181952927Y-94094846D01*
X182553453Y-94344206D01*
X183203694Y-94344774D01*
X183804655Y-94096462D01*
X184264846Y-93637073D01*
X184514206Y-93036547D01*
X184514208Y-93033694D01*
X191405226Y-93033694D01*
X191653538Y-93634655D01*
X192112927Y-94094846D01*
X192713453Y-94344206D01*
X193363694Y-94344774D01*
X193964655Y-94096462D01*
X194424846Y-93637073D01*
X194436496Y-93609016D01*
X202012590Y-93609016D01*
X202068271Y-93839611D01*
X202551078Y-94007622D01*
X203061428Y-93978083D01*
X203395729Y-93839611D01*
X203451410Y-93609016D01*
X202732000Y-92889605D01*
X202012590Y-93609016D01*
X194436496Y-93609016D01*
X194674206Y-93036547D01*
X194674649Y-92529078D01*
X201434378Y-92529078D01*
X201463917Y-93039428D01*
X201602389Y-93373729D01*
X201832984Y-93429410D01*
X202552395Y-92710000D01*
X202911605Y-92710000D01*
X203631016Y-93429410D01*
X203861611Y-93373729D01*
X203934560Y-93164098D01*
X203934560Y-93360000D01*
X203981537Y-93602123D01*
X204121327Y-93814927D01*
X204332360Y-93957377D01*
X204582000Y-94007440D01*
X205882000Y-94007440D01*
X206124123Y-93960463D01*
X206336927Y-93820673D01*
X206479377Y-93609640D01*
X206529440Y-93360000D01*
X206529440Y-92060000D01*
X206482463Y-91817877D01*
X206342673Y-91605073D01*
X206131640Y-91462623D01*
X205882000Y-91412560D01*
X204582000Y-91412560D01*
X204339877Y-91459537D01*
X204127073Y-91599327D01*
X203984623Y-91810360D01*
X203934560Y-92060000D01*
X203934560Y-92222385D01*
X203861611Y-92046271D01*
X203631016Y-91990590D01*
X202911605Y-92710000D01*
X202552395Y-92710000D01*
X202552395Y-92710000D01*
X201832984Y-91990590D01*
X201602389Y-92046271D01*
X201434378Y-92529078D01*
X194674649Y-92529078D01*
X194674774Y-92386306D01*
X194437056Y-91810984D01*
X202012590Y-91810984D01*
X202732000Y-92530395D01*
X203451410Y-91810984D01*
X203395729Y-91580389D01*
X202912922Y-91412378D01*
X202402572Y-91441917D01*
X202068271Y-91580389D01*
X202012590Y-91810984D01*
X194437056Y-91810984D01*
X194426462Y-91785345D01*
X193967073Y-91325154D01*
X193366547Y-91075794D01*
X192716306Y-91075226D01*
X192115345Y-91323538D01*
X191655154Y-91782927D01*
X191405794Y-92383453D01*
X191405226Y-93033694D01*
X184514208Y-93033694D01*
X184514774Y-92386306D01*
X184266462Y-91785345D01*
X183807073Y-91325154D01*
X183206547Y-91075794D01*
X182556306Y-91075226D01*
X181955345Y-91323538D01*
X181495154Y-91782927D01*
X181245794Y-92383453D01*
X181245226Y-93033694D01*
X179381802Y-93033694D01*
X179384724Y-93026659D01*
X179385275Y-92396107D01*
X179144481Y-91813343D01*
X178699003Y-91367086D01*
X178116659Y-91125276D01*
X177486107Y-91124725D01*
X176903343Y-91365519D01*
X176798133Y-91470545D01*
X176748327Y-91350302D01*
X176569699Y-91171673D01*
X176336310Y-91075000D01*
X175545750Y-91075000D01*
X175387000Y-91233750D01*
X175133000Y-91233750D01*
X175133000Y-91233750D01*
X174974250Y-91075000D01*
X174183690Y-91075000D01*
X173950301Y-91171673D01*
X173771673Y-91350302D01*
X173675000Y-91583691D01*
X159714493Y-91583691D01*
X155700000Y-87569198D01*
X155700000Y-86370086D01*
X156908269Y-86370086D01*
X157110854Y-86860380D01*
X157485647Y-87235827D01*
X157975587Y-87439268D01*
X158506086Y-87439731D01*
X158996380Y-87237146D01*
X159371827Y-86862353D01*
X159575268Y-86372413D01*
X159575731Y-85841914D01*
X159373146Y-85351620D01*
X158998353Y-84976173D01*
X158508413Y-84772732D01*
X157977914Y-84772269D01*
X157487620Y-84974854D01*
X157112173Y-85349647D01*
X156908732Y-85839587D01*
X156908269Y-86370086D01*
X155700000Y-86370086D01*
X155700000Y-85344000D01*
X155642148Y-85053161D01*
X155477401Y-84806599D01*
X151960888Y-81290086D01*
X156908269Y-81290086D01*
X157110854Y-81780380D01*
X157485647Y-82155827D01*
X157975587Y-82359268D01*
X158506086Y-82359731D01*
X158996380Y-82157146D01*
X159371827Y-81782353D01*
X159575268Y-81292413D01*
X159575731Y-80761914D01*
X159373146Y-80271620D01*
X158998353Y-79896173D01*
X158508413Y-79692732D01*
X157977914Y-79692269D01*
X157487620Y-79894854D01*
X157112173Y-80269647D01*
X156908732Y-80759587D01*
X156908269Y-81290086D01*
X151960888Y-81290086D01*
X151955275Y-81284473D01*
X151955731Y-80761914D01*
X151753146Y-80271620D01*
X151378353Y-79896173D01*
X150888413Y-79692732D01*
X150357914Y-79692269D01*
X149867620Y-79894854D01*
X149492173Y-80269647D01*
X149300000Y-80732451D01*
X149300000Y-78016477D01*
X149490854Y-78478380D01*
X149865647Y-78853827D01*
X150355587Y-79057268D01*
X150886086Y-79057731D01*
X151376380Y-78855146D01*
X151751827Y-78480353D01*
X151955268Y-77990413D01*
X151955270Y-77988086D01*
X156908269Y-77988086D01*
X157110854Y-78478380D01*
X157485647Y-78853827D01*
X157975587Y-79057268D01*
X158506086Y-79057731D01*
X158996380Y-78855146D01*
X159371827Y-78480353D01*
X159575268Y-77990413D01*
X159575731Y-77459914D01*
X159373146Y-76969620D01*
X159247908Y-76844163D01*
X161079443Y-76844163D01*
X161178042Y-77110965D01*
X161787582Y-77337401D01*
X162437377Y-77313341D01*
X162925958Y-77110965D01*
X163024557Y-76844163D01*
X165651443Y-76844163D01*
X165750042Y-77110965D01*
X166359582Y-77337401D01*
X167009377Y-77313341D01*
X167497958Y-77110965D01*
X167596557Y-76844163D01*
X166624000Y-75871605D01*
X165651443Y-76844163D01*
X163024557Y-76844163D01*
X163024557Y-76844163D01*
X162052000Y-75871605D01*
X161079443Y-76844163D01*
X159247908Y-76844163D01*
X158998353Y-76594173D01*
X158508413Y-76390732D01*
X157977914Y-76390269D01*
X157487620Y-76592854D01*
X157112173Y-76967647D01*
X156908732Y-77457587D01*
X156908269Y-77988086D01*
X151955270Y-77988086D01*
X151955731Y-77459914D01*
X151753146Y-76969620D01*
X151378353Y-76594173D01*
X150888413Y-76390732D01*
X150357914Y-76390269D01*
X149867620Y-76592854D01*
X149492173Y-76967647D01*
X149300000Y-77430451D01*
X149300000Y-75427582D01*
X160406599Y-75427582D01*
X160430659Y-76077377D01*
X160633035Y-76565958D01*
X160899837Y-76664557D01*
X161872395Y-75692000D01*
X162231605Y-75692000D01*
X163204163Y-76664557D01*
X163470965Y-76565958D01*
X163697401Y-75956418D01*
X163677820Y-75427582D01*
X164978599Y-75427582D01*
X165002659Y-76077377D01*
X165205035Y-76565958D01*
X165471837Y-76664557D01*
X166444395Y-75692000D01*
X166803605Y-75692000D01*
X167776163Y-76664557D01*
X168042965Y-76565958D01*
X168269401Y-75956418D01*
X168245341Y-75306623D01*
X168042965Y-74818042D01*
X167776163Y-74719443D01*
X166803605Y-75692000D01*
X166444395Y-75692000D01*
X166444395Y-75692000D01*
X165471837Y-74719443D01*
X165205035Y-74818042D01*
X164978599Y-75427582D01*
X163677820Y-75427582D01*
X163673341Y-75306623D01*
X163470965Y-74818042D01*
X163204163Y-74719443D01*
X162231605Y-75692000D01*
X161872395Y-75692000D01*
X161872395Y-75692000D01*
X160899837Y-74719443D01*
X160633035Y-74818042D01*
X160406599Y-75427582D01*
X149300000Y-75427582D01*
X149300000Y-74539837D01*
X161079443Y-74539837D01*
X162052000Y-75512395D01*
X163024557Y-74539837D01*
X165651443Y-74539837D01*
X166624000Y-75512395D01*
X167596557Y-74539837D01*
X167497958Y-74273035D01*
X166888418Y-74046599D01*
X166238623Y-74070659D01*
X165750042Y-74273035D01*
X165651443Y-74539837D01*
X163024557Y-74539837D01*
X163024557Y-74539837D01*
X162925958Y-74273035D01*
X162316418Y-74046599D01*
X161666623Y-74070659D01*
X161178042Y-74273035D01*
X161079443Y-74539837D01*
X149300000Y-74539837D01*
X149300000Y-72936477D01*
X149490854Y-73398380D01*
X149865647Y-73773827D01*
X150355587Y-73977268D01*
X150886086Y-73977731D01*
X151376380Y-73775146D01*
X151751827Y-73400353D01*
X151955268Y-72910413D01*
X151955270Y-72908086D01*
X156908269Y-72908086D01*
X157110854Y-73398380D01*
X157485647Y-73773827D01*
X157975587Y-73977268D01*
X158506086Y-73977731D01*
X158996380Y-73775146D01*
X159371827Y-73400353D01*
X159575268Y-72910413D01*
X159575731Y-72379914D01*
X159373146Y-71889620D01*
X158998353Y-71514173D01*
X158508413Y-71310732D01*
X157977914Y-71310269D01*
X157487620Y-71512854D01*
X157112173Y-71887647D01*
X156908732Y-72377587D01*
X156908269Y-72908086D01*
X151955270Y-72908086D01*
X151955731Y-72379914D01*
X151753146Y-71889620D01*
X151378353Y-71514173D01*
X150888413Y-71310732D01*
X150357914Y-71310269D01*
X149867620Y-71512854D01*
X149492173Y-71887647D01*
X149300000Y-72350451D01*
X149300000Y-69380477D01*
X149490854Y-69842380D01*
X149865647Y-70217827D01*
X150355587Y-70421268D01*
X150886086Y-70421731D01*
X151376380Y-70219146D01*
X151751827Y-69844353D01*
X151955268Y-69354413D01*
X151955270Y-69352086D01*
X156908269Y-69352086D01*
X157110854Y-69842380D01*
X157485647Y-70217827D01*
X157975587Y-70421268D01*
X158506086Y-70421731D01*
X158996380Y-70219146D01*
X159371827Y-69844353D01*
X159575268Y-69354413D01*
X159575731Y-68823914D01*
X159373146Y-68333620D01*
X158998353Y-67958173D01*
X158508413Y-67754732D01*
X157977914Y-67754269D01*
X157487620Y-67956854D01*
X157112173Y-68331647D01*
X156908732Y-68821587D01*
X156908269Y-69352086D01*
X151955270Y-69352086D01*
X151955731Y-68823914D01*
X151753146Y-68333620D01*
X151378353Y-67958173D01*
X150888413Y-67754732D01*
X150357914Y-67754269D01*
X149867620Y-67956854D01*
X149492173Y-68331647D01*
X149300000Y-68794451D01*
X149300000Y-64300477D01*
X149490854Y-64762380D01*
X149865647Y-65137827D01*
X150355587Y-65341268D01*
X150886086Y-65341731D01*
X151376380Y-65139146D01*
X151493730Y-65022000D01*
X157370022Y-65022000D01*
X157485647Y-65137827D01*
X157975587Y-65341268D01*
X158506086Y-65341731D01*
X158996380Y-65139146D01*
X159113730Y-65022000D01*
X180663504Y-65022000D01*
X180731538Y-65186655D01*
X180824720Y-65280000D01*
X171958000Y-65280000D01*
X171667161Y-65337852D01*
X171420599Y-65502599D01*
X168595198Y-68328000D01*
X168078496Y-68328000D01*
X168010462Y-68163345D01*
X167551073Y-67703154D01*
X166950547Y-67453794D01*
X166300306Y-67453226D01*
X165699345Y-67701538D01*
X165239154Y-68160927D01*
X164989794Y-68761453D01*
X164989226Y-69411694D01*
X164999598Y-69436796D01*
X164113401Y-68550599D01*
X163866839Y-68385852D01*
X163576000Y-68328000D01*
X163506496Y-68328000D01*
X163438462Y-68163345D01*
X162979073Y-67703154D01*
X162378547Y-67453794D01*
X161728306Y-67453226D01*
X161127345Y-67701538D01*
X160667154Y-68160927D01*
X160417794Y-68761453D01*
X160417226Y-69411694D01*
X160665538Y-70012655D01*
X161124927Y-70472846D01*
X161725453Y-70722206D01*
X162375694Y-70722774D01*
X162976655Y-70474462D01*
X163432555Y-70019357D01*
X164816599Y-71403401D01*
X165063161Y-71568148D01*
X165354000Y-71626000D01*
X168656000Y-71626000D01*
X168658497Y-71625503D01*
X168658000Y-71628000D01*
X168658000Y-76647198D01*
X166086599Y-79218599D01*
X165921852Y-79465161D01*
X165864000Y-79756000D01*
X165864000Y-84397504D01*
X165699345Y-84465538D01*
X165239154Y-84924927D01*
X164989794Y-85525453D01*
X164989226Y-86175694D01*
X165178448Y-86633646D01*
X163859401Y-85314599D01*
X163612839Y-85149852D01*
X163523018Y-85131985D01*
X163438462Y-84927345D01*
X162979073Y-84467154D01*
X162378547Y-84217794D01*
X161728306Y-84217226D01*
X161127345Y-84465538D01*
X160667154Y-84924927D01*
X160417794Y-85525453D01*
X160417226Y-86175694D01*
X160665538Y-86776655D01*
X161124927Y-87236846D01*
X161725453Y-87486206D01*
X162375694Y-87486774D01*
X162976655Y-87238462D01*
X163305444Y-86910246D01*
X164816599Y-88421401D01*
X165063161Y-88586148D01*
X165354000Y-88644000D01*
X167386000Y-88644000D01*
X167676839Y-88586148D01*
X167923401Y-88421401D01*
X168137108Y-88207694D01*
X195469226Y-88207694D01*
X195717538Y-88808655D01*
X196176927Y-89268846D01*
X196777453Y-89518206D01*
X197427694Y-89518774D01*
X198028655Y-89270462D01*
X198488846Y-88811073D01*
X198738206Y-88210547D01*
X198738774Y-87560306D01*
X198490462Y-86959345D01*
X198031073Y-86499154D01*
X197430547Y-86249794D01*
X196780306Y-86249226D01*
X196179345Y-86497538D01*
X195719154Y-86956927D01*
X195469794Y-87557453D01*
X195469226Y-88207694D01*
X168137108Y-88207694D01*
X171947108Y-84397694D01*
X204359226Y-84397694D01*
X204607538Y-84998655D01*
X205066927Y-85458846D01*
X205667453Y-85708206D01*
X206317694Y-85708774D01*
X206918655Y-85460462D01*
X207378846Y-85001073D01*
X207628206Y-84400547D01*
X207628208Y-84397694D01*
X208423226Y-84397694D01*
X208671538Y-84998655D01*
X209130927Y-85458846D01*
X209731453Y-85708206D01*
X210381694Y-85708774D01*
X210982655Y-85460462D01*
X211442846Y-85001073D01*
X211692206Y-84400547D01*
X211692774Y-83750306D01*
X211444462Y-83149345D01*
X210985073Y-82689154D01*
X210384547Y-82439794D01*
X209734306Y-82439226D01*
X209133345Y-82687538D01*
X208673154Y-83146927D01*
X208423794Y-83747453D01*
X208423226Y-84397694D01*
X207628208Y-84397694D01*
X207628774Y-83750306D01*
X207380462Y-83149345D01*
X206921073Y-82689154D01*
X206320547Y-82439794D01*
X205670306Y-82439226D01*
X205069345Y-82687538D01*
X204609154Y-83146927D01*
X204359794Y-83747453D01*
X204359226Y-84397694D01*
X171947108Y-84397694D01*
X172495401Y-83849401D01*
X172660148Y-83602840D01*
X172669746Y-83554586D01*
X172718000Y-83312000D01*
X172718000Y-74237694D01*
X204359226Y-74237694D01*
X204607538Y-74838655D01*
X205066927Y-75298846D01*
X205667453Y-75548206D01*
X206317694Y-75548774D01*
X206918655Y-75300462D01*
X207378846Y-74841073D01*
X207628206Y-74240547D01*
X207628208Y-74237694D01*
X208423226Y-74237694D01*
X208671538Y-74838655D01*
X209130927Y-75298846D01*
X209731453Y-75548206D01*
X210381694Y-75548774D01*
X210982655Y-75300462D01*
X211442846Y-74841073D01*
X211692206Y-74240547D01*
X211692774Y-73590306D01*
X211444462Y-72989345D01*
X210985073Y-72529154D01*
X210384547Y-72279794D01*
X209734306Y-72279226D01*
X209133345Y-72527538D01*
X208673154Y-72986927D01*
X208423794Y-73587453D01*
X208423226Y-74237694D01*
X207628208Y-74237694D01*
X207628774Y-73590306D01*
X207380462Y-72989345D01*
X206921073Y-72529154D01*
X206320547Y-72279794D01*
X205670306Y-72279226D01*
X205069345Y-72527538D01*
X204609154Y-72986927D01*
X204359794Y-73587453D01*
X204359226Y-74237694D01*
X172718000Y-74237694D01*
X172718000Y-70926802D01*
X174558802Y-69086000D01*
X183896000Y-69086000D01*
X184186839Y-69028148D01*
X184433401Y-68863401D01*
X190052802Y-63244000D01*
X190984240Y-63244000D01*
X190893154Y-63334927D01*
X190643794Y-63935453D01*
X190643226Y-64585694D01*
X190891538Y-65186655D01*
X190984720Y-65280000D01*
X190754000Y-65280000D01*
X190463161Y-65337852D01*
X190216599Y-65502599D01*
X188836320Y-66882878D01*
X188790833Y-66882838D01*
X188447057Y-67024883D01*
X188183808Y-67287673D01*
X188041162Y-67631201D01*
X188040838Y-68003167D01*
X188182883Y-68346943D01*
X188445673Y-68610192D01*
X188789201Y-68752838D01*
X189161167Y-68753162D01*
X189504943Y-68611117D01*
X189768192Y-68348327D01*
X189910838Y-68004799D01*
X189910879Y-67957923D01*
X191068802Y-66800000D01*
X198319537Y-66800000D01*
X198351673Y-66832192D01*
X198695201Y-66974838D01*
X199067167Y-66975162D01*
X199410943Y-66833117D01*
X199444118Y-66800000D01*
X205994000Y-66800000D01*
X206284839Y-66742148D01*
X206531401Y-66577401D01*
X207911680Y-65197122D01*
X207957167Y-65197162D01*
X208300943Y-65055117D01*
X208564192Y-64792327D01*
X208706838Y-64448799D01*
X208707162Y-64076833D01*
X208565117Y-63733057D01*
X208302327Y-63469808D01*
X207958799Y-63327162D01*
X207586833Y-63326838D01*
X207243057Y-63468883D01*
X206979808Y-63731673D01*
X206837162Y-64075201D01*
X206837121Y-64122077D01*
X205679198Y-65280000D01*
X199444463Y-65280000D01*
X199412327Y-65247808D01*
X199068799Y-65105162D01*
X198696833Y-65104838D01*
X198353057Y-65246883D01*
X198319882Y-65280000D01*
X193571760Y-65280000D01*
X193662846Y-65189073D01*
X193912206Y-64588547D01*
X193912774Y-63938306D01*
X193664462Y-63337345D01*
X193525343Y-63197983D01*
X193584839Y-63186148D01*
X193831401Y-63021401D01*
X197164802Y-59688000D01*
X203708000Y-59688000D01*
X203998839Y-59630148D01*
X204245401Y-59465401D01*
X207195349Y-56515453D01*
X207544609Y-56445981D01*
X207997828Y-56143149D01*
X208280000Y-55720850D01*
X208523670Y-56085528D01*
X201361198Y-63248000D01*
X198428463Y-63248000D01*
X198396327Y-63215808D01*
X198052799Y-63073162D01*
X197680833Y-63072838D01*
X197337057Y-63214883D01*
X197073808Y-63477673D01*
X196931162Y-63821201D01*
X196930838Y-64193167D01*
X197072883Y-64536943D01*
X197335673Y-64800192D01*
X197679201Y-64942838D01*
X198051167Y-64943162D01*
X198394943Y-64801117D01*
X198428118Y-64768000D01*
X201676000Y-64768000D01*
X201966839Y-64710148D01*
X202213401Y-64545401D01*
X210087401Y-56671401D01*
X210252148Y-56424839D01*
X210272979Y-56320116D01*
X210537828Y-56143149D01*
X210820000Y-55720850D01*
X211102172Y-56143149D01*
X211555391Y-56445981D01*
X212090000Y-56552321D01*
X212624609Y-56445981D01*
X213077828Y-56143149D01*
X213380660Y-55689930D01*
X213487000Y-55155321D01*
X213487000Y-54064679D01*
X213380660Y-53530070D01*
X213077828Y-53076851D01*
X212633560Y-52780000D01*
X213065908Y-52780000D01*
X214127954Y-53842046D01*
X214127954Y-53842046D01*
G37*
X214127954Y-53842046D02*
X214358295Y-53995954D01*
X214630000Y-54050000D01*
X214901705Y-53995954D01*
X215132046Y-53842046D01*
X215285954Y-53611705D01*
X215340000Y-53340000D01*
X215285954Y-53068295D01*
X215132046Y-52837954D01*
X215074092Y-52780000D01*
X216460000Y-52780000D01*
X216460000Y-67998074D01*
X216106690Y-67644147D01*
X215150140Y-67246953D01*
X214114404Y-67246049D01*
X213157162Y-67641573D01*
X212424147Y-68373310D01*
X212026953Y-69329860D01*
X212026049Y-70365596D01*
X212421573Y-71322838D01*
X213153310Y-72055853D01*
X214109860Y-72453047D01*
X215145596Y-72453951D01*
X216102838Y-72058427D01*
X216460000Y-71701888D01*
X216460000Y-95938074D01*
X216106690Y-95584147D01*
X215150140Y-95186953D01*
X214114404Y-95186049D01*
X213157162Y-95581573D01*
X212424147Y-96313310D01*
X212026953Y-97269860D01*
X212026049Y-98305596D01*
X212421573Y-99262838D01*
X213153310Y-99995853D01*
X214109860Y-100393047D01*
X215145596Y-100393951D01*
X216102838Y-99998427D01*
X216460000Y-99641888D01*
X216460000Y-104700000D01*
X212633560Y-104700000D01*
X213077828Y-104403149D01*
X213380660Y-103949930D01*
X213487000Y-103415321D01*
X213487000Y-102324679D01*
X213380660Y-101790070D01*
X213077828Y-101336851D01*
X212624609Y-101034019D01*
X212090000Y-100927679D01*
X211555391Y-101034019D01*
X211102172Y-101336851D01*
X210820000Y-101759150D01*
X210537828Y-101336851D01*
X210084609Y-101034019D01*
X209550000Y-100927679D01*
X209015391Y-101034019D01*
X208562172Y-101336851D01*
X208280000Y-101759150D01*
X207997828Y-101336851D01*
X207544609Y-101034019D01*
X207010000Y-100927679D01*
X206475391Y-101034019D01*
X206022172Y-101336851D01*
X205740000Y-101759150D01*
X205457828Y-101336851D01*
X205004609Y-101034019D01*
X204470000Y-100927679D01*
X203935391Y-101034019D01*
X203482172Y-101336851D01*
X203200000Y-101759150D01*
X202917828Y-101336851D01*
X202464609Y-101034019D01*
X201930000Y-100927679D01*
X201395391Y-101034019D01*
X200942172Y-101336851D01*
X200660000Y-101759150D01*
X200377828Y-101336851D01*
X199924609Y-101034019D01*
X199390000Y-100927679D01*
X198855391Y-101034019D01*
X198402172Y-101336851D01*
X198099340Y-101790070D01*
X197993000Y-102324679D01*
X197993000Y-103415321D01*
X198099340Y-103949930D01*
X198402172Y-104403149D01*
X198846440Y-104700000D01*
X196891253Y-104700000D01*
X194864918Y-104692411D01*
X195297828Y-104403149D01*
X195600660Y-103949930D01*
X195707000Y-103415321D01*
X195707000Y-102324679D01*
X195600660Y-101790070D01*
X195297828Y-101336851D01*
X194844609Y-101034019D01*
X194310000Y-100927679D01*
X193775391Y-101034019D01*
X193322172Y-101336851D01*
X193030670Y-101773113D01*
X193012059Y-101710059D01*
X192668026Y-101284370D01*
X192187277Y-101022740D01*
X192113070Y-101007780D01*
X191897000Y-101130280D01*
X191897000Y-102743000D01*
X191917000Y-102743000D01*
X191917000Y-102997000D01*
X191897000Y-102997000D01*
X191897000Y-103017000D01*
X191643000Y-103017000D01*
X191643000Y-102997000D01*
X189357000Y-102997000D01*
X189357000Y-103017000D01*
X189103000Y-103017000D01*
X189103000Y-102997000D01*
X189083000Y-102997000D01*
X189083000Y-102743000D01*
X189103000Y-102743000D01*
X189103000Y-101130280D01*
X189357000Y-101130280D01*
X189357000Y-102743000D01*
X191643000Y-102743000D01*
X191643000Y-101130280D01*
X191426930Y-101007780D01*
X191352723Y-101022740D01*
X190871974Y-101284370D01*
X190527941Y-101710059D01*
X190500000Y-101804723D01*
X190472059Y-101710059D01*
X190128026Y-101284370D01*
X189647277Y-101022740D01*
X189573070Y-101007780D01*
X189357000Y-101130280D01*
X189103000Y-101130280D01*
X189103000Y-101130280D01*
X188886930Y-101007780D01*
X188812723Y-101022740D01*
X188331974Y-101284370D01*
X187987941Y-101710059D01*
X187969330Y-101773113D01*
X187677828Y-101336851D01*
X187450000Y-101184621D01*
X187450000Y-100838000D01*
X187392148Y-100547161D01*
X187392148Y-100547160D01*
X187227401Y-100300599D01*
X185294496Y-98367694D01*
X195469226Y-98367694D01*
X195717538Y-98968655D01*
X196176927Y-99428846D01*
X196777453Y-99678206D01*
X197427694Y-99678774D01*
X198028655Y-99430462D01*
X198488846Y-98971073D01*
X198738206Y-98370547D01*
X198738774Y-97720306D01*
X198490462Y-97119345D01*
X198031073Y-96659154D01*
X197430547Y-96409794D01*
X196780306Y-96409226D01*
X196179345Y-96657538D01*
X195719154Y-97116927D01*
X195469794Y-97717453D01*
X195469226Y-98367694D01*
X185294496Y-98367694D01*
X184687401Y-97760599D01*
X184440839Y-97595852D01*
X184150000Y-97538000D01*
X175066802Y-97538000D01*
X170524552Y-92995750D01*
X173675000Y-92995750D01*
X173675000Y-93836309D01*
X173771673Y-94069698D01*
X173950301Y-94248327D01*
X174183690Y-94345000D01*
X174974250Y-94345000D01*
X175133000Y-94186250D01*
X175133000Y-92837000D01*
X173833750Y-92837000D01*
X173675000Y-92995750D01*
X170524552Y-92995750D01*
X170209401Y-92680599D01*
X169962839Y-92515852D01*
X169672000Y-92458000D01*
X160588802Y-92458000D01*
X159714493Y-91583691D01*
X173675000Y-91583691D01*
X173675000Y-92424250D01*
X173833750Y-92583000D01*
X175133000Y-92583000D01*
X175133000Y-91233750D01*
X175387000Y-91233750D01*
X175387000Y-92583000D01*
X175407000Y-92583000D01*
X175407000Y-92837000D01*
X175387000Y-92837000D01*
X175387000Y-94186250D01*
X175545750Y-94345000D01*
X176336310Y-94345000D01*
X176569699Y-94248327D01*
X176748327Y-94069698D01*
X176798012Y-93949749D01*
X176900997Y-94052914D01*
X177483341Y-94294724D01*
X178113893Y-94295275D01*
X178696657Y-94054481D01*
X179142914Y-93609003D01*
X179381802Y-93033694D01*
X181245226Y-93033694D01*
X181493538Y-93634655D01*
X181952927Y-94094846D01*
X182553453Y-94344206D01*
X183203694Y-94344774D01*
X183804655Y-94096462D01*
X184264846Y-93637073D01*
X184514206Y-93036547D01*
X184514208Y-93033694D01*
X191405226Y-93033694D01*
X191653538Y-93634655D01*
X192112927Y-94094846D01*
X192713453Y-94344206D01*
X193363694Y-94344774D01*
X193964655Y-94096462D01*
X194424846Y-93637073D01*
X194436496Y-93609016D01*
X202012590Y-93609016D01*
X202068271Y-93839611D01*
X202551078Y-94007622D01*
X203061428Y-93978083D01*
X203395729Y-93839611D01*
X203451410Y-93609016D01*
X202732000Y-92889605D01*
X202012590Y-93609016D01*
X194436496Y-93609016D01*
X194674206Y-93036547D01*
X194674649Y-92529078D01*
X201434378Y-92529078D01*
X201463917Y-93039428D01*
X201602389Y-93373729D01*
X201832984Y-93429410D01*
X202552395Y-92710000D01*
X202911605Y-92710000D01*
X203631016Y-93429410D01*
X203861611Y-93373729D01*
X203934560Y-93164098D01*
X203934560Y-93360000D01*
X203981537Y-93602123D01*
X204121327Y-93814927D01*
X204332360Y-93957377D01*
X204582000Y-94007440D01*
X205882000Y-94007440D01*
X206124123Y-93960463D01*
X206336927Y-93820673D01*
X206479377Y-93609640D01*
X206529440Y-93360000D01*
X206529440Y-92060000D01*
X206482463Y-91817877D01*
X206342673Y-91605073D01*
X206131640Y-91462623D01*
X205882000Y-91412560D01*
X204582000Y-91412560D01*
X204339877Y-91459537D01*
X204127073Y-91599327D01*
X203984623Y-91810360D01*
X203934560Y-92060000D01*
X203934560Y-92222385D01*
X203861611Y-92046271D01*
X203631016Y-91990590D01*
X202911605Y-92710000D01*
X202552395Y-92710000D01*
X202552395Y-92710000D01*
X201832984Y-91990590D01*
X201602389Y-92046271D01*
X201434378Y-92529078D01*
X194674649Y-92529078D01*
X194674774Y-92386306D01*
X194437056Y-91810984D01*
X202012590Y-91810984D01*
X202732000Y-92530395D01*
X203451410Y-91810984D01*
X203395729Y-91580389D01*
X202912922Y-91412378D01*
X202402572Y-91441917D01*
X202068271Y-91580389D01*
X202012590Y-91810984D01*
X194437056Y-91810984D01*
X194426462Y-91785345D01*
X193967073Y-91325154D01*
X193366547Y-91075794D01*
X192716306Y-91075226D01*
X192115345Y-91323538D01*
X191655154Y-91782927D01*
X191405794Y-92383453D01*
X191405226Y-93033694D01*
X184514208Y-93033694D01*
X184514774Y-92386306D01*
X184266462Y-91785345D01*
X183807073Y-91325154D01*
X183206547Y-91075794D01*
X182556306Y-91075226D01*
X181955345Y-91323538D01*
X181495154Y-91782927D01*
X181245794Y-92383453D01*
X181245226Y-93033694D01*
X179381802Y-93033694D01*
X179384724Y-93026659D01*
X179385275Y-92396107D01*
X179144481Y-91813343D01*
X178699003Y-91367086D01*
X178116659Y-91125276D01*
X177486107Y-91124725D01*
X176903343Y-91365519D01*
X176798133Y-91470545D01*
X176748327Y-91350302D01*
X176569699Y-91171673D01*
X176336310Y-91075000D01*
X175545750Y-91075000D01*
X175387000Y-91233750D01*
X175133000Y-91233750D01*
X175133000Y-91233750D01*
X174974250Y-91075000D01*
X174183690Y-91075000D01*
X173950301Y-91171673D01*
X173771673Y-91350302D01*
X173675000Y-91583691D01*
X159714493Y-91583691D01*
X155700000Y-87569198D01*
X155700000Y-86370086D01*
X156908269Y-86370086D01*
X157110854Y-86860380D01*
X157485647Y-87235827D01*
X157975587Y-87439268D01*
X158506086Y-87439731D01*
X158996380Y-87237146D01*
X159371827Y-86862353D01*
X159575268Y-86372413D01*
X159575731Y-85841914D01*
X159373146Y-85351620D01*
X158998353Y-84976173D01*
X158508413Y-84772732D01*
X157977914Y-84772269D01*
X157487620Y-84974854D01*
X157112173Y-85349647D01*
X156908732Y-85839587D01*
X156908269Y-86370086D01*
X155700000Y-86370086D01*
X155700000Y-85344000D01*
X155642148Y-85053161D01*
X155477401Y-84806599D01*
X151960888Y-81290086D01*
X156908269Y-81290086D01*
X157110854Y-81780380D01*
X157485647Y-82155827D01*
X157975587Y-82359268D01*
X158506086Y-82359731D01*
X158996380Y-82157146D01*
X159371827Y-81782353D01*
X159575268Y-81292413D01*
X159575731Y-80761914D01*
X159373146Y-80271620D01*
X158998353Y-79896173D01*
X158508413Y-79692732D01*
X157977914Y-79692269D01*
X157487620Y-79894854D01*
X157112173Y-80269647D01*
X156908732Y-80759587D01*
X156908269Y-81290086D01*
X151960888Y-81290086D01*
X151955275Y-81284473D01*
X151955731Y-80761914D01*
X151753146Y-80271620D01*
X151378353Y-79896173D01*
X150888413Y-79692732D01*
X150357914Y-79692269D01*
X149867620Y-79894854D01*
X149492173Y-80269647D01*
X149300000Y-80732451D01*
X149300000Y-78016477D01*
X149490854Y-78478380D01*
X149865647Y-78853827D01*
X150355587Y-79057268D01*
X150886086Y-79057731D01*
X151376380Y-78855146D01*
X151751827Y-78480353D01*
X151955268Y-77990413D01*
X151955270Y-77988086D01*
X156908269Y-77988086D01*
X157110854Y-78478380D01*
X157485647Y-78853827D01*
X157975587Y-79057268D01*
X158506086Y-79057731D01*
X158996380Y-78855146D01*
X159371827Y-78480353D01*
X159575268Y-77990413D01*
X159575731Y-77459914D01*
X159373146Y-76969620D01*
X159247908Y-76844163D01*
X161079443Y-76844163D01*
X161178042Y-77110965D01*
X161787582Y-77337401D01*
X162437377Y-77313341D01*
X162925958Y-77110965D01*
X163024557Y-76844163D01*
X165651443Y-76844163D01*
X165750042Y-77110965D01*
X166359582Y-77337401D01*
X167009377Y-77313341D01*
X167497958Y-77110965D01*
X167596557Y-76844163D01*
X166624000Y-75871605D01*
X165651443Y-76844163D01*
X163024557Y-76844163D01*
X163024557Y-76844163D01*
X162052000Y-75871605D01*
X161079443Y-76844163D01*
X159247908Y-76844163D01*
X158998353Y-76594173D01*
X158508413Y-76390732D01*
X157977914Y-76390269D01*
X157487620Y-76592854D01*
X157112173Y-76967647D01*
X156908732Y-77457587D01*
X156908269Y-77988086D01*
X151955270Y-77988086D01*
X151955731Y-77459914D01*
X151753146Y-76969620D01*
X151378353Y-76594173D01*
X150888413Y-76390732D01*
X150357914Y-76390269D01*
X149867620Y-76592854D01*
X149492173Y-76967647D01*
X149300000Y-77430451D01*
X149300000Y-75427582D01*
X160406599Y-75427582D01*
X160430659Y-76077377D01*
X160633035Y-76565958D01*
X160899837Y-76664557D01*
X161872395Y-75692000D01*
X162231605Y-75692000D01*
X163204163Y-76664557D01*
X163470965Y-76565958D01*
X163697401Y-75956418D01*
X163677820Y-75427582D01*
X164978599Y-75427582D01*
X165002659Y-76077377D01*
X165205035Y-76565958D01*
X165471837Y-76664557D01*
X166444395Y-75692000D01*
X166803605Y-75692000D01*
X167776163Y-76664557D01*
X168042965Y-76565958D01*
X168269401Y-75956418D01*
X168245341Y-75306623D01*
X168042965Y-74818042D01*
X167776163Y-74719443D01*
X166803605Y-75692000D01*
X166444395Y-75692000D01*
X166444395Y-75692000D01*
X165471837Y-74719443D01*
X165205035Y-74818042D01*
X164978599Y-75427582D01*
X163677820Y-75427582D01*
X163673341Y-75306623D01*
X163470965Y-74818042D01*
X163204163Y-74719443D01*
X162231605Y-75692000D01*
X161872395Y-75692000D01*
X161872395Y-75692000D01*
X160899837Y-74719443D01*
X160633035Y-74818042D01*
X160406599Y-75427582D01*
X149300000Y-75427582D01*
X149300000Y-74539837D01*
X161079443Y-74539837D01*
X162052000Y-75512395D01*
X163024557Y-74539837D01*
X165651443Y-74539837D01*
X166624000Y-75512395D01*
X167596557Y-74539837D01*
X167497958Y-74273035D01*
X166888418Y-74046599D01*
X166238623Y-74070659D01*
X165750042Y-74273035D01*
X165651443Y-74539837D01*
X163024557Y-74539837D01*
X163024557Y-74539837D01*
X162925958Y-74273035D01*
X162316418Y-74046599D01*
X161666623Y-74070659D01*
X161178042Y-74273035D01*
X161079443Y-74539837D01*
X149300000Y-74539837D01*
X149300000Y-72936477D01*
X149490854Y-73398380D01*
X149865647Y-73773827D01*
X150355587Y-73977268D01*
X150886086Y-73977731D01*
X151376380Y-73775146D01*
X151751827Y-73400353D01*
X151955268Y-72910413D01*
X151955270Y-72908086D01*
X156908269Y-72908086D01*
X157110854Y-73398380D01*
X157485647Y-73773827D01*
X157975587Y-73977268D01*
X158506086Y-73977731D01*
X158996380Y-73775146D01*
X159371827Y-73400353D01*
X159575268Y-72910413D01*
X159575731Y-72379914D01*
X159373146Y-71889620D01*
X158998353Y-71514173D01*
X158508413Y-71310732D01*
X157977914Y-71310269D01*
X157487620Y-71512854D01*
X157112173Y-71887647D01*
X156908732Y-72377587D01*
X156908269Y-72908086D01*
X151955270Y-72908086D01*
X151955731Y-72379914D01*
X151753146Y-71889620D01*
X151378353Y-71514173D01*
X150888413Y-71310732D01*
X150357914Y-71310269D01*
X149867620Y-71512854D01*
X149492173Y-71887647D01*
X149300000Y-72350451D01*
X149300000Y-69380477D01*
X149490854Y-69842380D01*
X149865647Y-70217827D01*
X150355587Y-70421268D01*
X150886086Y-70421731D01*
X151376380Y-70219146D01*
X151751827Y-69844353D01*
X151955268Y-69354413D01*
X151955270Y-69352086D01*
X156908269Y-69352086D01*
X157110854Y-69842380D01*
X157485647Y-70217827D01*
X157975587Y-70421268D01*
X158506086Y-70421731D01*
X158996380Y-70219146D01*
X159371827Y-69844353D01*
X159575268Y-69354413D01*
X159575731Y-68823914D01*
X159373146Y-68333620D01*
X158998353Y-67958173D01*
X158508413Y-67754732D01*
X157977914Y-67754269D01*
X157487620Y-67956854D01*
X157112173Y-68331647D01*
X156908732Y-68821587D01*
X156908269Y-69352086D01*
X151955270Y-69352086D01*
X151955731Y-68823914D01*
X151753146Y-68333620D01*
X151378353Y-67958173D01*
X150888413Y-67754732D01*
X150357914Y-67754269D01*
X149867620Y-67956854D01*
X149492173Y-68331647D01*
X149300000Y-68794451D01*
X149300000Y-64300477D01*
X149490854Y-64762380D01*
X149865647Y-65137827D01*
X150355587Y-65341268D01*
X150886086Y-65341731D01*
X151376380Y-65139146D01*
X151493730Y-65022000D01*
X157370022Y-65022000D01*
X157485647Y-65137827D01*
X157975587Y-65341268D01*
X158506086Y-65341731D01*
X158996380Y-65139146D01*
X159113730Y-65022000D01*
X180663504Y-65022000D01*
X180731538Y-65186655D01*
X180824720Y-65280000D01*
X171958000Y-65280000D01*
X171667161Y-65337852D01*
X171420599Y-65502599D01*
X168595198Y-68328000D01*
X168078496Y-68328000D01*
X168010462Y-68163345D01*
X167551073Y-67703154D01*
X166950547Y-67453794D01*
X166300306Y-67453226D01*
X165699345Y-67701538D01*
X165239154Y-68160927D01*
X164989794Y-68761453D01*
X164989226Y-69411694D01*
X164999598Y-69436796D01*
X164113401Y-68550599D01*
X163866839Y-68385852D01*
X163576000Y-68328000D01*
X163506496Y-68328000D01*
X163438462Y-68163345D01*
X162979073Y-67703154D01*
X162378547Y-67453794D01*
X161728306Y-67453226D01*
X161127345Y-67701538D01*
X160667154Y-68160927D01*
X160417794Y-68761453D01*
X160417226Y-69411694D01*
X160665538Y-70012655D01*
X161124927Y-70472846D01*
X161725453Y-70722206D01*
X162375694Y-70722774D01*
X162976655Y-70474462D01*
X163432555Y-70019357D01*
X164816599Y-71403401D01*
X165063161Y-71568148D01*
X165354000Y-71626000D01*
X168656000Y-71626000D01*
X168658497Y-71625503D01*
X168658000Y-71628000D01*
X168658000Y-76647198D01*
X166086599Y-79218599D01*
X165921852Y-79465161D01*
X165864000Y-79756000D01*
X165864000Y-84397504D01*
X165699345Y-84465538D01*
X165239154Y-84924927D01*
X164989794Y-85525453D01*
X164989226Y-86175694D01*
X165178448Y-86633646D01*
X163859401Y-85314599D01*
X163612839Y-85149852D01*
X163523018Y-85131985D01*
X163438462Y-84927345D01*
X162979073Y-84467154D01*
X162378547Y-84217794D01*
X161728306Y-84217226D01*
X161127345Y-84465538D01*
X160667154Y-84924927D01*
X160417794Y-85525453D01*
X160417226Y-86175694D01*
X160665538Y-86776655D01*
X161124927Y-87236846D01*
X161725453Y-87486206D01*
X162375694Y-87486774D01*
X162976655Y-87238462D01*
X163305444Y-86910246D01*
X164816599Y-88421401D01*
X165063161Y-88586148D01*
X165354000Y-88644000D01*
X167386000Y-88644000D01*
X167676839Y-88586148D01*
X167923401Y-88421401D01*
X168137108Y-88207694D01*
X195469226Y-88207694D01*
X195717538Y-88808655D01*
X196176927Y-89268846D01*
X196777453Y-89518206D01*
X197427694Y-89518774D01*
X198028655Y-89270462D01*
X198488846Y-88811073D01*
X198738206Y-88210547D01*
X198738774Y-87560306D01*
X198490462Y-86959345D01*
X198031073Y-86499154D01*
X197430547Y-86249794D01*
X196780306Y-86249226D01*
X196179345Y-86497538D01*
X195719154Y-86956927D01*
X195469794Y-87557453D01*
X195469226Y-88207694D01*
X168137108Y-88207694D01*
X171947108Y-84397694D01*
X204359226Y-84397694D01*
X204607538Y-84998655D01*
X205066927Y-85458846D01*
X205667453Y-85708206D01*
X206317694Y-85708774D01*
X206918655Y-85460462D01*
X207378846Y-85001073D01*
X207628206Y-84400547D01*
X207628208Y-84397694D01*
X208423226Y-84397694D01*
X208671538Y-84998655D01*
X209130927Y-85458846D01*
X209731453Y-85708206D01*
X210381694Y-85708774D01*
X210982655Y-85460462D01*
X211442846Y-85001073D01*
X211692206Y-84400547D01*
X211692774Y-83750306D01*
X211444462Y-83149345D01*
X210985073Y-82689154D01*
X210384547Y-82439794D01*
X209734306Y-82439226D01*
X209133345Y-82687538D01*
X208673154Y-83146927D01*
X208423794Y-83747453D01*
X208423226Y-84397694D01*
X207628208Y-84397694D01*
X207628774Y-83750306D01*
X207380462Y-83149345D01*
X206921073Y-82689154D01*
X206320547Y-82439794D01*
X205670306Y-82439226D01*
X205069345Y-82687538D01*
X204609154Y-83146927D01*
X204359794Y-83747453D01*
X204359226Y-84397694D01*
X171947108Y-84397694D01*
X172495401Y-83849401D01*
X172660148Y-83602840D01*
X172669746Y-83554586D01*
X172718000Y-83312000D01*
X172718000Y-74237694D01*
X204359226Y-74237694D01*
X204607538Y-74838655D01*
X205066927Y-75298846D01*
X205667453Y-75548206D01*
X206317694Y-75548774D01*
X206918655Y-75300462D01*
X207378846Y-74841073D01*
X207628206Y-74240547D01*
X207628208Y-74237694D01*
X208423226Y-74237694D01*
X208671538Y-74838655D01*
X209130927Y-75298846D01*
X209731453Y-75548206D01*
X210381694Y-75548774D01*
X210982655Y-75300462D01*
X211442846Y-74841073D01*
X211692206Y-74240547D01*
X211692774Y-73590306D01*
X211444462Y-72989345D01*
X210985073Y-72529154D01*
X210384547Y-72279794D01*
X209734306Y-72279226D01*
X209133345Y-72527538D01*
X208673154Y-72986927D01*
X208423794Y-73587453D01*
X208423226Y-74237694D01*
X207628208Y-74237694D01*
X207628774Y-73590306D01*
X207380462Y-72989345D01*
X206921073Y-72529154D01*
X206320547Y-72279794D01*
X205670306Y-72279226D01*
X205069345Y-72527538D01*
X204609154Y-72986927D01*
X204359794Y-73587453D01*
X204359226Y-74237694D01*
X172718000Y-74237694D01*
X172718000Y-70926802D01*
X174558802Y-69086000D01*
X183896000Y-69086000D01*
X184186839Y-69028148D01*
X184433401Y-68863401D01*
X190052802Y-63244000D01*
X190984240Y-63244000D01*
X190893154Y-63334927D01*
X190643794Y-63935453D01*
X190643226Y-64585694D01*
X190891538Y-65186655D01*
X190984720Y-65280000D01*
X190754000Y-65280000D01*
X190463161Y-65337852D01*
X190216599Y-65502599D01*
X188836320Y-66882878D01*
X188790833Y-66882838D01*
X188447057Y-67024883D01*
X188183808Y-67287673D01*
X188041162Y-67631201D01*
X188040838Y-68003167D01*
X188182883Y-68346943D01*
X188445673Y-68610192D01*
X188789201Y-68752838D01*
X189161167Y-68753162D01*
X189504943Y-68611117D01*
X189768192Y-68348327D01*
X189910838Y-68004799D01*
X189910879Y-67957923D01*
X191068802Y-66800000D01*
X198319537Y-66800000D01*
X198351673Y-66832192D01*
X198695201Y-66974838D01*
X199067167Y-66975162D01*
X199410943Y-66833117D01*
X199444118Y-66800000D01*
X205994000Y-66800000D01*
X206284839Y-66742148D01*
X206531401Y-66577401D01*
X207911680Y-65197122D01*
X207957167Y-65197162D01*
X208300943Y-65055117D01*
X208564192Y-64792327D01*
X208706838Y-64448799D01*
X208707162Y-64076833D01*
X208565117Y-63733057D01*
X208302327Y-63469808D01*
X207958799Y-63327162D01*
X207586833Y-63326838D01*
X207243057Y-63468883D01*
X206979808Y-63731673D01*
X206837162Y-64075201D01*
X206837121Y-64122077D01*
X205679198Y-65280000D01*
X199444463Y-65280000D01*
X199412327Y-65247808D01*
X199068799Y-65105162D01*
X198696833Y-65104838D01*
X198353057Y-65246883D01*
X198319882Y-65280000D01*
X193571760Y-65280000D01*
X193662846Y-65189073D01*
X193912206Y-64588547D01*
X193912774Y-63938306D01*
X193664462Y-63337345D01*
X193525343Y-63197983D01*
X193584839Y-63186148D01*
X193831401Y-63021401D01*
X197164802Y-59688000D01*
X203708000Y-59688000D01*
X203998839Y-59630148D01*
X204245401Y-59465401D01*
X207195349Y-56515453D01*
X207544609Y-56445981D01*
X207997828Y-56143149D01*
X208280000Y-55720850D01*
X208523670Y-56085528D01*
X201361198Y-63248000D01*
X198428463Y-63248000D01*
X198396327Y-63215808D01*
X198052799Y-63073162D01*
X197680833Y-63072838D01*
X197337057Y-63214883D01*
X197073808Y-63477673D01*
X196931162Y-63821201D01*
X196930838Y-64193167D01*
X197072883Y-64536943D01*
X197335673Y-64800192D01*
X197679201Y-64942838D01*
X198051167Y-64943162D01*
X198394943Y-64801117D01*
X198428118Y-64768000D01*
X201676000Y-64768000D01*
X201966839Y-64710148D01*
X202213401Y-64545401D01*
X210087401Y-56671401D01*
X210252148Y-56424839D01*
X210272979Y-56320116D01*
X210537828Y-56143149D01*
X210820000Y-55720850D01*
X211102172Y-56143149D01*
X211555391Y-56445981D01*
X212090000Y-56552321D01*
X212624609Y-56445981D01*
X213077828Y-56143149D01*
X213380660Y-55689930D01*
X213487000Y-55155321D01*
X213487000Y-54064679D01*
X213380660Y-53530070D01*
X213077828Y-53076851D01*
X212633560Y-52780000D01*
X213065908Y-52780000D01*
X214127954Y-53842046D01*
G36*
X149490854Y-81780380D02*
X149865647Y-82155827D01*
X150355587Y-82359268D01*
X150880924Y-82359726D01*
X154180000Y-85658802D01*
X154180000Y-87884000D01*
X154237852Y-88174839D01*
X154402599Y-88421401D01*
X159736599Y-93755401D01*
X159983161Y-93920148D01*
X160274000Y-93978000D01*
X169357198Y-93978000D01*
X174214599Y-98835401D01*
X174461161Y-99000148D01*
X174752000Y-99058000D01*
X183835198Y-99058000D01*
X185930000Y-101152802D01*
X185930000Y-101184621D01*
X185702172Y-101336851D01*
X185420000Y-101759150D01*
X185137828Y-101336851D01*
X184684609Y-101034019D01*
X184150000Y-100927679D01*
X183615391Y-101034019D01*
X183162172Y-101336851D01*
X182880000Y-101759150D01*
X182597828Y-101336851D01*
X182144609Y-101034019D01*
X181610000Y-100927679D01*
X181075391Y-101034019D01*
X180622172Y-101336851D01*
X180319340Y-101790070D01*
X180213000Y-102324679D01*
X180213000Y-103415321D01*
X180319340Y-103949930D01*
X180622172Y-104403149D01*
X180977238Y-104640397D01*
X164533329Y-104578809D01*
X164765853Y-104346690D01*
X165163047Y-103390140D01*
X165163951Y-102354404D01*
X164768427Y-101397162D01*
X164036690Y-100664147D01*
X163080140Y-100266953D01*
X162044404Y-100266049D01*
X161087162Y-100661573D01*
X160354147Y-101393310D01*
X159956953Y-102349860D01*
X159956049Y-103385596D01*
X160351573Y-104342838D01*
X160572323Y-104563974D01*
X149300000Y-104521755D01*
X149300000Y-102788188D01*
X149867417Y-102788188D01*
X149929071Y-103023800D01*
X150429480Y-103199927D01*
X150959199Y-103171148D01*
X151314929Y-103023800D01*
X151376583Y-102788188D01*
X157487417Y-102788188D01*
X157549071Y-103023800D01*
X158049480Y-103199927D01*
X158579199Y-103171148D01*
X158934929Y-103023800D01*
X158996583Y-102788188D01*
X158242000Y-102033605D01*
X157487417Y-102788188D01*
X151376583Y-102788188D01*
X151376583Y-102788188D01*
X150622000Y-102033605D01*
X149867417Y-102788188D01*
X149300000Y-102788188D01*
X149300000Y-102101891D01*
X149304852Y-102191199D01*
X149452200Y-102546929D01*
X149687812Y-102608583D01*
X150442395Y-101854000D01*
X150801605Y-101854000D01*
X151556188Y-102608583D01*
X151791800Y-102546929D01*
X151967927Y-102046520D01*
X151947009Y-101661480D01*
X156896073Y-101661480D01*
X156924852Y-102191199D01*
X157072200Y-102546929D01*
X157307812Y-102608583D01*
X158062395Y-101854000D01*
X158421605Y-101854000D01*
X159176188Y-102608583D01*
X159411800Y-102546929D01*
X159587927Y-102046520D01*
X159559148Y-101516801D01*
X159411800Y-101161071D01*
X159176188Y-101099417D01*
X158421605Y-101854000D01*
X158062395Y-101854000D01*
X158062395Y-101854000D01*
X157307812Y-101099417D01*
X157072200Y-101161071D01*
X156896073Y-101661480D01*
X151947009Y-101661480D01*
X151939148Y-101516801D01*
X151791800Y-101161071D01*
X151556188Y-101099417D01*
X150801605Y-101854000D01*
X150442395Y-101854000D01*
X150442395Y-101854000D01*
X149687812Y-101099417D01*
X149452200Y-101161071D01*
X149300000Y-101593499D01*
X149300000Y-100919812D01*
X149867417Y-100919812D01*
X150622000Y-101674395D01*
X151376583Y-100919812D01*
X157487417Y-100919812D01*
X158242000Y-101674395D01*
X158996583Y-100919812D01*
X158934929Y-100684200D01*
X158434520Y-100508073D01*
X157904801Y-100536852D01*
X157549071Y-100684200D01*
X157487417Y-100919812D01*
X151376583Y-100919812D01*
X151376583Y-100919812D01*
X151314929Y-100684200D01*
X150814520Y-100508073D01*
X150284801Y-100536852D01*
X149929071Y-100684200D01*
X149867417Y-100919812D01*
X149300000Y-100919812D01*
X149300000Y-97066477D01*
X149490854Y-97528380D01*
X149865647Y-97903827D01*
X150355587Y-98107268D01*
X150886086Y-98107731D01*
X151376380Y-97905146D01*
X151751827Y-97530353D01*
X151955268Y-97040413D01*
X151955270Y-97038086D01*
X156908269Y-97038086D01*
X157110854Y-97528380D01*
X157485647Y-97903827D01*
X157975587Y-98107268D01*
X158506086Y-98107731D01*
X158996380Y-97905146D01*
X159371827Y-97530353D01*
X159575268Y-97040413D01*
X159575731Y-96509914D01*
X159373146Y-96019620D01*
X158998353Y-95644173D01*
X158508413Y-95440732D01*
X157977914Y-95440269D01*
X157487620Y-95642854D01*
X157112173Y-96017647D01*
X156908732Y-96507587D01*
X156908269Y-97038086D01*
X151955270Y-97038086D01*
X151955731Y-96509914D01*
X151753146Y-96019620D01*
X151378353Y-95644173D01*
X150888413Y-95440732D01*
X150357914Y-95440269D01*
X149867620Y-95642854D01*
X149492173Y-96017647D01*
X149300000Y-96480451D01*
X149300000Y-86398477D01*
X149490854Y-86860380D01*
X149865647Y-87235827D01*
X150355587Y-87439268D01*
X150886086Y-87439731D01*
X151376380Y-87237146D01*
X151751827Y-86862353D01*
X151955268Y-86372413D01*
X151955731Y-85841914D01*
X151753146Y-85351620D01*
X151378353Y-84976173D01*
X150888413Y-84772732D01*
X150357914Y-84772269D01*
X149867620Y-84974854D01*
X149492173Y-85349647D01*
X149300000Y-85812451D01*
X149300000Y-81318477D01*
X149490854Y-81780380D01*
X149490854Y-81780380D01*
G37*
X149490854Y-81780380D02*
X149865647Y-82155827D01*
X150355587Y-82359268D01*
X150880924Y-82359726D01*
X154180000Y-85658802D01*
X154180000Y-87884000D01*
X154237852Y-88174839D01*
X154402599Y-88421401D01*
X159736599Y-93755401D01*
X159983161Y-93920148D01*
X160274000Y-93978000D01*
X169357198Y-93978000D01*
X174214599Y-98835401D01*
X174461161Y-99000148D01*
X174752000Y-99058000D01*
X183835198Y-99058000D01*
X185930000Y-101152802D01*
X185930000Y-101184621D01*
X185702172Y-101336851D01*
X185420000Y-101759150D01*
X185137828Y-101336851D01*
X184684609Y-101034019D01*
X184150000Y-100927679D01*
X183615391Y-101034019D01*
X183162172Y-101336851D01*
X182880000Y-101759150D01*
X182597828Y-101336851D01*
X182144609Y-101034019D01*
X181610000Y-100927679D01*
X181075391Y-101034019D01*
X180622172Y-101336851D01*
X180319340Y-101790070D01*
X180213000Y-102324679D01*
X180213000Y-103415321D01*
X180319340Y-103949930D01*
X180622172Y-104403149D01*
X180977238Y-104640397D01*
X164533329Y-104578809D01*
X164765853Y-104346690D01*
X165163047Y-103390140D01*
X165163951Y-102354404D01*
X164768427Y-101397162D01*
X164036690Y-100664147D01*
X163080140Y-100266953D01*
X162044404Y-100266049D01*
X161087162Y-100661573D01*
X160354147Y-101393310D01*
X159956953Y-102349860D01*
X159956049Y-103385596D01*
X160351573Y-104342838D01*
X160572323Y-104563974D01*
X149300000Y-104521755D01*
X149300000Y-102788188D01*
X149867417Y-102788188D01*
X149929071Y-103023800D01*
X150429480Y-103199927D01*
X150959199Y-103171148D01*
X151314929Y-103023800D01*
X151376583Y-102788188D01*
X157487417Y-102788188D01*
X157549071Y-103023800D01*
X158049480Y-103199927D01*
X158579199Y-103171148D01*
X158934929Y-103023800D01*
X158996583Y-102788188D01*
X158242000Y-102033605D01*
X157487417Y-102788188D01*
X151376583Y-102788188D01*
X151376583Y-102788188D01*
X150622000Y-102033605D01*
X149867417Y-102788188D01*
X149300000Y-102788188D01*
X149300000Y-102101891D01*
X149304852Y-102191199D01*
X149452200Y-102546929D01*
X149687812Y-102608583D01*
X150442395Y-101854000D01*
X150801605Y-101854000D01*
X151556188Y-102608583D01*
X151791800Y-102546929D01*
X151967927Y-102046520D01*
X151947009Y-101661480D01*
X156896073Y-101661480D01*
X156924852Y-102191199D01*
X157072200Y-102546929D01*
X157307812Y-102608583D01*
X158062395Y-101854000D01*
X158421605Y-101854000D01*
X159176188Y-102608583D01*
X159411800Y-102546929D01*
X159587927Y-102046520D01*
X159559148Y-101516801D01*
X159411800Y-101161071D01*
X159176188Y-101099417D01*
X158421605Y-101854000D01*
X158062395Y-101854000D01*
X158062395Y-101854000D01*
X157307812Y-101099417D01*
X157072200Y-101161071D01*
X156896073Y-101661480D01*
X151947009Y-101661480D01*
X151939148Y-101516801D01*
X151791800Y-101161071D01*
X151556188Y-101099417D01*
X150801605Y-101854000D01*
X150442395Y-101854000D01*
X150442395Y-101854000D01*
X149687812Y-101099417D01*
X149452200Y-101161071D01*
X149300000Y-101593499D01*
X149300000Y-100919812D01*
X149867417Y-100919812D01*
X150622000Y-101674395D01*
X151376583Y-100919812D01*
X157487417Y-100919812D01*
X158242000Y-101674395D01*
X158996583Y-100919812D01*
X158934929Y-100684200D01*
X158434520Y-100508073D01*
X157904801Y-100536852D01*
X157549071Y-100684200D01*
X157487417Y-100919812D01*
X151376583Y-100919812D01*
X151376583Y-100919812D01*
X151314929Y-100684200D01*
X150814520Y-100508073D01*
X150284801Y-100536852D01*
X149929071Y-100684200D01*
X149867417Y-100919812D01*
X149300000Y-100919812D01*
X149300000Y-97066477D01*
X149490854Y-97528380D01*
X149865647Y-97903827D01*
X150355587Y-98107268D01*
X150886086Y-98107731D01*
X151376380Y-97905146D01*
X151751827Y-97530353D01*
X151955268Y-97040413D01*
X151955270Y-97038086D01*
X156908269Y-97038086D01*
X157110854Y-97528380D01*
X157485647Y-97903827D01*
X157975587Y-98107268D01*
X158506086Y-98107731D01*
X158996380Y-97905146D01*
X159371827Y-97530353D01*
X159575268Y-97040413D01*
X159575731Y-96509914D01*
X159373146Y-96019620D01*
X158998353Y-95644173D01*
X158508413Y-95440732D01*
X157977914Y-95440269D01*
X157487620Y-95642854D01*
X157112173Y-96017647D01*
X156908732Y-96507587D01*
X156908269Y-97038086D01*
X151955270Y-97038086D01*
X151955731Y-96509914D01*
X151753146Y-96019620D01*
X151378353Y-95644173D01*
X150888413Y-95440732D01*
X150357914Y-95440269D01*
X149867620Y-95642854D01*
X149492173Y-96017647D01*
X149300000Y-96480451D01*
X149300000Y-86398477D01*
X149490854Y-86860380D01*
X149865647Y-87235827D01*
X150355587Y-87439268D01*
X150886086Y-87439731D01*
X151376380Y-87237146D01*
X151751827Y-86862353D01*
X151955268Y-86372413D01*
X151955731Y-85841914D01*
X151753146Y-85351620D01*
X151378353Y-84976173D01*
X150888413Y-84772732D01*
X150357914Y-84772269D01*
X149867620Y-84974854D01*
X149492173Y-85349647D01*
X149300000Y-85812451D01*
X149300000Y-81318477D01*
X149490854Y-81780380D01*
G36*
X161624147Y-53133310D02*
X161226953Y-54089860D01*
X161226049Y-55125596D01*
X161621573Y-56082838D01*
X162353310Y-56815853D01*
X163309860Y-57213047D01*
X164345596Y-57213951D01*
X165302838Y-56818427D01*
X166035853Y-56086690D01*
X166433047Y-55130140D01*
X166433951Y-54094404D01*
X166038427Y-53137162D01*
X165681888Y-52780000D01*
X171922440Y-52780000D01*
X171478172Y-53076851D01*
X171175340Y-53530070D01*
X171069000Y-54064679D01*
X171069000Y-55155321D01*
X171175340Y-55689930D01*
X171478172Y-56143149D01*
X171931391Y-56445981D01*
X172466000Y-56552321D01*
X173000609Y-56445981D01*
X173453828Y-56143149D01*
X173745330Y-55706887D01*
X173763941Y-55769941D01*
X174107974Y-56195630D01*
X174588723Y-56457260D01*
X174662930Y-56472220D01*
X174879000Y-56349720D01*
X174879000Y-54737000D01*
X174859000Y-54737000D01*
X174859000Y-54483000D01*
X174879000Y-54483000D01*
X174879000Y-54463000D01*
X175133000Y-54463000D01*
X175133000Y-54483000D01*
X175153000Y-54483000D01*
X175153000Y-54737000D01*
X175133000Y-54737000D01*
X175133000Y-56349720D01*
X175349070Y-56472220D01*
X175423277Y-56457260D01*
X175904026Y-56195630D01*
X176248059Y-55769941D01*
X176266670Y-55706887D01*
X176558172Y-56143149D01*
X177011391Y-56445981D01*
X177546000Y-56552321D01*
X178080609Y-56445981D01*
X178533828Y-56143149D01*
X178816000Y-55720850D01*
X179098172Y-56143149D01*
X179551391Y-56445981D01*
X180086000Y-56552321D01*
X180620609Y-56445981D01*
X181073828Y-56143149D01*
X181356000Y-55720850D01*
X181638172Y-56143149D01*
X182091391Y-56445981D01*
X182626000Y-56552321D01*
X183160609Y-56445981D01*
X183613828Y-56143149D01*
X183896000Y-55720850D01*
X184178172Y-56143149D01*
X184631391Y-56445981D01*
X185166000Y-56552321D01*
X185700609Y-56445981D01*
X186153828Y-56143149D01*
X186436000Y-55720850D01*
X186718172Y-56143149D01*
X187171391Y-56445981D01*
X187706000Y-56552321D01*
X188240609Y-56445981D01*
X188693828Y-56143149D01*
X188976000Y-55720850D01*
X189258172Y-56143149D01*
X189711391Y-56445981D01*
X189848037Y-56473161D01*
X184628599Y-61692599D01*
X184463852Y-61939161D01*
X184406000Y-62230000D01*
X184406000Y-63693198D01*
X183752417Y-64346781D01*
X183752774Y-63938306D01*
X183504462Y-63337345D01*
X183045073Y-62877154D01*
X182878000Y-62807779D01*
X182878000Y-61144496D01*
X183042655Y-61076462D01*
X183502846Y-60617073D01*
X183752206Y-60016547D01*
X183752774Y-59366306D01*
X183504462Y-58765345D01*
X183045073Y-58305154D01*
X182444547Y-58055794D01*
X181794306Y-58055226D01*
X181193345Y-58303538D01*
X180733154Y-58762927D01*
X180483794Y-59363453D01*
X180483226Y-60013694D01*
X180731538Y-60614655D01*
X181190927Y-61074846D01*
X181358000Y-61144221D01*
X181358000Y-62807504D01*
X181193345Y-62875538D01*
X180733154Y-63334927D01*
X180663779Y-63502000D01*
X159475774Y-63502000D01*
X159373146Y-63253620D01*
X158998353Y-62878173D01*
X158508413Y-62674732D01*
X157977914Y-62674269D01*
X157487620Y-62876854D01*
X157112173Y-63251647D01*
X157008217Y-63502000D01*
X151855774Y-63502000D01*
X151753146Y-63253620D01*
X151378353Y-62878173D01*
X150888413Y-62674732D01*
X150357914Y-62674269D01*
X149867620Y-62876854D01*
X149492173Y-63251647D01*
X149300000Y-63714451D01*
X149300000Y-60208086D01*
X149542269Y-60208086D01*
X149744854Y-60698380D01*
X150119647Y-61073827D01*
X150609587Y-61277268D01*
X151140086Y-61277731D01*
X151630380Y-61075146D01*
X152005827Y-60700353D01*
X152209268Y-60210413D01*
X152209270Y-60208086D01*
X157162269Y-60208086D01*
X157364854Y-60698380D01*
X157739647Y-61073827D01*
X158229587Y-61277268D01*
X158760086Y-61277731D01*
X159250380Y-61075146D01*
X159625827Y-60700353D01*
X159829268Y-60210413D01*
X159829381Y-60080163D01*
X161079443Y-60080163D01*
X161178042Y-60346965D01*
X161787582Y-60573401D01*
X162437377Y-60549341D01*
X162925958Y-60346965D01*
X163024557Y-60080163D01*
X165651443Y-60080163D01*
X165750042Y-60346965D01*
X166359582Y-60573401D01*
X167009377Y-60549341D01*
X167497958Y-60346965D01*
X167596557Y-60080163D01*
X166624000Y-59107605D01*
X165651443Y-60080163D01*
X163024557Y-60080163D01*
X163024557Y-60080163D01*
X162052000Y-59107605D01*
X161079443Y-60080163D01*
X159829381Y-60080163D01*
X159829731Y-59679914D01*
X159627146Y-59189620D01*
X159252353Y-58814173D01*
X158889690Y-58663582D01*
X160406599Y-58663582D01*
X160430659Y-59313377D01*
X160633035Y-59801958D01*
X160899837Y-59900557D01*
X161872395Y-58928000D01*
X162231605Y-58928000D01*
X163204163Y-59900557D01*
X163470965Y-59801958D01*
X163697401Y-59192418D01*
X163677820Y-58663582D01*
X164978599Y-58663582D01*
X165002659Y-59313377D01*
X165205035Y-59801958D01*
X165471837Y-59900557D01*
X166444395Y-58928000D01*
X166803605Y-58928000D01*
X167776163Y-59900557D01*
X168042965Y-59801958D01*
X168269401Y-59192418D01*
X168245341Y-58542623D01*
X168042965Y-58054042D01*
X167776163Y-57955443D01*
X166803605Y-58928000D01*
X166444395Y-58928000D01*
X166444395Y-58928000D01*
X165471837Y-57955443D01*
X165205035Y-58054042D01*
X164978599Y-58663582D01*
X163677820Y-58663582D01*
X163673341Y-58542623D01*
X163470965Y-58054042D01*
X163204163Y-57955443D01*
X162231605Y-58928000D01*
X161872395Y-58928000D01*
X161872395Y-58928000D01*
X160899837Y-57955443D01*
X160633035Y-58054042D01*
X160406599Y-58663582D01*
X158889690Y-58663582D01*
X158762413Y-58610732D01*
X158231914Y-58610269D01*
X157741620Y-58812854D01*
X157366173Y-59187647D01*
X157162732Y-59677587D01*
X157162269Y-60208086D01*
X152209270Y-60208086D01*
X152209731Y-59679914D01*
X152007146Y-59189620D01*
X151632353Y-58814173D01*
X151142413Y-58610732D01*
X150611914Y-58610269D01*
X150121620Y-58812854D01*
X149746173Y-59187647D01*
X149542732Y-59677587D01*
X149542269Y-60208086D01*
X149300000Y-60208086D01*
X149300000Y-57775837D01*
X161079443Y-57775837D01*
X162052000Y-58748395D01*
X163024557Y-57775837D01*
X165651443Y-57775837D01*
X166624000Y-58748395D01*
X167596557Y-57775837D01*
X167497958Y-57509035D01*
X166888418Y-57282599D01*
X166238623Y-57306659D01*
X165750042Y-57509035D01*
X165651443Y-57775837D01*
X163024557Y-57775837D01*
X163024557Y-57775837D01*
X162925958Y-57509035D01*
X162316418Y-57282599D01*
X161666623Y-57306659D01*
X161178042Y-57509035D01*
X161079443Y-57775837D01*
X149300000Y-57775837D01*
X149300000Y-55128086D01*
X149542269Y-55128086D01*
X149744854Y-55618380D01*
X150119647Y-55993827D01*
X150609587Y-56197268D01*
X151140086Y-56197731D01*
X151630380Y-55995146D01*
X152005827Y-55620353D01*
X152209268Y-55130413D01*
X152209270Y-55128086D01*
X157162269Y-55128086D01*
X157364854Y-55618380D01*
X157739647Y-55993827D01*
X158229587Y-56197268D01*
X158760086Y-56197731D01*
X159250380Y-55995146D01*
X159625827Y-55620353D01*
X159829268Y-55130413D01*
X159829731Y-54599914D01*
X159627146Y-54109620D01*
X159252353Y-53734173D01*
X158762413Y-53530732D01*
X158231914Y-53530269D01*
X157741620Y-53732854D01*
X157366173Y-54107647D01*
X157162732Y-54597587D01*
X157162269Y-55128086D01*
X152209270Y-55128086D01*
X152209731Y-54599914D01*
X152007146Y-54109620D01*
X151632353Y-53734173D01*
X151142413Y-53530732D01*
X150611914Y-53530269D01*
X150121620Y-53732854D01*
X149746173Y-54107647D01*
X149542732Y-54597587D01*
X149542269Y-55128086D01*
X149300000Y-55128086D01*
X149300000Y-52780000D01*
X161978074Y-52780000D01*
X161624147Y-53133310D01*
X161624147Y-53133310D01*
G37*
X161624147Y-53133310D02*
X161226953Y-54089860D01*
X161226049Y-55125596D01*
X161621573Y-56082838D01*
X162353310Y-56815853D01*
X163309860Y-57213047D01*
X164345596Y-57213951D01*
X165302838Y-56818427D01*
X166035853Y-56086690D01*
X166433047Y-55130140D01*
X166433951Y-54094404D01*
X166038427Y-53137162D01*
X165681888Y-52780000D01*
X171922440Y-52780000D01*
X171478172Y-53076851D01*
X171175340Y-53530070D01*
X171069000Y-54064679D01*
X171069000Y-55155321D01*
X171175340Y-55689930D01*
X171478172Y-56143149D01*
X171931391Y-56445981D01*
X172466000Y-56552321D01*
X173000609Y-56445981D01*
X173453828Y-56143149D01*
X173745330Y-55706887D01*
X173763941Y-55769941D01*
X174107974Y-56195630D01*
X174588723Y-56457260D01*
X174662930Y-56472220D01*
X174879000Y-56349720D01*
X174879000Y-54737000D01*
X174859000Y-54737000D01*
X174859000Y-54483000D01*
X174879000Y-54483000D01*
X174879000Y-54463000D01*
X175133000Y-54463000D01*
X175133000Y-54483000D01*
X175153000Y-54483000D01*
X175153000Y-54737000D01*
X175133000Y-54737000D01*
X175133000Y-56349720D01*
X175349070Y-56472220D01*
X175423277Y-56457260D01*
X175904026Y-56195630D01*
X176248059Y-55769941D01*
X176266670Y-55706887D01*
X176558172Y-56143149D01*
X177011391Y-56445981D01*
X177546000Y-56552321D01*
X178080609Y-56445981D01*
X178533828Y-56143149D01*
X178816000Y-55720850D01*
X179098172Y-56143149D01*
X179551391Y-56445981D01*
X180086000Y-56552321D01*
X180620609Y-56445981D01*
X181073828Y-56143149D01*
X181356000Y-55720850D01*
X181638172Y-56143149D01*
X182091391Y-56445981D01*
X182626000Y-56552321D01*
X183160609Y-56445981D01*
X183613828Y-56143149D01*
X183896000Y-55720850D01*
X184178172Y-56143149D01*
X184631391Y-56445981D01*
X185166000Y-56552321D01*
X185700609Y-56445981D01*
X186153828Y-56143149D01*
X186436000Y-55720850D01*
X186718172Y-56143149D01*
X187171391Y-56445981D01*
X187706000Y-56552321D01*
X188240609Y-56445981D01*
X188693828Y-56143149D01*
X188976000Y-55720850D01*
X189258172Y-56143149D01*
X189711391Y-56445981D01*
X189848037Y-56473161D01*
X184628599Y-61692599D01*
X184463852Y-61939161D01*
X184406000Y-62230000D01*
X184406000Y-63693198D01*
X183752417Y-64346781D01*
X183752774Y-63938306D01*
X183504462Y-63337345D01*
X183045073Y-62877154D01*
X182878000Y-62807779D01*
X182878000Y-61144496D01*
X183042655Y-61076462D01*
X183502846Y-60617073D01*
X183752206Y-60016547D01*
X183752774Y-59366306D01*
X183504462Y-58765345D01*
X183045073Y-58305154D01*
X182444547Y-58055794D01*
X181794306Y-58055226D01*
X181193345Y-58303538D01*
X180733154Y-58762927D01*
X180483794Y-59363453D01*
X180483226Y-60013694D01*
X180731538Y-60614655D01*
X181190927Y-61074846D01*
X181358000Y-61144221D01*
X181358000Y-62807504D01*
X181193345Y-62875538D01*
X180733154Y-63334927D01*
X180663779Y-63502000D01*
X159475774Y-63502000D01*
X159373146Y-63253620D01*
X158998353Y-62878173D01*
X158508413Y-62674732D01*
X157977914Y-62674269D01*
X157487620Y-62876854D01*
X157112173Y-63251647D01*
X157008217Y-63502000D01*
X151855774Y-63502000D01*
X151753146Y-63253620D01*
X151378353Y-62878173D01*
X150888413Y-62674732D01*
X150357914Y-62674269D01*
X149867620Y-62876854D01*
X149492173Y-63251647D01*
X149300000Y-63714451D01*
X149300000Y-60208086D01*
X149542269Y-60208086D01*
X149744854Y-60698380D01*
X150119647Y-61073827D01*
X150609587Y-61277268D01*
X151140086Y-61277731D01*
X151630380Y-61075146D01*
X152005827Y-60700353D01*
X152209268Y-60210413D01*
X152209270Y-60208086D01*
X157162269Y-60208086D01*
X157364854Y-60698380D01*
X157739647Y-61073827D01*
X158229587Y-61277268D01*
X158760086Y-61277731D01*
X159250380Y-61075146D01*
X159625827Y-60700353D01*
X159829268Y-60210413D01*
X159829381Y-60080163D01*
X161079443Y-60080163D01*
X161178042Y-60346965D01*
X161787582Y-60573401D01*
X162437377Y-60549341D01*
X162925958Y-60346965D01*
X163024557Y-60080163D01*
X165651443Y-60080163D01*
X165750042Y-60346965D01*
X166359582Y-60573401D01*
X167009377Y-60549341D01*
X167497958Y-60346965D01*
X167596557Y-60080163D01*
X166624000Y-59107605D01*
X165651443Y-60080163D01*
X163024557Y-60080163D01*
X163024557Y-60080163D01*
X162052000Y-59107605D01*
X161079443Y-60080163D01*
X159829381Y-60080163D01*
X159829731Y-59679914D01*
X159627146Y-59189620D01*
X159252353Y-58814173D01*
X158889690Y-58663582D01*
X160406599Y-58663582D01*
X160430659Y-59313377D01*
X160633035Y-59801958D01*
X160899837Y-59900557D01*
X161872395Y-58928000D01*
X162231605Y-58928000D01*
X163204163Y-59900557D01*
X163470965Y-59801958D01*
X163697401Y-59192418D01*
X163677820Y-58663582D01*
X164978599Y-58663582D01*
X165002659Y-59313377D01*
X165205035Y-59801958D01*
X165471837Y-59900557D01*
X166444395Y-58928000D01*
X166803605Y-58928000D01*
X167776163Y-59900557D01*
X168042965Y-59801958D01*
X168269401Y-59192418D01*
X168245341Y-58542623D01*
X168042965Y-58054042D01*
X167776163Y-57955443D01*
X166803605Y-58928000D01*
X166444395Y-58928000D01*
X166444395Y-58928000D01*
X165471837Y-57955443D01*
X165205035Y-58054042D01*
X164978599Y-58663582D01*
X163677820Y-58663582D01*
X163673341Y-58542623D01*
X163470965Y-58054042D01*
X163204163Y-57955443D01*
X162231605Y-58928000D01*
X161872395Y-58928000D01*
X161872395Y-58928000D01*
X160899837Y-57955443D01*
X160633035Y-58054042D01*
X160406599Y-58663582D01*
X158889690Y-58663582D01*
X158762413Y-58610732D01*
X158231914Y-58610269D01*
X157741620Y-58812854D01*
X157366173Y-59187647D01*
X157162732Y-59677587D01*
X157162269Y-60208086D01*
X152209270Y-60208086D01*
X152209731Y-59679914D01*
X152007146Y-59189620D01*
X151632353Y-58814173D01*
X151142413Y-58610732D01*
X150611914Y-58610269D01*
X150121620Y-58812854D01*
X149746173Y-59187647D01*
X149542732Y-59677587D01*
X149542269Y-60208086D01*
X149300000Y-60208086D01*
X149300000Y-57775837D01*
X161079443Y-57775837D01*
X162052000Y-58748395D01*
X163024557Y-57775837D01*
X165651443Y-57775837D01*
X166624000Y-58748395D01*
X167596557Y-57775837D01*
X167497958Y-57509035D01*
X166888418Y-57282599D01*
X166238623Y-57306659D01*
X165750042Y-57509035D01*
X165651443Y-57775837D01*
X163024557Y-57775837D01*
X163024557Y-57775837D01*
X162925958Y-57509035D01*
X162316418Y-57282599D01*
X161666623Y-57306659D01*
X161178042Y-57509035D01*
X161079443Y-57775837D01*
X149300000Y-57775837D01*
X149300000Y-55128086D01*
X149542269Y-55128086D01*
X149744854Y-55618380D01*
X150119647Y-55993827D01*
X150609587Y-56197268D01*
X151140086Y-56197731D01*
X151630380Y-55995146D01*
X152005827Y-55620353D01*
X152209268Y-55130413D01*
X152209270Y-55128086D01*
X157162269Y-55128086D01*
X157364854Y-55618380D01*
X157739647Y-55993827D01*
X158229587Y-56197268D01*
X158760086Y-56197731D01*
X159250380Y-55995146D01*
X159625827Y-55620353D01*
X159829268Y-55130413D01*
X159829731Y-54599914D01*
X159627146Y-54109620D01*
X159252353Y-53734173D01*
X158762413Y-53530732D01*
X158231914Y-53530269D01*
X157741620Y-53732854D01*
X157366173Y-54107647D01*
X157162732Y-54597587D01*
X157162269Y-55128086D01*
X152209270Y-55128086D01*
X152209731Y-54599914D01*
X152007146Y-54109620D01*
X151632353Y-53734173D01*
X151142413Y-53530732D01*
X150611914Y-53530269D01*
X150121620Y-53732854D01*
X149746173Y-54107647D01*
X149542732Y-54597587D01*
X149542269Y-55128086D01*
X149300000Y-55128086D01*
X149300000Y-52780000D01*
X161978074Y-52780000D01*
X161624147Y-53133310D01*
M02*
